<svg width="28" height="26" fill="none" xmlns="http://www.w3.org/2000/svg"><path d="M24.995 3.533a6.836 6.836 0 00-2.22-1.505 6.759 6.759 0 00-5.237 0c-.83.35-1.585.86-2.22 1.505L14 4.871l-1.32-1.338a6.794 6.794 0 00-4.838-2.032 6.794 6.794 0 00-4.839 2.032A6.99 6.99 0 001 8.441c0 1.84.72 3.606 2.004 4.907l1.319 1.337L14 24.5l9.677-9.815 1.318-1.337a6.948 6.948 0 001.484-2.251 7.024 7.024 0 000-5.312 6.947 6.947 0 00-1.484-2.252z" stroke="#3A4736" stroke-width="1.613" stroke-linecap="round" stroke-linejoin="round"/></svg>