<svg width="111" height="60" fill="none" xmlns="http://www.w3.org/2000/svg"><path d="M.984 30.976A.682.682 0 01.6 30.88a.296.296 0 01-.12-.24c0-.096.048-.176.144-.24a.67.67 0 01.408-.072c.384.032.664.048.84.048.48 0 .864-.072 1.152-.216.288-.16.48-.424.576-.792.128-.496.288-2.176.48-5.04.208-2.88.312-5.112.312-6.696 0-.704-.024-1.16-.072-1.368-.096-.368-.288-.624-.576-.768-.288-.16-.672-.24-1.152-.24-.176 0-.456.016-.84.048h-.096a.525.525 0 01-.336-.096.296.296 0 01-.12-.24c0-.08.04-.152.12-.216a.682.682 0 01.384-.096h3.312c.368 0 .608.096.72.288.032.064.08.192.144.384l4.776 11.328c.064.16.144.24.24.24.112 0 .192-.072.24-.216l4.896-11.376a2.15 2.15 0 01.192-.384c.096-.176.352-.264.768-.264h3.672c.16 0 .28.032.36.096.096.064.144.144.144.24s-.056.176-.168.24c-.096.064-.224.088-.384.072a11.345 11.345 0 00-.84-.048c-.48 0-.864.08-1.152.24-.288.144-.48.4-.576.768-.048.208-.072.664-.072 1.368 0 1.584.096 3.808.288 6.672.208 2.864.376 4.552.504 5.064.096.368.288.632.576.792.288.144.672.216 1.152.216.176 0 .456-.016.84-.048h.096c.144 0 .256.032.336.096.08.064.12.144.12.24 0 .08-.048.152-.144.216-.08.064-.2.096-.36.096H14.04a.682.682 0 01-.384-.096.296.296 0 01-.12-.24c0-.096.048-.176.144-.24a.67.67 0 01.408-.072c.384.032.664.048.84.048.48 0 .864-.072 1.152-.216.288-.16.48-.424.576-.792.048-.224.072-.632.072-1.224 0-1.152-.128-3.792-.384-7.92l-.144-2.112c-.016-.192-.08-.288-.192-.288-.08 0-.16.072-.24.216l-4.68 10.92c-.096.224-.208.4-.336.528-.112.128-.224.192-.336.192-.224 0-.424-.2-.6-.6l-3.984-9.744c-.064-.144-.144-.216-.24-.216s-.16.096-.192.288c-.128 1.52-.24 3.112-.336 4.776-.096 1.648-.144 2.952-.144 3.912 0 .624.024 1.048.072 1.272.096.368.288.632.576.792.288.144.672.216 1.152.216.176 0 .456-.016.84-.048h.096c.144 0 .256.032.336.096.08.064.12.144.12.24 0 .08-.048.152-.144.216-.08.064-.2.096-.36.096H.984zm26.583-9.096c.16 0 .28.032.36.096.096.064.144.144.144.24 0 .112-.048.2-.144.264-.096.064-.232.08-.408.048a1.01 1.01 0 00-.24-.024c-.32 0-.48.192-.48.576 0 .272.088.656.264 1.152.176.48.464 1.208.864 2.184l.744 1.848c.064.16.144.24.24.24.112 0 .192-.072.24-.216a83.614 83.614 0 001.296-3.384c.352-1.008.52-1.616.504-1.824 0-.224-.072-.368-.216-.432-.128-.08-.328-.104-.6-.072h-.12a.484.484 0 01-.312-.096c-.08-.064-.12-.136-.12-.216 0-.096.04-.176.12-.24a.682.682 0 01.384-.096h2.784c.16 0 .28.032.36.096.096.048.144.12.144.216s-.048.184-.144.264c-.096.064-.232.088-.408.072a.418.418 0 00-.36.12c-.096.08-.216.224-.36.432-.128.192-.408.808-.84 1.848-.416 1.04-.712 1.784-.888 2.232-.864 2.176-1.48 3.688-1.848 4.536-.24.496-.552 1-.936 1.512s-.752.824-1.104.936c-.272.08-.48.12-.624.12-.272 0-.488-.072-.648-.216A.591.591 0 0125 33.64c0-.192.088-.36.264-.504.176-.144.424-.216.744-.216.288 0 .592-.136.912-.408.336-.256.608-.592.816-1.008l.264-.552a.639.639 0 00.072-.288.762.762 0 00-.048-.216l-1.128-2.784c-.4-1.008-.776-1.92-1.128-2.736-.336-.816-.608-1.392-.816-1.728-.304-.464-.584-.688-.84-.672h-.024a.682.682 0 01-.384-.096c-.096-.064-.144-.144-.144-.24s.04-.168.12-.216a.682.682 0 01.384-.096h3.504zm16.392 9.096a.682.682 0 01-.384-.096.296.296 0 01-.12-.24c0-.096.048-.176.144-.24a.67.67 0 01.408-.072c.384.032.664.048.84.048.48 0 .864-.072 1.152-.216.288-.16.48-.424.576-.792.144-.576.216-2.76.216-6.552s-.072-5.976-.216-6.552c-.096-.368-.288-.624-.576-.768-.288-.16-.672-.24-1.152-.24-.176 0-.456.016-.84.048h-.096a.525.525 0 01-.336-.096.296.296 0 01-.12-.24c0-.08.04-.152.12-.216a.682.682 0 01.384-.096h7.344c.16 0 .28.032.36.096.096.064.144.144.144.24s-.056.176-.168.24c-.096.064-.224.088-.384.072a11.345 11.345 0 00-.84-.048c-.48 0-.864.08-1.152.24-.288.144-.48.4-.576.768-.144.592-.216 2.456-.216 5.592 0 .416.2.624.6.624h6.96c.4 0 .6-.208.6-.624 0-3.136-.072-5-.216-5.592-.096-.368-.288-.624-.576-.768-.288-.16-.672-.24-1.152-.24-.176 0-.456.016-.84.048h-.096a.525.525 0 01-.336-.096.296.296 0 01-.12-.24c0-.08.04-.152.12-.216a.682.682 0 01.384-.096h7.344c.16 0 .28.032.36.096.096.064.144.144.144.24s-.056.176-.168.24c-.096.064-.224.088-.384.072a11.345 11.345 0 00-.84-.048c-.48 0-.864.08-1.152.24-.288.144-.48.4-.576.768-.144.576-.216 2.76-.216 6.552s.072 5.976.216 6.552c.096.368.288.632.576.792.288.144.672.216 1.152.216.176 0 .456-.016.84-.048h.096c.144 0 .256.032.336.096.08.064.12.144.12.24 0 .08-.048.152-.144.216-.08.064-.2.096-.36.096h-7.344a.682.682 0 01-.384-.096.296.296 0 01-.12-.24c0-.096.048-.176.144-.24a.67.67 0 01.408-.072c.384.032.664.048.84.048.48 0 .864-.072 1.152-.216.288-.16.48-.424.576-.792.144-.576.216-2.408.216-5.496 0-.416-.2-.624-.6-.624h-6.96c-.4 0-.6.208-.6.624 0 3.088.072 4.92.216 5.496.096.368.288.632.576.792.288.144.672.216 1.152.216.176 0 .456-.016.84-.048h.096c.144 0 .256.032.336.096.08.064.12.144.12.24 0 .08-.048.152-.144.216-.08.064-.2.096-.36.096h-7.344zM67.192 31a5.066 5.066 0 01-2.208-.504 4.194 4.194 0 01-1.728-1.536c-.432-.688-.648-1.52-.648-2.496 0-.992.224-1.832.672-2.52.448-.688 1.016-1.2 1.704-1.536a4.876 4.876 0 014.416 0c.704.336 1.28.848 1.728 1.536.448.688.672 1.528.672 2.52 0 .976-.224 1.808-.672 2.496a4.194 4.194 0 01-1.728 1.536 5.066 5.066 0 01-2.208.504zm0-.624c.832 0 1.496-.36 1.992-1.08.496-.72.744-1.672.744-2.856 0-1.168-.256-2.112-.768-2.832-.496-.736-1.152-1.104-1.968-1.104-.816 0-1.48.368-1.992 1.104-.496.72-.744 1.664-.744 2.832s.248 2.12.744 2.856c.512.72 1.176 1.08 1.992 1.08zm6.765-6.984c0-.064.04-.128.12-.192a.85.85 0 01.384-.168c.496-.128 1.008-.392 1.536-.792.064-.032.176-.096.336-.192.16-.112.288-.168.384-.168.224 0 .336.096.336.288 0 .176-.008.336-.024.48 0 .112.024.184.072.216.064.016.136-.008.216-.072.656-.608 1.352-.912 2.088-.912.512 0 1.008.152 1.488.456.48.288.88.712 1.2 1.272.096.16.192.168.288.024.256-.416.656-.808 1.2-1.176.544-.384 1.096-.576 1.656-.576.528 0 1.04.16 1.536.48.512.32.928.816 1.248 1.488.336.656.504 1.472.504 2.448l-.024 2.16c0 .64.056 1.12.168 1.44.112.304.336.456.672.456.128 0 .224-.008.288-.024l.144-.024c.128 0 .224.032.288.096.08.064.12.144.12.24s-.048.176-.144.24c-.08.064-.2.096-.36.096h-3.984a.682.682 0 01-.384-.096.296.296 0 01-.12-.24c0-.112.048-.2.144-.264.096-.064.232-.08.408-.048.464.08.76-.096.888-.528.144-.448.216-1.136.216-2.064V26.44c0-.672-.112-1.272-.336-1.8-.208-.528-.488-.936-.84-1.224-.336-.288-.68-.432-1.032-.432-.64 0-1.128.344-1.464 1.032-.32.672-.48 1.432-.48 2.28l-.024 2.16c0 .64.056 1.12.168 1.44.112.304.336.456.672.456.128 0 .224-.008.288-.024l.144-.024c.128 0 .224.032.288.096.08.064.12.144.12.24s-.048.176-.144.24c-.08.064-.2.096-.36.096H79.86a.682.682 0 01-.384-.096.296.296 0 01-.12-.24c0-.112.048-.2.144-.264.096-.064.232-.08.408-.048.464.08.76-.096.888-.528.144-.448.216-1.136.216-2.064V26.44c0-.672-.112-1.272-.336-1.8-.208-.528-.488-.936-.84-1.224-.336-.288-.68-.432-1.032-.432s-.68.144-.984.432c-.288.272-.52.608-.696 1.008-.16.4-.24.752-.24 1.056-.016.4-.024.944-.024 1.632 0 .992.04 1.808.12 2.448.048.272.136.472.264.6s.312.192.552.192c.112 0 .208-.008.288-.024l.144-.024c.128 0 .224.032.288.096.08.064.12.144.12.24s-.048.176-.144.24c-.08.064-.2.096-.36.096H74.22a.682.682 0 01-.384-.096.296.296 0 01-.12-.24c0-.112.048-.2.144-.264.096-.064.232-.08.408-.048.48.096.8-.16.96-.768.096-.352.144-.896.144-1.632 0-.528-.008-.936-.024-1.224l-.024-1.608c0-.432-.072-.776-.216-1.032a.664.664 0 00-.648-.408.865.865 0 01-.384-.072c-.08-.048-.12-.112-.12-.192zm18.145 3.072c0-.976.216-1.808.648-2.496.432-.704.984-1.224 1.656-1.56.672-.352 1.352-.528 2.04-.528 1.008 0 1.856.264 2.544.792.688.512 1.032 1.216 1.032 2.112 0 .336-.072.6-.216.792-.128.192-.288.288-.48.288l-5.112-.024c-.24 0-.36.112-.36.336 0 1.088.264 2.024.792 2.808.528.768 1.248 1.152 2.16 1.152.672 0 1.256-.152 1.752-.456.496-.304.856-.656 1.08-1.056.112-.192.24-.288.384-.288.16 0 .24.104.24.312 0 .16-.048.296-.144.408-.448.656-.944 1.144-1.488 1.464-.544.32-1.232.48-2.064.48a4.913 4.913 0 01-2.184-.504c-.672-.336-1.224-.848-1.656-1.536-.416-.688-.624-1.52-.624-2.496zm1.944-1.608a.267.267 0 00-.024.12c0 .192.112.288.336.288l3.288-.024c.288 0 .472-.064.552-.192.08-.144.12-.32.12-.528 0-.592-.176-1.072-.528-1.44-.336-.384-.784-.576-1.344-.576-.544 0-1.032.2-1.464.6-.416.4-.728.984-.936 1.752zM26.617 46.023c0-.296.063-.609.188-.937.14-.328.351-.563.633-.703-.063.484-.04.96.07 1.43.125.468.32.882.586 1.242.265.36.61.648 1.031.867.422.203.906.305 1.453.305.672 0 1.25-.164 1.735-.493a4.56 4.56 0 001.242-1.265c.328-.516.57-1.078.726-1.688a7.433 7.433 0 00.235-1.804v-.493l-1.383-7.617a2.595 2.595 0 01-.047-.281c0-.125.023-.242.07-.352a.517.517 0 01.258-.257c.125-.047.313-.024.563.07 0 .031.03.187.093.469.078.265.157.617.235 1.054.093.422.187.899.28 1.43a76.571 76.571 0 01.563 3.164c.079.484.141.898.188 1.242a11.05 11.05 0 01-.07 2.578 7.926 7.926 0 01-.75 2.461 4.928 4.928 0 01-1.594 1.852c-.672.484-1.516.726-2.531.726-.375 0-.79-.078-1.243-.234a5.017 5.017 0 01-1.218-.633 4.444 4.444 0 01-.938-.937 2.118 2.118 0 01-.375-1.196zM38.87 49c-.297.11-.57.086-.82-.07-.234-.172-.445-.422-.633-.75a7.052 7.052 0 01-.492-1.149 10.4 10.4 0 01-.328-1.289 12.65 12.65 0 01-.164-1.148c-.016-.344-.008-.594.023-.75 0-.157.008-.399.024-.727.015-.328.031-.695.047-1.101l.046-1.29c.032-.453.055-.89.07-1.312.016-.422.032-.789.048-1.102.015-.328.023-.57.023-.726.031 0 .055-.008.07-.023l.07-.024a.49.49 0 01.4.211c.109.14.202.273.28.398 0 .22-.007.61-.023 1.172v3.633c.016.563.023.953.023 1.172.016.188.047.484.094.89.063.391.14.797.235 1.22.093.406.218.78.375 1.124.171.328.382.516.632.563.657 0 1.203-.242 1.641-.727.453-.484.828-1.093 1.125-1.828.297-.734.531-1.523.703-2.367.188-.86.344-1.664.469-2.414.125-.75.234-1.375.328-1.875.11-.516.234-.797.375-.844l.563.117 1.312 9.07a.605.605 0 01.234.212c.063.093.118.195.164.304.063.11.102.22.118.328.03.11.046.188.046.235-.03.11-.125.226-.28.351-.157.125-.29.196-.4.211h-.14l-.14-.21a3.219 3.219 0 00-.165-.329 3.207 3.207 0 01-.164-.328 1.512 1.512 0 00-.07-.234 7.977 7.977 0 01-.164-.727 48.63 48.63 0 01-.14-1.078c-.047-.406-.094-.828-.141-1.266a28.07 28.07 0 00-.117-1.289c-.032-.422-.07-.789-.118-1.101a4.11 4.11 0 00-.117-.727c-.078.36-.187.79-.328 1.29-.14.484-.32 1-.539 1.546a16.327 16.327 0 01-.703 1.617c-.266.516-.57 1-.914 1.453a5.791 5.791 0 01-1.102 1.126A3.062 3.062 0 0138.87 49zm7.823-8.719v-.328c.016-.125.031-.242.047-.351a.64.64 0 01.164-.305.444.444 0 01.328-.117c.031 0 .078.008.14.023h.165c.015 1.11.07 2.25.164 3.422.11 1.172.32 2.305.633 3.398.015-.171.054-.46.117-.867.078-.422.156-.86.234-1.312.094-.469.18-.907.258-1.313.094-.406.156-.695.187-.867a6.22 6.22 0 01.446-1.008 4.75 4.75 0 01.68-.984c.28-.297.585-.54.913-.727a2.221 2.221 0 011.079-.28c.625 0 1.18.14 1.664.42.484.282.914.657 1.289 1.126.39.453.718.977.984 1.57.266.578.484 1.172.656 1.782.172.609.297 1.195.375 1.757.078.563.117 1.063.117 1.5v.282a.883.883 0 01-.046.28.409.409 0 01-.118.212c-.046.047-.14.07-.28.07-.157 0-.29-.094-.4-.281-.015-.39-.062-.844-.14-1.36a16.779 16.779 0 00-.281-1.617c-.11-.578-.266-1.14-.469-1.687a6.078 6.078 0 00-.726-1.5 3.62 3.62 0 00-1.008-1.055c-.39-.281-.86-.422-1.406-.422-.438 0-.82.078-1.149.235a2.304 2.304 0 00-.797.656 3.345 3.345 0 00-.539.96c-.125.36-.219.75-.281 1.173-.047.218-.11.609-.188 1.172-.078.562-.164 1.164-.257 1.804-.094.64-.18 1.242-.258 1.805a32.14 32.14 0 00-.117 1.172c-.047.156-.133.25-.258.281a1.29 1.29 0 01-.352.047.7.7 0 01-.117-.024c-.063 0-.094-.007-.094-.023l-1.336-8.133c0-.031-.008-.117-.023-.258v-.328zm14.08 17.696c0-.141.008-.29.024-.446.03-.14.078-.234.14-.281.078-.031.164.016.258.14.11.126.242.383.398.774.5 0 .954-.11 1.36-.328a3.671 3.671 0 001.125-.844c.328-.36.601-.773.82-1.242.235-.469.43-.953.586-1.453.156-.5.266-1 .328-1.5a8.58 8.58 0 00.117-1.36 27.25 27.25 0 00-.468-4.968 22.556 22.556 0 00-1.43-4.805 19.414 19.414 0 00-.82 2.133 16.81 16.81 0 01-.844 2.133 8.107 8.107 0 01-1.219 1.828c-.469.531-1.101.953-1.898 1.265-.282 0-.508-.07-.68-.21a1.772 1.772 0 01-.375-.563 2.507 2.507 0 01-.14-.68c-.016-.25-.024-.484-.024-.703 0-.344.04-.797.117-1.36.094-.577.235-1.194.422-1.85a24.44 24.44 0 01.656-1.97c.266-.656.57-1.25.914-1.78a5.156 5.156 0 011.149-1.29 2.204 2.204 0 011.383-.492c.156 0 .312.04.468.117.157.078.313.164.47.258l.468.281c.156.078.32.14.492.188l.234 1.008c.11.468.227 1 .352 1.593.125.578.25 1.196.375 1.852.14.656.273 1.281.398 1.875.125.578.235 1.11.329 1.594.109.468.18.812.21 1.03.016.11.04.298.07.563.048.25.079.516.095.797.03.297.054.57.07.82.031.25.047.422.047.516 0 .453-.031.985-.094 1.594a14.113 14.113 0 01-.938 3.773 7.337 7.337 0 01-.937 1.688c-.375.5-.82.898-1.336 1.195-.5.313-1.078.469-1.734.469-.375 0-.625-.14-.75-.422a2.284 2.284 0 01-.188-.937zm-1.945-11.32v.398c0 .14.016.28.047.422.031.125.086.242.164.351.078.094.203.14.375.14.281-.015.562-.171.844-.468a5.32 5.32 0 00.796-1.031c.25-.39.47-.782.657-1.172.203-.406.343-.711.422-.914.062-.14.156-.406.28-.797.141-.39.282-.797.423-1.219l.398-1.242.258-.844v-.117a.422.422 0 00-.164-.328.884.884 0 00-.352-.211 2.97 2.97 0 00-.398-.117 1.682 1.682 0 00-.352-.047c-.343 0-.672.164-.984.492-.297.328-.57.742-.82 1.242s-.477 1.047-.68 1.64a28.5 28.5 0 00-.492 1.688c-.14.532-.25 1-.328 1.407a6.74 6.74 0 00-.094.726zM68.5 48.46a58.379 58.379 0 00-.117-1.875l-.211-2.883a391.996 391.996 0 00-.211-3.375c-.063-1.187-.133-2.32-.211-3.398a84.966 84.966 0 00-.211-2.883 61.782 61.782 0 01-.117-1.899v-.304c0-.36.18-.54.539-.54.031 0 .078.009.14.024h.141c.094 1.36.18 2.664.258 3.914l.234 3.727c.078 1.234.164 2.476.258 3.726.094 1.235.203 2.524.328 3.867a.925.925 0 01.282.61c.015.219.023.445.023.68 0 .109-.008.234-.023.375 0 .125-.024.25-.07.375a.843.843 0 01-.235.304.566.566 0 01-.375.117c-.14 0-.242-.054-.305-.164a2.04 2.04 0 01-.117-.398zm2.596-4.898a5.46 5.46 0 01-1.102.515c-.375.11-.68.031-.914-.234 0-.297.102-.492.305-.586.203-.11.43-.196.68-.258.265-.063.523-.14.773-.234a.844.844 0 00.54-.563c.093-.312.179-.687.257-1.125.078-.437.187-.86.328-1.266.14-.406.344-.742.61-1.007.265-.282.632-.422 1.101-.422.266 0 .594.094.984.281a6.31 6.31 0 011.149.633c.36.25.664.516.914.797s.375.539.375.773a.96.96 0 01-.047.305c-.016.094-.094.172-.234.234L72.198 43l-.023.117c0 .063-.008.149-.023.258v.516c0 .312.023.703.07 1.172.047.453.14.898.281 1.335.156.422.367.79.633 1.102.266.313.625.469 1.078.469a.843.843 0 00.422-.094 7.17 7.17 0 00.352-.234 3.45 3.45 0 01.351-.235.78.78 0 01.422-.117c0 .234-.055.461-.164.68a1.668 1.668 0 01-.399.539 2.082 2.082 0 01-.585.375c-.22.094-.438.14-.657.14-.594 0-1.07-.203-1.43-.609a4.676 4.676 0 01-.843-1.5 10.353 10.353 0 01-.399-1.805c-.078-.625-.14-1.14-.187-1.547zm2.86-4.149c-.282 0-.524.078-.727.234a1.94 1.94 0 00-.47.586 3.033 3.033 0 00-.28.774c-.047.265-.07.508-.07.726.25 0 .523-.015.82-.047a4.52 4.52 0 00.914-.187 3.72 3.72 0 00.797-.352c.25-.156.421-.343.515-.562a4.956 4.956 0 00-.656-.867c-.203-.203-.484-.305-.844-.305z" fill="#3A4736"/></svg>