<svg width="111" height="58" viewBox="0 0 111 58" fill="none" xmlns="http://www.w3.org/2000/svg">
<path d="M0.984 30.976C0.824 30.976 0.696 30.944 0.6 30.88C0.52 30.816 0.48 30.736 0.48 30.64C0.48 30.544 0.528 30.464 0.624 30.4C0.736 30.336 0.872 30.312 1.032 30.328C1.416 30.36 1.696 30.376 1.872 30.376C2.352 30.376 2.736 30.304 3.024 30.16C3.312 30 3.504 29.736 3.6 29.368C3.728 28.872 3.888 27.192 4.08 24.328C4.288 21.448 4.392 19.216 4.392 17.632C4.392 16.928 4.368 16.472 4.32 16.264C4.224 15.896 4.032 15.64 3.744 15.496C3.456 15.336 3.072 15.256 2.592 15.256C2.416 15.256 2.136 15.272 1.752 15.304H1.656C1.512 15.304 1.4 15.272 1.32 15.208C1.24 15.144 1.2 15.064 1.2 14.968C1.2 14.888 1.24 14.816 1.32 14.752C1.416 14.688 1.544 14.656 1.704 14.656H5.016C5.384 14.656 5.624 14.752 5.736 14.944C5.768 15.008 5.816 15.136 5.88 15.328L10.656 26.656C10.72 26.816 10.8 26.896 10.896 26.896C11.008 26.896 11.088 26.824 11.136 26.68L16.032 15.304C16.08 15.176 16.144 15.048 16.224 14.92C16.32 14.744 16.576 14.656 16.992 14.656H20.664C20.824 14.656 20.944 14.688 21.024 14.752C21.12 14.816 21.168 14.896 21.168 14.992C21.168 15.088 21.112 15.168 21 15.232C20.904 15.296 20.776 15.32 20.616 15.304C20.232 15.272 19.952 15.256 19.776 15.256C19.296 15.256 18.912 15.336 18.624 15.496C18.336 15.64 18.144 15.896 18.048 16.264C18 16.472 17.976 16.928 17.976 17.632C17.976 19.216 18.072 21.44 18.264 24.304C18.472 27.168 18.64 28.856 18.768 29.368C18.864 29.736 19.056 30 19.344 30.16C19.632 30.304 20.016 30.376 20.496 30.376C20.672 30.376 20.952 30.36 21.336 30.328H21.432C21.576 30.328 21.688 30.36 21.768 30.424C21.848 30.488 21.888 30.568 21.888 30.664C21.888 30.744 21.84 30.816 21.744 30.88C21.664 30.944 21.544 30.976 21.384 30.976H14.04C13.88 30.976 13.752 30.944 13.656 30.88C13.576 30.816 13.536 30.736 13.536 30.64C13.536 30.544 13.584 30.464 13.68 30.4C13.792 30.336 13.928 30.312 14.088 30.328C14.472 30.36 14.752 30.376 14.928 30.376C15.408 30.376 15.792 30.304 16.08 30.16C16.368 30 16.56 29.736 16.656 29.368C16.704 29.144 16.728 28.736 16.728 28.144C16.728 26.992 16.6 24.352 16.344 20.224L16.2 18.112C16.184 17.92 16.12 17.824 16.008 17.824C15.928 17.824 15.848 17.896 15.768 18.04L11.088 28.96C10.992 29.184 10.88 29.36 10.752 29.488C10.64 29.616 10.528 29.68 10.416 29.68C10.192 29.68 9.992 29.48 9.816 29.08L5.832 19.336C5.768 19.192 5.688 19.12 5.592 19.12C5.496 19.12 5.432 19.216 5.4 19.408C5.272 20.928 5.16 22.52 5.064 24.184C4.968 25.832 4.92 27.136 4.92 28.096C4.92 28.72 4.944 29.144 4.992 29.368C5.088 29.736 5.28 30 5.568 30.16C5.856 30.304 6.24 30.376 6.72 30.376C6.896 30.376 7.176 30.36 7.56 30.328H7.656C7.8 30.328 7.912 30.36 7.992 30.424C8.072 30.488 8.112 30.568 8.112 30.664C8.112 30.744 8.064 30.816 7.968 30.88C7.888 30.944 7.768 30.976 7.608 30.976H0.984ZM27.5674 21.88C27.7274 21.88 27.8474 21.912 27.9274 21.976C28.0234 22.04 28.0714 22.12 28.0714 22.216C28.0714 22.328 28.0234 22.416 27.9274 22.48C27.8314 22.544 27.6954 22.56 27.5194 22.528C27.4554 22.512 27.3754 22.504 27.2794 22.504C26.9594 22.504 26.7994 22.696 26.7994 23.08C26.7994 23.352 26.8874 23.736 27.0634 24.232C27.2394 24.712 27.5274 25.44 27.9274 26.416L28.6714 28.264C28.7354 28.424 28.8154 28.504 28.9114 28.504C29.0234 28.504 29.1034 28.432 29.1514 28.288C29.6634 27.024 30.0954 25.896 30.4474 24.904C30.7994 23.896 30.9674 23.288 30.9514 23.08C30.9514 22.856 30.8794 22.712 30.7354 22.648C30.6074 22.568 30.4074 22.544 30.1354 22.576H30.0154C29.8874 22.576 29.7834 22.544 29.7034 22.48C29.6234 22.416 29.5834 22.344 29.5834 22.264C29.5834 22.168 29.6234 22.088 29.7034 22.024C29.7994 21.96 29.9274 21.928 30.0874 21.928H32.8714C33.0314 21.928 33.1514 21.96 33.2314 22.024C33.3274 22.072 33.3754 22.144 33.3754 22.24C33.3754 22.336 33.3274 22.424 33.2314 22.504C33.1354 22.568 32.9994 22.592 32.8234 22.576C32.6794 22.56 32.5594 22.6 32.4634 22.696C32.3674 22.776 32.2474 22.92 32.1034 23.128C31.9754 23.32 31.6954 23.936 31.2634 24.976C30.8474 26.016 30.5514 26.76 30.3754 27.208C29.5114 29.384 28.8954 30.896 28.5274 31.744C28.2874 32.24 27.9754 32.744 27.5914 33.256C27.2074 33.768 26.8394 34.08 26.4874 34.192C26.2154 34.272 26.0074 34.312 25.8634 34.312C25.5914 34.312 25.3754 34.24 25.2154 34.096C25.0714 33.968 24.9994 33.816 24.9994 33.64C24.9994 33.448 25.0874 33.28 25.2634 33.136C25.4394 32.992 25.6874 32.92 26.0074 32.92C26.2954 32.92 26.5994 32.784 26.9194 32.512C27.2554 32.256 27.5274 31.92 27.7354 31.504L27.9994 30.952C28.0474 30.856 28.0714 30.76 28.0714 30.664C28.0714 30.616 28.0554 30.544 28.0234 30.448L26.8954 27.664C26.4954 26.656 26.1194 25.744 25.7674 24.928C25.4314 24.112 25.1594 23.536 24.9514 23.2C24.6474 22.736 24.3674 22.512 24.1114 22.528H24.0874C23.9274 22.528 23.7994 22.496 23.7034 22.432C23.6074 22.368 23.5594 22.288 23.5594 22.192C23.5594 22.096 23.5994 22.024 23.6794 21.976C23.7754 21.912 23.9034 21.88 24.0634 21.88H27.5674ZM43.959 30.976C43.799 30.976 43.671 30.944 43.575 30.88C43.495 30.816 43.455 30.736 43.455 30.64C43.455 30.544 43.503 30.464 43.599 30.4C43.711 30.336 43.847 30.312 44.007 30.328C44.391 30.36 44.671 30.376 44.847 30.376C45.327 30.376 45.711 30.304 45.999 30.16C46.287 30 46.479 29.736 46.575 29.368C46.719 28.792 46.791 26.608 46.791 22.816C46.791 19.024 46.719 16.84 46.575 16.264C46.479 15.896 46.287 15.64 45.999 15.496C45.711 15.336 45.327 15.256 44.847 15.256C44.671 15.256 44.391 15.272 44.007 15.304H43.911C43.767 15.304 43.655 15.272 43.575 15.208C43.495 15.144 43.455 15.064 43.455 14.968C43.455 14.888 43.495 14.816 43.575 14.752C43.671 14.688 43.799 14.656 43.959 14.656H51.303C51.463 14.656 51.583 14.688 51.663 14.752C51.759 14.816 51.807 14.896 51.807 14.992C51.807 15.088 51.751 15.168 51.639 15.232C51.543 15.296 51.415 15.32 51.255 15.304C50.871 15.272 50.591 15.256 50.415 15.256C49.935 15.256 49.551 15.336 49.263 15.496C48.975 15.64 48.783 15.896 48.687 16.264C48.543 16.856 48.471 18.72 48.471 21.856C48.471 22.272 48.671 22.48 49.071 22.48H56.031C56.431 22.48 56.631 22.272 56.631 21.856C56.631 18.72 56.559 16.856 56.415 16.264C56.319 15.896 56.127 15.64 55.839 15.496C55.551 15.336 55.167 15.256 54.687 15.256C54.511 15.256 54.231 15.272 53.847 15.304H53.751C53.607 15.304 53.495 15.272 53.415 15.208C53.335 15.144 53.295 15.064 53.295 14.968C53.295 14.888 53.335 14.816 53.415 14.752C53.511 14.688 53.639 14.656 53.799 14.656H61.143C61.303 14.656 61.423 14.688 61.503 14.752C61.599 14.816 61.647 14.896 61.647 14.992C61.647 15.088 61.591 15.168 61.479 15.232C61.383 15.296 61.255 15.32 61.095 15.304C60.711 15.272 60.431 15.256 60.255 15.256C59.775 15.256 59.391 15.336 59.103 15.496C58.815 15.64 58.623 15.896 58.527 16.264C58.383 16.84 58.311 19.024 58.311 22.816C58.311 26.608 58.383 28.792 58.527 29.368C58.623 29.736 58.815 30 59.103 30.16C59.391 30.304 59.775 30.376 60.255 30.376C60.431 30.376 60.711 30.36 61.095 30.328H61.191C61.335 30.328 61.447 30.36 61.527 30.424C61.607 30.488 61.647 30.568 61.647 30.664C61.647 30.744 61.599 30.816 61.503 30.88C61.423 30.944 61.303 30.976 61.143 30.976H53.799C53.639 30.976 53.511 30.944 53.415 30.88C53.335 30.816 53.295 30.736 53.295 30.64C53.295 30.544 53.343 30.464 53.439 30.4C53.551 30.336 53.687 30.312 53.847 30.328C54.231 30.36 54.511 30.376 54.687 30.376C55.167 30.376 55.551 30.304 55.839 30.16C56.127 30 56.319 29.736 56.415 29.368C56.559 28.792 56.631 26.96 56.631 23.872C56.631 23.456 56.431 23.248 56.031 23.248H49.071C48.671 23.248 48.471 23.456 48.471 23.872C48.471 26.96 48.543 28.792 48.687 29.368C48.783 29.736 48.975 30 49.263 30.16C49.551 30.304 49.935 30.376 50.415 30.376C50.591 30.376 50.871 30.36 51.255 30.328H51.351C51.495 30.328 51.607 30.36 51.687 30.424C51.767 30.488 51.807 30.568 51.807 30.664C51.807 30.744 51.759 30.816 51.663 30.88C51.583 30.944 51.463 30.976 51.303 30.976H43.959ZM67.1921 31C66.4241 31 65.6881 30.832 64.9841 30.496C64.2801 30.16 63.7041 29.648 63.2561 28.96C62.8241 28.272 62.6081 27.44 62.6081 26.464C62.6081 25.472 62.8321 24.632 63.2801 23.944C63.7281 23.256 64.2961 22.744 64.9841 22.408C65.6881 22.056 66.4241 21.88 67.1921 21.88C67.9601 21.88 68.6961 22.056 69.4001 22.408C70.1041 22.744 70.6801 23.256 71.1281 23.944C71.5761 24.632 71.8001 25.472 71.8001 26.464C71.8001 27.44 71.5761 28.272 71.1281 28.96C70.6801 29.648 70.1041 30.16 69.4001 30.496C68.6961 30.832 67.9601 31 67.1921 31ZM67.1921 30.376C68.0241 30.376 68.6881 30.016 69.1841 29.296C69.6801 28.576 69.9281 27.624 69.9281 26.44C69.9281 25.272 69.6721 24.328 69.1601 23.608C68.6641 22.872 68.0081 22.504 67.1921 22.504C66.3761 22.504 65.7121 22.872 65.2001 23.608C64.7041 24.328 64.4561 25.272 64.4561 26.44C64.4561 27.608 64.7041 28.56 65.2001 29.296C65.7121 30.016 66.3761 30.376 67.1921 30.376ZM73.9566 23.392C73.9566 23.328 73.9966 23.264 74.0766 23.2C74.1726 23.12 74.3006 23.064 74.4606 23.032C74.9566 22.904 75.4686 22.64 75.9966 22.24C76.0606 22.208 76.1726 22.144 76.3326 22.048C76.4926 21.936 76.6206 21.88 76.7166 21.88C76.9406 21.88 77.0526 21.976 77.0526 22.168C77.0526 22.344 77.0446 22.504 77.0286 22.648C77.0286 22.76 77.0526 22.832 77.1006 22.864C77.1646 22.88 77.2366 22.856 77.3166 22.792C77.9726 22.184 78.6686 21.88 79.4046 21.88C79.9166 21.88 80.4126 22.032 80.8926 22.336C81.3726 22.624 81.7726 23.048 82.0926 23.608C82.1886 23.768 82.2846 23.776 82.3806 23.632C82.6366 23.216 83.0366 22.824 83.5806 22.456C84.1246 22.072 84.6766 21.88 85.2366 21.88C85.7646 21.88 86.2766 22.04 86.7726 22.36C87.2846 22.68 87.7006 23.176 88.0206 23.848C88.3566 24.504 88.5246 25.32 88.5246 26.296L88.5006 28.456C88.5006 29.096 88.5566 29.576 88.6686 29.896C88.7806 30.2 89.0046 30.352 89.3406 30.352C89.4686 30.352 89.5646 30.344 89.6286 30.328L89.7726 30.304C89.9006 30.304 89.9966 30.336 90.0606 30.4C90.1406 30.464 90.1806 30.544 90.1806 30.64C90.1806 30.736 90.1326 30.816 90.0366 30.88C89.9566 30.944 89.8366 30.976 89.6766 30.976H85.6926C85.5326 30.976 85.4046 30.944 85.3086 30.88C85.2286 30.816 85.1886 30.736 85.1886 30.64C85.1886 30.528 85.2366 30.44 85.3326 30.376C85.4286 30.312 85.5646 30.296 85.7406 30.328C86.2046 30.408 86.5006 30.232 86.6286 29.8C86.7726 29.352 86.8446 28.664 86.8446 27.736V26.44C86.8446 25.768 86.7326 25.168 86.5086 24.64C86.3006 24.112 86.0206 23.704 85.6686 23.416C85.3326 23.128 84.9886 22.984 84.6366 22.984C83.9966 22.984 83.5086 23.328 83.1726 24.016C82.8526 24.688 82.6926 25.448 82.6926 26.296L82.6686 28.456C82.6686 29.096 82.7246 29.576 82.8366 29.896C82.9486 30.2 83.1726 30.352 83.5086 30.352C83.6366 30.352 83.7326 30.344 83.7966 30.328L83.9406 30.304C84.0686 30.304 84.1646 30.336 84.2286 30.4C84.3086 30.464 84.3486 30.544 84.3486 30.64C84.3486 30.736 84.3006 30.816 84.2046 30.88C84.1246 30.944 84.0046 30.976 83.8446 30.976H79.8606C79.7006 30.976 79.5726 30.944 79.4766 30.88C79.3966 30.816 79.3566 30.736 79.3566 30.64C79.3566 30.528 79.4046 30.44 79.5006 30.376C79.5966 30.312 79.7326 30.296 79.9086 30.328C80.3726 30.408 80.6686 30.232 80.7966 29.8C80.9406 29.352 81.0126 28.664 81.0126 27.736V26.44C81.0126 25.768 80.9006 25.168 80.6766 24.64C80.4686 24.112 80.1886 23.704 79.8366 23.416C79.5006 23.128 79.1566 22.984 78.8046 22.984C78.4526 22.984 78.1246 23.128 77.8206 23.416C77.5326 23.688 77.3006 24.024 77.1246 24.424C76.9646 24.824 76.8846 25.176 76.8846 25.48C76.8686 25.88 76.8606 26.424 76.8606 27.112C76.8606 28.104 76.9006 28.92 76.9806 29.56C77.0286 29.832 77.1166 30.032 77.2446 30.16C77.3726 30.288 77.5566 30.352 77.7966 30.352C77.9086 30.352 78.0046 30.344 78.0846 30.328L78.2286 30.304C78.3566 30.304 78.4526 30.336 78.5166 30.4C78.5966 30.464 78.6366 30.544 78.6366 30.64C78.6366 30.736 78.5886 30.816 78.4926 30.88C78.4126 30.944 78.2926 30.976 78.1326 30.976H74.2206C74.0606 30.976 73.9326 30.944 73.8366 30.88C73.7566 30.816 73.7166 30.736 73.7166 30.64C73.7166 30.528 73.7646 30.44 73.8606 30.376C73.9566 30.312 74.0926 30.296 74.2686 30.328C74.7486 30.424 75.0686 30.168 75.2286 29.56C75.3246 29.208 75.3726 28.664 75.3726 27.928C75.3726 27.4 75.3646 26.992 75.3486 26.704L75.3246 25.096C75.3246 24.664 75.2526 24.32 75.1086 24.064C74.9806 23.792 74.7646 23.656 74.4606 23.656C74.3006 23.656 74.1726 23.632 74.0766 23.584C73.9966 23.536 73.9566 23.472 73.9566 23.392ZM92.1019 26.464C92.1019 25.488 92.3179 24.656 92.7499 23.968C93.1819 23.264 93.7339 22.744 94.4059 22.408C95.0779 22.056 95.7579 21.88 96.4459 21.88C97.4539 21.88 98.3019 22.144 98.9899 22.672C99.6779 23.184 100.022 23.888 100.022 24.784C100.022 25.12 99.9499 25.384 99.8059 25.576C99.6779 25.768 99.5179 25.864 99.3259 25.864L94.2139 25.84C93.9739 25.84 93.8539 25.952 93.8539 26.176C93.8539 27.264 94.1179 28.2 94.6459 28.984C95.1739 29.752 95.8939 30.136 96.8059 30.136C97.4779 30.136 98.0619 29.984 98.5579 29.68C99.0539 29.376 99.4139 29.024 99.6379 28.624C99.7499 28.432 99.8779 28.336 100.022 28.336C100.182 28.336 100.262 28.44 100.262 28.648C100.262 28.808 100.214 28.944 100.118 29.056C99.6699 29.712 99.1739 30.2 98.6299 30.52C98.0859 30.84 97.3979 31 96.5659 31C95.7979 31 95.0699 30.832 94.3819 30.496C93.7099 30.16 93.1579 29.648 92.7259 28.96C92.3099 28.272 92.1019 27.44 92.1019 26.464ZM94.0459 24.856C94.0299 24.888 94.0219 24.928 94.0219 24.976C94.0219 25.168 94.1339 25.264 94.3579 25.264L97.6459 25.24C97.9339 25.24 98.1179 25.176 98.1979 25.048C98.2779 24.904 98.3179 24.728 98.3179 24.52C98.3179 23.928 98.1419 23.448 97.7899 23.08C97.4539 22.696 97.0059 22.504 96.4459 22.504C95.9019 22.504 95.4139 22.704 94.9819 23.104C94.5659 23.504 94.2539 24.088 94.0459 24.856Z" fill="#3A4736"/>
<path d="M30 36.6167C32.7915 35.6676 35.5343 34.4787 37.9483 32.7682C38.7237 32.2188 39.4352 31.5227 40.2193 31" stroke="#3A4736" stroke-width="0.7" stroke-linecap="round"/>
<path d="M30.1172 44.0234C30.1172 43.7266 30.1797 43.4141 30.3047 43.0859C30.4453 42.7578 30.6562 42.5234 30.9375 42.3828C30.875 42.8672 30.8984 43.3438 31.0078 43.8125C31.1328 44.2812 31.3281 44.6953 31.5938 45.0547C31.8594 45.4141 32.2031 45.7031 32.625 45.9219C33.0469 46.125 33.5312 46.2266 34.0781 46.2266C34.75 46.2266 35.3281 46.0625 35.8125 45.7344C36.3125 45.3906 36.7266 44.9688 37.0547 44.4688C37.3828 43.9531 37.625 43.3906 37.7812 42.7812C37.9375 42.1562 38.0156 41.5547 38.0156 40.9766V40.4844L36.6328 32.8672C36.6172 32.8047 36.6016 32.7109 36.5859 32.5859C36.5859 32.4609 36.6094 32.3438 36.6562 32.2344C36.7188 32.1094 36.8047 32.0234 36.9141 31.9766C37.0391 31.9297 37.2266 31.9531 37.4766 32.0469C37.4766 32.0781 37.5078 32.2344 37.5703 32.5156C37.6484 32.7812 37.7266 33.1328 37.8047 33.5703C37.8984 33.9922 37.9922 34.4688 38.0859 35C38.1953 35.5312 38.2969 36.0703 38.3906 36.6172C38.4844 37.1484 38.5703 37.6641 38.6484 38.1641C38.7266 38.6484 38.7891 39.0625 38.8359 39.4062C38.9141 40.2344 38.8906 41.0938 38.7656 41.9844C38.6406 42.875 38.3906 43.6953 38.0156 44.4453C37.6406 45.1953 37.1094 45.8125 36.4219 46.2969C35.75 46.7812 34.9062 47.0234 33.8906 47.0234C33.5156 47.0234 33.1016 46.9453 32.6484 46.7891C32.2109 46.6328 31.8047 46.4219 31.4297 46.1562C31.0703 45.8906 30.7578 45.5781 30.4922 45.2188C30.2422 44.8438 30.1172 44.4453 30.1172 44.0234ZM42.3694 47C42.0725 47.1094 41.7991 47.0859 41.5491 46.9297C41.3147 46.7578 41.1038 46.5078 40.9163 46.1797C40.7288 45.8359 40.5647 45.4531 40.4241 45.0312C40.2834 44.5938 40.1741 44.1641 40.0959 43.7422C40.0178 43.3203 39.9631 42.9375 39.9319 42.5938C39.9163 42.25 39.9241 42 39.9553 41.8438C39.9553 41.6875 39.9631 41.4453 39.9788 41.1172C39.9944 40.7891 40.01 40.4219 40.0256 40.0156C40.0413 39.5938 40.0569 39.1641 40.0725 38.7266C40.1038 38.2734 40.1272 37.8359 40.1428 37.4141C40.1584 36.9922 40.1741 36.625 40.1897 36.3125C40.2053 35.9844 40.2131 35.7422 40.2131 35.5859C40.2444 35.5859 40.2678 35.5781 40.2834 35.5625L40.3538 35.5391C40.51 35.5391 40.6428 35.6094 40.7522 35.75C40.8616 35.8906 40.9553 36.0234 41.0334 36.1484C41.0334 36.3672 41.0256 36.7578 41.01 37.3203C41.01 37.8828 41.01 38.4844 41.01 39.125C41.01 39.7656 41.01 40.375 41.01 40.9531C41.0256 41.5156 41.0334 41.9062 41.0334 42.125C41.0491 42.3125 41.0803 42.6094 41.1272 43.0156C41.1897 43.4062 41.2678 43.8125 41.3616 44.2344C41.4553 44.6406 41.5803 45.0156 41.7366 45.3594C41.9084 45.6875 42.1194 45.875 42.3694 45.9219C43.0256 45.9219 43.5725 45.6797 44.01 45.1953C44.4631 44.7109 44.8381 44.1016 45.135 43.3672C45.4319 42.6328 45.6663 41.8438 45.8381 41C46.0256 40.1406 46.1819 39.3359 46.3069 38.5859C46.4319 37.8359 46.5413 37.2109 46.635 36.7109C46.7444 36.1953 46.8694 35.9141 47.01 35.8672L47.5725 35.9844L48.885 45.0547C48.9788 45.1016 49.0569 45.1719 49.1194 45.2656C49.1819 45.3594 49.2366 45.4609 49.2834 45.5703C49.3459 45.6797 49.385 45.7891 49.4006 45.8984C49.4319 46.0078 49.4475 46.0859 49.4475 46.1328C49.4163 46.2422 49.3225 46.3594 49.1663 46.4844C49.01 46.6094 48.8772 46.6797 48.7678 46.6953H48.6741C48.6584 46.6953 48.6428 46.6953 48.6272 46.6953C48.5959 46.6484 48.5491 46.5781 48.4866 46.4844C48.4397 46.375 48.385 46.2656 48.3225 46.1562C48.26 46.0469 48.2053 45.9375 48.1584 45.8281C48.1272 45.7031 48.1038 45.625 48.0881 45.5938C48.0413 45.4375 47.9866 45.1953 47.9241 44.8672C47.8772 44.5391 47.8303 44.1797 47.7834 43.7891C47.7366 43.3828 47.6897 42.9609 47.6428 42.5234C47.6116 42.0703 47.5725 41.6406 47.5256 41.2344C47.4944 40.8125 47.4553 40.4453 47.4084 40.1328C47.3772 39.8047 47.3381 39.5625 47.2913 39.4062C47.2131 39.7656 47.1038 40.1953 46.9631 40.6953C46.8225 41.1797 46.6428 41.6953 46.4241 42.2422C46.2209 42.7891 45.9866 43.3281 45.7209 43.8594C45.4553 44.375 45.1506 44.8594 44.8069 45.3125C44.4788 45.75 44.1116 46.125 43.7053 46.4375C43.2991 46.7344 42.8538 46.9219 42.3694 47ZM50.1919 38.2812C50.1919 38.1875 50.1919 38.0781 50.1919 37.9531C50.2075 37.8281 50.2231 37.7109 50.2388 37.6016C50.27 37.4766 50.3247 37.375 50.4028 37.2969C50.4809 37.2188 50.5903 37.1797 50.7309 37.1797C50.7622 37.1797 50.8091 37.1875 50.8716 37.2031C50.9497 37.2031 51.0044 37.2031 51.0356 37.2031C51.0513 38.3125 51.1059 39.4531 51.1997 40.625C51.3091 41.7969 51.52 42.9297 51.8325 44.0234C51.8481 43.8516 51.8872 43.5625 51.9497 43.1562C52.0278 42.7344 52.1059 42.2969 52.1841 41.8438C52.2778 41.375 52.3638 40.9375 52.4419 40.5312C52.5356 40.125 52.5981 39.8359 52.6294 39.6641C52.7388 39.3359 52.8872 39 53.0747 38.6562C53.2622 38.2969 53.4888 37.9688 53.7544 37.6719C54.0356 37.375 54.3403 37.1328 54.6684 36.9453C55.0122 36.7578 55.3716 36.6641 55.7466 36.6641C56.3716 36.6641 56.9263 36.8047 57.4106 37.0859C57.895 37.3672 58.3247 37.7422 58.6997 38.2109C59.0903 38.6641 59.4184 39.1875 59.6841 39.7812C59.9497 40.3594 60.1684 40.9531 60.3403 41.5625C60.5122 42.1719 60.6372 42.7578 60.7153 43.3203C60.7934 43.8828 60.8325 44.3828 60.8325 44.8203V45.1016C60.8325 45.1953 60.8169 45.2891 60.7856 45.3828C60.77 45.4609 60.7309 45.5312 60.6684 45.5938C60.6216 45.6406 60.5278 45.6641 60.3872 45.6641C60.2309 45.6641 60.0981 45.5703 59.9888 45.3828C59.9731 44.9922 59.9263 44.5391 59.8481 44.0234C59.7856 43.5078 59.6919 42.9688 59.5669 42.4062C59.4575 41.8281 59.3013 41.2656 59.0981 40.7188C58.9106 40.1562 58.6684 39.6562 58.3716 39.2188C58.0903 38.7812 57.7544 38.4297 57.3638 38.1641C56.9731 37.8828 56.5044 37.7422 55.9575 37.7422C55.52 37.7422 55.1372 37.8203 54.8091 37.9766C54.4966 38.1328 54.2309 38.3516 54.0122 38.6328C53.7934 38.8984 53.6138 39.2188 53.4731 39.5938C53.3481 39.9531 53.2544 40.3438 53.1919 40.7656C53.145 40.9844 53.0825 41.375 53.0044 41.9375C52.9263 42.5 52.8403 43.1016 52.7466 43.7422C52.6528 44.3828 52.5669 44.9844 52.4888 45.5469C52.4263 46.1094 52.3872 46.5 52.3716 46.7188C52.3247 46.875 52.2388 46.9688 52.1138 47C52.0044 47.0312 51.8872 47.0469 51.7622 47.0469C51.7466 47.0469 51.7075 47.0391 51.645 47.0234C51.5825 47.0234 51.5513 47.0156 51.5513 47L50.2153 38.8672C50.2153 38.8359 50.2075 38.75 50.1919 38.6094C50.1919 38.4688 50.1919 38.3594 50.1919 38.2812ZM64.2722 55.9766C64.2722 55.8359 64.28 55.6875 64.2956 55.5312C64.3269 55.3906 64.3737 55.2969 64.4362 55.25C64.5144 55.2188 64.6003 55.2656 64.6941 55.3906C64.8034 55.5156 64.9362 55.7734 65.0925 56.1641C65.5925 56.1641 66.0456 56.0547 66.4519 55.8359C66.8737 55.6328 67.2487 55.3516 67.5769 54.9922C67.905 54.6328 68.1784 54.2188 68.3972 53.75C68.6316 53.2812 68.8269 52.7969 68.9831 52.2969C69.1394 51.7969 69.2487 51.2969 69.3112 50.7969C69.3894 50.3125 69.4284 49.8594 69.4284 49.4375C69.4284 47.8125 69.2722 46.1562 68.9597 44.4688C68.6472 42.7656 68.1706 41.1641 67.53 39.6641C67.2175 40.3516 66.9441 41.0625 66.7097 41.7969C66.4753 42.5312 66.1941 43.2422 65.8659 43.9297C65.5378 44.6016 65.1316 45.2109 64.6472 45.7578C64.1784 46.2891 63.5456 46.7109 62.7487 47.0234C62.4675 47.0234 62.2409 46.9531 62.0691 46.8125C61.9128 46.6562 61.7878 46.4688 61.6941 46.25C61.6159 46.0312 61.5691 45.8047 61.5534 45.5703C61.5378 45.3203 61.53 45.0859 61.53 44.8672C61.53 44.5234 61.5691 44.0703 61.6472 43.5078C61.7409 42.9297 61.8816 42.3125 62.0691 41.6562C62.2566 41 62.4753 40.3438 62.7253 39.6875C62.9909 39.0312 63.2956 38.4375 63.6394 37.9062C63.9831 37.375 64.3659 36.9453 64.7878 36.6172C65.2097 36.2891 65.6706 36.125 66.1706 36.125C66.3269 36.125 66.4831 36.1641 66.6394 36.2422C66.7956 36.3203 66.9519 36.4062 67.1081 36.5L67.5769 36.7812C67.7331 36.8594 67.8972 36.9219 68.0691 36.9688C68.1159 37.1719 68.1941 37.5078 68.3034 37.9766C68.4128 38.4453 68.53 38.9766 68.655 39.5703C68.78 40.1484 68.905 40.7656 69.03 41.4219C69.1706 42.0781 69.3034 42.7031 69.4284 43.2969C69.5534 43.875 69.6628 44.4062 69.7566 44.8906C69.8659 45.3594 69.9362 45.7031 69.9675 45.9219C69.9831 46.0312 70.0066 46.2188 70.0378 46.4844C70.0847 46.7344 70.1159 47 70.1316 47.2812C70.1628 47.5781 70.1862 47.8516 70.2019 48.1016C70.2331 48.3516 70.2487 48.5234 70.2487 48.6172C70.2487 49.0703 70.2175 49.6016 70.155 50.2109C70.0925 50.8203 69.9831 51.4453 69.8269 52.0859C69.6706 52.7266 69.4675 53.3594 69.2175 53.9844C68.9675 54.6094 68.655 55.1719 68.28 55.6719C67.905 56.1719 67.4597 56.5703 66.9441 56.8672C66.4441 57.1797 65.8659 57.3359 65.2097 57.3359C64.8347 57.3359 64.5847 57.1953 64.4597 56.9141C64.3347 56.6328 64.2722 56.3203 64.2722 55.9766ZM62.3269 44.6562V45.0547C62.3269 45.1953 62.3425 45.3359 62.3737 45.4766C62.405 45.6016 62.4597 45.7188 62.5378 45.8281C62.6159 45.9219 62.7409 45.9688 62.9128 45.9688C63.1941 45.9531 63.4753 45.7969 63.7566 45.5C64.0534 45.2031 64.3191 44.8594 64.5534 44.4688C64.8034 44.0781 65.0222 43.6875 65.2097 43.2969C65.4128 42.8906 65.5534 42.5859 65.6316 42.3828C65.6941 42.2422 65.7878 41.9766 65.9128 41.5859C66.0534 41.1953 66.1941 40.7891 66.3347 40.3672C66.4753 39.9297 66.6081 39.5156 66.7331 39.125C66.8581 38.7188 66.9441 38.4375 66.9909 38.2812V38.1641C66.9909 38.0391 66.9362 37.9297 66.8269 37.8359C66.7331 37.7422 66.6159 37.6719 66.4753 37.625C66.3503 37.5781 66.2175 37.5391 66.0769 37.5078C65.9362 37.4766 65.8191 37.4609 65.7253 37.4609C65.3816 37.4609 65.0534 37.625 64.7409 37.9531C64.4441 38.2812 64.1706 38.6953 63.9206 39.1953C63.6706 39.6953 63.4441 40.2422 63.2409 40.8359C63.0534 41.4141 62.8894 41.9766 62.7487 42.5234C62.6081 43.0547 62.4987 43.5234 62.4206 43.9297C62.3581 44.3203 62.3269 44.5625 62.3269 44.6562ZM72.0009 46.4609C71.9853 46.0547 71.9463 45.4297 71.8838 44.5859C71.8213 43.7266 71.7509 42.7656 71.6728 41.7031C71.6103 40.625 71.54 39.5 71.4619 38.3281C71.3994 37.1406 71.3291 36.0078 71.2509 34.9297C71.1884 33.8516 71.1181 32.8906 71.04 32.0469C70.9775 31.1875 70.9384 30.5547 70.9228 30.1484V29.8438C70.9228 29.4844 71.1025 29.3047 71.4619 29.3047C71.4931 29.3047 71.54 29.3125 71.6025 29.3281C71.665 29.3281 71.7119 29.3281 71.7431 29.3281C71.8369 30.6875 71.9228 31.9922 72.0009 33.2422C72.0791 34.4922 72.1572 35.7344 72.2353 36.9688C72.3134 38.2031 72.3994 39.4453 72.4931 40.6953C72.5869 41.9297 72.6963 43.2188 72.8213 44.5625C72.9931 44.7344 73.0869 44.9375 73.1025 45.1719C73.1181 45.3906 73.1259 45.6172 73.1259 45.8516C73.1259 45.9609 73.1181 46.0859 73.1025 46.2266C73.1025 46.3516 73.0791 46.4766 73.0322 46.6016C72.9853 46.7109 72.9072 46.8125 72.7978 46.9062C72.7041 46.9844 72.5791 47.0234 72.4228 47.0234C72.2822 47.0234 72.1806 46.9688 72.1181 46.8594C72.0713 46.75 72.0322 46.6172 72.0009 46.4609ZM74.5969 41.5625C74.2375 41.7812 73.8703 41.9531 73.4953 42.0781C73.1203 42.1875 72.8156 42.1094 72.5812 41.8438C72.5812 41.5469 72.6828 41.3516 72.8859 41.2578C73.0891 41.1484 73.3156 41.0625 73.5656 41C73.8312 40.9375 74.0891 40.8594 74.3391 40.7656C74.6047 40.6719 74.7844 40.4844 74.8781 40.2031C74.9719 39.8906 75.0578 39.5156 75.1359 39.0781C75.2141 38.6406 75.3234 38.2188 75.4641 37.8125C75.6047 37.4062 75.8078 37.0703 76.0734 36.8047C76.3391 36.5234 76.7062 36.3828 77.175 36.3828C77.4406 36.3828 77.7687 36.4766 78.1594 36.6641C78.5656 36.8359 78.9484 37.0469 79.3078 37.2969C79.6672 37.5469 79.9719 37.8125 80.2219 38.0938C80.4719 38.375 80.5969 38.6328 80.5969 38.8672C80.5969 38.9766 80.5812 39.0781 80.55 39.1719C80.5344 39.2656 80.4562 39.3438 80.3156 39.4062L75.6984 41L75.675 41.1172C75.675 41.1797 75.6672 41.2656 75.6516 41.375V41.6562C75.6516 41.7656 75.6516 41.8438 75.6516 41.8906C75.6516 42.2031 75.675 42.5938 75.7219 43.0625C75.7687 43.5156 75.8625 43.9609 76.0031 44.3984C76.1594 44.8203 76.3703 45.1875 76.6359 45.5C76.9016 45.8125 77.2609 45.9688 77.7141 45.9688C77.8859 45.9688 78.0266 45.9375 78.1359 45.875C78.2609 45.7969 78.3781 45.7188 78.4875 45.6406C78.6125 45.5469 78.7297 45.4688 78.8391 45.4062C78.9641 45.3281 79.1047 45.2891 79.2609 45.2891C79.2609 45.5234 79.2062 45.75 79.0969 45.9688C79.0031 46.1719 78.8703 46.3516 78.6984 46.5078C78.5266 46.6641 78.3312 46.7891 78.1125 46.8828C77.8937 46.9766 77.675 47.0234 77.4562 47.0234C76.8625 47.0234 76.3859 46.8203 76.0266 46.4141C75.6672 45.9922 75.3859 45.4922 75.1828 44.9141C74.9953 44.3203 74.8625 43.7188 74.7844 43.1094C74.7062 42.4844 74.6437 41.9688 74.5969 41.5625ZM77.4562 37.4141C77.175 37.4141 76.9328 37.4922 76.7297 37.6484C76.5422 37.8047 76.3859 38 76.2609 38.2344C76.1359 38.4688 76.0422 38.7266 75.9797 39.0078C75.9328 39.2734 75.9094 39.5156 75.9094 39.7344C76.1594 39.7344 76.4328 39.7188 76.7297 39.6875C77.0422 39.6562 77.3469 39.5938 77.6437 39.5C77.9406 39.4062 78.2062 39.2891 78.4406 39.1484C78.6906 38.9922 78.8625 38.8047 78.9562 38.5859C78.7219 38.2109 78.5031 37.9219 78.3 37.7188C78.0969 37.5156 77.8156 37.4141 77.4562 37.4141Z" fill="#3A4736"/>
</svg>
