<svg width="24" height="24" viewBox="0 0 24 24" fill="none" xmlns="http://www.w3.org/2000/svg">
<path d="M12 24C11.8483 24.0017 11.6989 23.9586 11.5667 23.875C11.0889 23.575 0 16.4875 0 7.49998C0 5.92587 0.440249 4.39165 1.25839 3.11467C2.07652 1.83768 3.23107 0.882654 4.55848 0.384875C5.88589 -0.112904 7.31888 -0.128202 8.65445 0.341148C9.99002 0.810498 11.1605 1.7407 12 2.99999C12.8395 1.7407 14.01 0.810498 15.3455 0.341148C16.6811 -0.128202 18.1141 -0.112904 19.4415 0.384875C20.7689 0.882654 21.9235 1.83768 22.7416 3.11467C23.5597 4.39165 24 5.92587 24 7.49998C24 11.325 22.0333 15.25 18.1556 19.175C16.3947 20.9558 14.4774 22.5306 12.4333 23.875C12.3011 23.9586 12.1517 24.0017 12 24ZM6.66667 2C5.37005 2 4.12654 2.57946 3.2097 3.61091C2.29286 4.64235 1.77778 6.0413 1.77778 7.49998C1.77778 14.4 10 20.4625 12 21.8375C14 20.4625 22.2222 14.4 22.2222 7.49998C22.2233 6.22852 21.8327 4.99592 21.1169 4.01191C20.4012 3.0279 19.4045 2.35326 18.2965 2.10277C17.1884 1.85229 16.0375 2.04142 15.0394 2.63801C14.0414 3.23459 13.2579 4.20177 12.8222 5.37499C12.7553 5.5584 12.6413 5.71527 12.4949 5.82567C12.3485 5.93607 12.1763 5.99502 12 5.99502C11.8237 5.99502 11.6515 5.93607 11.5051 5.82567C11.3587 5.71527 11.2447 5.5584 11.1778 5.37499C10.8078 4.37282 10.1815 3.51695 9.37826 2.91603C8.57506 2.31512 7.63125 1.99628 6.66667 2Z" fill="black"/>
</svg>
