<svg width="43" height="35" viewBox="0 0 43 35" fill="none" xmlns="http://www.w3.org/2000/svg">
<path d="M41.1729 1.51198C40.8482 1.26187 40.4533 1.09542 40.0305 1.03051C39.6078 0.965603 39.1732 1.0047 38.7735 1.14359L2.48759 13.8616C2.01603 14.0289 1.61751 14.3274 1.35115 14.7127C1.0848 15.0981 0.964796 15.5497 1.00895 16.0007C1.05311 16.4516 1.25907 16.8779 1.59628 17.2162C1.93349 17.5545 2.38398 17.7868 2.88093 17.8787L12.7342 19.6505V30.4915C12.7282 30.9091 12.864 31.3186 13.1237 31.6661C13.3835 32.0136 13.755 32.2829 14.1895 32.4387C14.4837 32.5431 14.7973 32.5966 15.1139 32.5965C15.4211 32.5968 15.7253 32.5427 16.0089 32.4373C16.2925 32.3319 16.5498 32.1773 16.7659 31.9826L22.3907 26.9655L30.6903 33.4736C31.1156 33.8171 31.6703 34.005 32.244 33.9999C32.4912 33.9993 32.7369 33.9638 32.9717 33.8946C33.3583 33.7815 33.706 33.5818 33.9815 33.3146C34.2569 33.0474 34.451 32.7216 34.545 32.3685L41.9399 3.5644C42.0367 3.19248 42.0163 2.80392 41.8809 2.4417C41.7455 2.07947 41.5005 1.75771 41.1729 1.51198ZM2.56625 15.8789C2.54286 15.7269 2.579 15.5723 2.66858 15.4413C2.75816 15.3102 2.89568 15.2108 3.05793 15.1597L36.3347 3.51177L13.3439 18.3173L3.1956 16.5105C3.02658 16.4832 2.87268 16.4062 2.75857 16.2917C2.64446 16.1772 2.57674 16.0318 2.56625 15.8789ZM15.6449 30.9827C15.538 31.0817 15.4002 31.1498 15.2494 31.1779C15.0985 31.2061 14.9416 31.1931 14.7992 31.1405C14.6542 31.0882 14.53 30.9985 14.4424 30.8829C14.3548 30.7673 14.3079 30.631 14.3075 30.4915V20.6153L21.2107 26.0358L15.6449 30.9827ZM40.4058 3.26618L33.011 32.0527C32.9815 32.1721 32.9167 32.2823 32.8233 32.3717C32.7299 32.4612 32.6114 32.5267 32.48 32.5615C32.3531 32.6021 32.216 32.6105 32.084 32.5858C31.952 32.561 31.8304 32.504 31.7326 32.4211L14.7796 19.1242L40.2878 2.68729C40.3521 2.77091 40.3959 2.86572 40.4162 2.96548C40.4366 3.06525 40.433 3.16772 40.4058 3.26618Z" fill="#EEE4E2" stroke="#EEE4E2"/>
</svg>
