<svg width="16" height="16" viewBox="0 0 16 16" fill="none" xmlns="http://www.w3.org/2000/svg">
<path d="M15.4533 12.8088L12.7505 10.1022L10.6716 9.24203C11.3638 8.25623 11.7346 7.08018 11.7333 5.87506C11.7333 2.63553 9.10155 0 5.86665 0C2.63176 0 0 2.63553 0 5.87506C0 9.11458 2.63176 11.7501 5.86665 11.7501C7.08053 11.7515 8.26461 11.3737 9.25395 10.6693L10.1106 12.7456L12.8133 15.4524C12.9866 15.626 13.1924 15.7637 13.4189 15.8577C13.6454 15.9516 13.8881 16 14.1332 16C14.3784 16 14.6211 15.9517 14.8476 15.8577C15.0741 15.7638 15.2799 15.6261 15.4532 15.4525C15.6266 15.2789 15.7641 15.0729 15.8579 14.8461C15.9517 14.6193 16 14.3762 16 14.1307C16 13.8852 15.9517 13.6421 15.8579 13.4153C15.7641 13.1885 15.6266 12.9824 15.4533 12.8088ZM1.06666 5.87506C1.06666 3.2246 3.21999 1.06819 5.86665 1.06819C8.51331 1.06819 10.6666 3.2246 10.6666 5.87506C10.6666 8.52551 8.51331 10.6819 5.86665 10.6819C3.21999 10.6819 1.06666 8.52551 1.06666 5.87506ZM14.699 14.6971C14.5489 14.8471 14.3454 14.9314 14.1333 14.9314C13.9212 14.9314 13.7178 14.8471 13.5676 14.6971L11.0152 12.1411L10.2187 10.2105L12.1466 11.0081L14.6991 13.5641C14.8489 13.7145 14.933 13.9182 14.933 14.1306C14.9329 14.343 14.8488 14.5468 14.699 14.6971Z" fill="#525D4D"/>
</svg>
