<svg width="24" height="22" viewBox="0 0 24 22" fill="none" xmlns="http://www.w3.org/2000/svg">
<path d="M12 22C11.8483 22.0015 11.6989 21.962 11.5667 21.8854C11.0889 21.6104 0 15.1135 0 6.87499C0 5.43205 0.440249 4.02568 1.25839 2.85511C2.07652 1.68454 3.23107 0.809099 4.55848 0.352802C5.88589 -0.103496 7.31888 -0.117519 8.65445 0.312719C9.99002 0.742956 11.1605 1.59564 12 2.74999C12.8395 1.59564 14.01 0.742956 15.3455 0.312719C16.6811 -0.117519 18.1141 -0.103496 19.4415 0.352802C20.7689 0.809099 21.9235 1.68454 22.7416 2.85511C23.5597 4.02568 24 5.43205 24 6.87499C24 10.3812 22.0333 13.9791 18.1556 17.577C16.3947 19.2095 14.4774 20.653 12.4333 21.8854C12.3011 21.962 12.1517 22.0015 12 22ZM6.66667 1.83333C5.37005 1.83333 4.12654 2.3645 3.2097 3.31C2.29286 4.25549 1.77778 5.53786 1.77778 6.87499C1.77778 13.2 10 18.7573 12 20.0177C14 18.7573 22.2222 13.2 22.2222 6.87499C22.2233 5.70948 21.8327 4.5796 21.1169 3.67759C20.4012 2.77558 19.4045 2.15716 18.2965 1.92754C17.1884 1.69793 16.0375 1.87131 15.0394 2.41817C14.0414 2.96504 13.2579 3.85162 12.8222 4.92707C12.7553 5.0952 12.6413 5.239 12.4949 5.3402C12.3485 5.4414 12.1763 5.49544 12 5.49544C11.8237 5.49544 11.6515 5.4414 11.5051 5.3402C11.3587 5.239 11.2447 5.0952 11.1778 4.92707C10.8078 4.00842 10.1815 3.22387 9.37826 2.67303C8.57506 2.1222 7.63125 1.82992 6.66667 1.83333Z" fill="#3A4736"/>
</svg>
