<svg width="183" height="102" viewBox="0 0 183 102" fill="none" xmlns="http://www.w3.org/2000/svg">
<path d="M1.64 38.46C1.37333 38.46 1.16 38.4067 1 38.3C0.866667 38.1933 0.8 38.06 0.8 37.9C0.8 37.74 0.88 37.6067 1.04 37.5C1.22667 37.3933 1.45333 37.3533 1.72 37.38C2.36 37.4333 2.82667 37.46 3.12 37.46C3.92 37.46 4.56 37.34 5.04 37.1C5.52 36.8333 5.84 36.3933 6 35.78C6.21333 34.9533 6.48 32.1533 6.8 27.38C7.14667 22.58 7.32 18.86 7.32 16.22C7.32 15.0467 7.28 14.2867 7.2 13.94C7.04 13.3267 6.72 12.9 6.24 12.66C5.76 12.3933 5.12 12.26 4.32 12.26C4.02667 12.26 3.56 12.2867 2.92 12.34H2.76C2.52 12.34 2.33333 12.2867 2.2 12.18C2.06667 12.0733 2 11.94 2 11.78C2 11.6467 2.06667 11.5267 2.2 11.42C2.36 11.3133 2.57333 11.26 2.84 11.26H8.36C8.97333 11.26 9.37333 11.42 9.56 11.74C9.61333 11.8467 9.69333 12.06 9.8 12.38L17.76 31.26C17.8667 31.5267 18 31.66 18.16 31.66C18.3467 31.66 18.48 31.54 18.56 31.3L26.72 12.34C26.8 12.1267 26.9067 11.9133 27.04 11.7C27.2 11.4067 27.6267 11.26 28.32 11.26H34.44C34.7067 11.26 34.9067 11.3133 35.04 11.42C35.2 11.5267 35.28 11.66 35.28 11.82C35.28 11.98 35.1867 12.1133 35 12.22C34.84 12.3267 34.6267 12.3667 34.36 12.34C33.72 12.2867 33.2533 12.26 32.96 12.26C32.16 12.26 31.52 12.3933 31.04 12.66C30.56 12.9 30.24 13.3267 30.08 13.94C30 14.2867 29.96 15.0467 29.96 16.22C29.96 18.86 30.12 22.5667 30.44 27.34C30.7867 32.1133 31.0667 34.9267 31.28 35.78C31.44 36.3933 31.76 36.8333 32.24 37.1C32.72 37.34 33.36 37.46 34.16 37.46C34.4533 37.46 34.92 37.4333 35.56 37.38H35.72C35.96 37.38 36.1467 37.4333 36.28 37.54C36.4133 37.6467 36.48 37.78 36.48 37.94C36.48 38.0733 36.4 38.1933 36.24 38.3C36.1067 38.4067 35.9067 38.46 35.64 38.46H23.4C23.1333 38.46 22.92 38.4067 22.76 38.3C22.6267 38.1933 22.56 38.06 22.56 37.9C22.56 37.74 22.64 37.6067 22.8 37.5C22.9867 37.3933 23.2133 37.3533 23.48 37.38C24.12 37.4333 24.5867 37.46 24.88 37.46C25.68 37.46 26.32 37.34 26.8 37.1C27.28 36.8333 27.6 36.3933 27.76 35.78C27.84 35.4067 27.88 34.7267 27.88 33.74C27.88 31.82 27.6667 27.42 27.24 20.54L27 17.02C26.9733 16.7 26.8667 16.54 26.68 16.54C26.5467 16.54 26.4133 16.66 26.28 16.9L18.48 35.1C18.32 35.4733 18.1333 35.7667 17.92 35.98C17.7333 36.1933 17.5467 36.3 17.36 36.3C16.9867 36.3 16.6533 35.9667 16.36 35.3L9.72 19.06C9.61333 18.82 9.48 18.7 9.32 18.7C9.16 18.7 9.05333 18.86 9 19.18C8.78667 21.7133 8.6 24.3667 8.44 27.14C8.28 29.8867 8.2 32.06 8.2 33.66C8.2 34.7 8.24 35.4067 8.32 35.78C8.48 36.3933 8.8 36.8333 9.28 37.1C9.76 37.34 10.4 37.46 11.2 37.46C11.4933 37.46 11.96 37.4333 12.6 37.38H12.76C13 37.38 13.1867 37.4333 13.32 37.54C13.4533 37.6467 13.52 37.78 13.52 37.94C13.52 38.0733 13.44 38.1933 13.28 38.3C13.1467 38.4067 12.9467 38.46 12.68 38.46H1.64ZM47.7456 23.3C48.0123 23.3 48.2123 23.3533 48.3456 23.46C48.5056 23.5667 48.5856 23.7 48.5856 23.86C48.5856 24.0467 48.5056 24.1933 48.3456 24.3C48.1856 24.4067 47.959 24.4333 47.6656 24.38C47.559 24.3533 47.4256 24.34 47.2656 24.34C46.7323 24.34 46.4656 24.66 46.4656 25.3C46.4656 25.7533 46.6123 26.3933 46.9056 27.22C47.199 28.02 47.679 29.2333 48.3456 30.86L49.5856 33.94C49.6923 34.2067 49.8256 34.34 49.9856 34.34C50.1723 34.34 50.3056 34.22 50.3856 33.98C51.239 31.8733 51.959 29.9933 52.5456 28.34C53.1323 26.66 53.4123 25.6467 53.3856 25.3C53.3856 24.9267 53.2656 24.6867 53.0256 24.58C52.8123 24.4467 52.479 24.4067 52.0256 24.46H51.8256C51.6123 24.46 51.439 24.4067 51.3056 24.3C51.1723 24.1933 51.1056 24.0733 51.1056 23.94C51.1056 23.78 51.1723 23.6467 51.3056 23.54C51.4656 23.4333 51.679 23.38 51.9456 23.38H56.5856C56.8523 23.38 57.0523 23.4333 57.1856 23.54C57.3456 23.62 57.4256 23.74 57.4256 23.9C57.4256 24.06 57.3456 24.2067 57.1856 24.34C57.0256 24.4467 56.799 24.4867 56.5056 24.46C56.2656 24.4333 56.0656 24.5 55.9056 24.66C55.7456 24.7933 55.5456 25.0333 55.3056 25.38C55.0923 25.7 54.6256 26.7267 53.9056 28.46C53.2123 30.1933 52.719 31.4333 52.4256 32.18C50.9856 35.8067 49.959 38.3267 49.3456 39.74C48.9456 40.5667 48.4256 41.4067 47.7856 42.26C47.1456 43.1133 46.5323 43.6333 45.9456 43.82C45.4923 43.9533 45.1456 44.02 44.9056 44.02C44.4523 44.02 44.0923 43.9 43.8256 43.66C43.5856 43.4467 43.4656 43.1933 43.4656 42.9C43.4656 42.58 43.6123 42.3 43.9056 42.06C44.199 41.82 44.6123 41.7 45.1456 41.7C45.6256 41.7 46.1323 41.4733 46.6656 41.02C47.2256 40.5933 47.679 40.0333 48.0256 39.34L48.4656 38.42C48.5456 38.26 48.5856 38.1 48.5856 37.94C48.5856 37.86 48.559 37.74 48.5056 37.58L46.6256 32.94C45.959 31.26 45.3323 29.74 44.7456 28.38C44.1856 27.02 43.7323 26.06 43.3856 25.5C42.879 24.7267 42.4123 24.3533 41.9856 24.38H41.9456C41.679 24.38 41.4656 24.3267 41.3056 24.22C41.1456 24.1133 41.0656 23.98 41.0656 23.82C41.0656 23.66 41.1323 23.54 41.2656 23.46C41.4256 23.3533 41.639 23.3 41.9056 23.3H47.7456ZM74.665 38.46C74.3983 38.46 74.185 38.4067 74.025 38.3C73.8917 38.1933 73.825 38.06 73.825 37.9C73.825 37.74 73.905 37.6067 74.065 37.5C74.2517 37.3933 74.4783 37.3533 74.745 37.38C75.385 37.4333 75.8517 37.46 76.145 37.46C76.945 37.46 77.585 37.34 78.065 37.1C78.545 36.8333 78.865 36.3933 79.025 35.78C79.265 34.82 79.385 31.18 79.385 24.86C79.385 18.54 79.265 14.9 79.025 13.94C78.865 13.3267 78.545 12.9 78.065 12.66C77.585 12.3933 76.945 12.26 76.145 12.26C75.8517 12.26 75.385 12.2867 74.745 12.34H74.585C74.345 12.34 74.1583 12.2867 74.025 12.18C73.8917 12.0733 73.825 11.94 73.825 11.78C73.825 11.6467 73.8917 11.5267 74.025 11.42C74.185 11.3133 74.3983 11.26 74.665 11.26H86.905C87.1717 11.26 87.3717 11.3133 87.505 11.42C87.665 11.5267 87.745 11.66 87.745 11.82C87.745 11.98 87.6517 12.1133 87.465 12.22C87.305 12.3267 87.0917 12.3667 86.825 12.34C86.185 12.2867 85.7183 12.26 85.425 12.26C84.625 12.26 83.985 12.3933 83.505 12.66C83.025 12.9 82.705 13.3267 82.545 13.94C82.305 14.9267 82.185 18.0333 82.185 23.26C82.185 23.9533 82.5183 24.3 83.185 24.3H94.785C95.4517 24.3 95.785 23.9533 95.785 23.26C95.785 18.0333 95.665 14.9267 95.425 13.94C95.265 13.3267 94.945 12.9 94.465 12.66C93.985 12.3933 93.345 12.26 92.545 12.26C92.2517 12.26 91.785 12.2867 91.145 12.34H90.985C90.745 12.34 90.5583 12.2867 90.425 12.18C90.2917 12.0733 90.225 11.94 90.225 11.78C90.225 11.6467 90.2917 11.5267 90.425 11.42C90.585 11.3133 90.7983 11.26 91.065 11.26H103.305C103.572 11.26 103.772 11.3133 103.905 11.42C104.065 11.5267 104.145 11.66 104.145 11.82C104.145 11.98 104.052 12.1133 103.865 12.22C103.705 12.3267 103.492 12.3667 103.225 12.34C102.585 12.2867 102.118 12.26 101.825 12.26C101.025 12.26 100.385 12.3933 99.905 12.66C99.425 12.9 99.105 13.3267 98.945 13.94C98.705 14.9 98.585 18.54 98.585 24.86C98.585 31.18 98.705 34.82 98.945 35.78C99.105 36.3933 99.425 36.8333 99.905 37.1C100.385 37.34 101.025 37.46 101.825 37.46C102.118 37.46 102.585 37.4333 103.225 37.38H103.385C103.625 37.38 103.812 37.4333 103.945 37.54C104.078 37.6467 104.145 37.78 104.145 37.94C104.145 38.0733 104.065 38.1933 103.905 38.3C103.772 38.4067 103.572 38.46 103.305 38.46H91.065C90.7983 38.46 90.585 38.4067 90.425 38.3C90.2917 38.1933 90.225 38.06 90.225 37.9C90.225 37.74 90.305 37.6067 90.465 37.5C90.6517 37.3933 90.8783 37.3533 91.145 37.38C91.785 37.4333 92.2517 37.46 92.545 37.46C93.345 37.46 93.985 37.34 94.465 37.1C94.945 36.8333 95.265 36.3933 95.425 35.78C95.665 34.82 95.785 31.7667 95.785 26.62C95.785 25.9267 95.4517 25.58 94.785 25.58H83.185C82.5183 25.58 82.185 25.9267 82.185 26.62C82.185 31.7667 82.305 34.82 82.545 35.78C82.705 36.3933 83.025 36.8333 83.505 37.1C83.985 37.34 84.625 37.46 85.425 37.46C85.7183 37.46 86.185 37.4333 86.825 37.38H86.985C87.225 37.38 87.4117 37.4333 87.545 37.54C87.6783 37.6467 87.745 37.78 87.745 37.94C87.745 38.0733 87.665 38.1933 87.505 38.3C87.3717 38.4067 87.1717 38.46 86.905 38.46H74.665ZM115.187 38.5C113.907 38.5 112.68 38.22 111.507 37.66C110.334 37.1 109.374 36.2467 108.627 35.1C107.907 33.9533 107.547 32.5667 107.547 30.94C107.547 29.2867 107.92 27.8867 108.667 26.74C109.414 25.5933 110.36 24.74 111.507 24.18C112.68 23.5933 113.907 23.3 115.187 23.3C116.467 23.3 117.694 23.5933 118.867 24.18C120.04 24.74 121 25.5933 121.747 26.74C122.494 27.8867 122.867 29.2867 122.867 30.94C122.867 32.5667 122.494 33.9533 121.747 35.1C121 36.2467 120.04 37.1 118.867 37.66C117.694 38.22 116.467 38.5 115.187 38.5ZM115.187 37.46C116.574 37.46 117.68 36.86 118.507 35.66C119.334 34.46 119.747 32.8733 119.747 30.9C119.747 28.9533 119.32 27.38 118.467 26.18C117.64 24.9533 116.547 24.34 115.187 24.34C113.827 24.34 112.72 24.9533 111.867 26.18C111.04 27.38 110.627 28.9533 110.627 30.9C110.627 32.8467 111.04 34.4333 111.867 35.66C112.72 36.86 113.827 37.46 115.187 37.46ZM128.261 25.82C128.261 25.7133 128.328 25.6067 128.461 25.5C128.621 25.3667 128.834 25.2733 129.101 25.22C129.928 25.0067 130.781 24.5667 131.661 23.9C131.768 23.8467 131.954 23.74 132.221 23.58C132.488 23.3933 132.701 23.3 132.861 23.3C133.234 23.3 133.421 23.46 133.421 23.78C133.421 24.0733 133.408 24.34 133.381 24.58C133.381 24.7667 133.421 24.8867 133.501 24.94C133.608 24.9667 133.728 24.9267 133.861 24.82C134.954 23.8067 136.114 23.3 137.341 23.3C138.194 23.3 139.021 23.5533 139.821 24.06C140.621 24.54 141.288 25.2467 141.821 26.18C141.981 26.4467 142.141 26.46 142.301 26.22C142.728 25.5267 143.394 24.8733 144.301 24.26C145.208 23.62 146.128 23.3 147.061 23.3C147.941 23.3 148.794 23.5667 149.621 24.1C150.474 24.6333 151.168 25.46 151.701 26.58C152.261 27.6733 152.541 29.0333 152.541 30.66L152.501 34.26C152.501 35.3267 152.594 36.1267 152.781 36.66C152.968 37.1667 153.341 37.42 153.901 37.42C154.114 37.42 154.274 37.4067 154.381 37.38L154.621 37.34C154.834 37.34 154.994 37.3933 155.101 37.5C155.234 37.6067 155.301 37.74 155.301 37.9C155.301 38.06 155.221 38.1933 155.061 38.3C154.928 38.4067 154.728 38.46 154.461 38.46H147.821C147.554 38.46 147.341 38.4067 147.181 38.3C147.048 38.1933 146.981 38.06 146.981 37.9C146.981 37.7133 147.061 37.5667 147.221 37.46C147.381 37.3533 147.608 37.3267 147.901 37.38C148.674 37.5133 149.168 37.22 149.381 36.5C149.621 35.7533 149.741 34.6067 149.741 33.06V30.9C149.741 29.78 149.554 28.78 149.181 27.9C148.834 27.02 148.368 26.34 147.781 25.86C147.221 25.38 146.648 25.14 146.061 25.14C144.994 25.14 144.181 25.7133 143.621 26.86C143.088 27.98 142.821 29.2467 142.821 30.66L142.781 34.26C142.781 35.3267 142.874 36.1267 143.061 36.66C143.248 37.1667 143.621 37.42 144.181 37.42C144.394 37.42 144.554 37.4067 144.661 37.38L144.901 37.34C145.114 37.34 145.274 37.3933 145.381 37.5C145.514 37.6067 145.581 37.74 145.581 37.9C145.581 38.06 145.501 38.1933 145.341 38.3C145.208 38.4067 145.008 38.46 144.741 38.46H138.101C137.834 38.46 137.621 38.4067 137.461 38.3C137.328 38.1933 137.261 38.06 137.261 37.9C137.261 37.7133 137.341 37.5667 137.501 37.46C137.661 37.3533 137.888 37.3267 138.181 37.38C138.954 37.5133 139.448 37.22 139.661 36.5C139.901 35.7533 140.021 34.6067 140.021 33.06V30.9C140.021 29.78 139.834 28.78 139.461 27.9C139.114 27.02 138.648 26.34 138.061 25.86C137.501 25.38 136.928 25.14 136.341 25.14C135.754 25.14 135.208 25.38 134.701 25.86C134.221 26.3133 133.834 26.8733 133.541 27.54C133.274 28.2067 133.141 28.7933 133.141 29.3C133.114 29.9667 133.101 30.8733 133.101 32.02C133.101 33.6733 133.168 35.0333 133.301 36.1C133.381 36.5533 133.528 36.8867 133.741 37.1C133.954 37.3133 134.261 37.42 134.661 37.42C134.848 37.42 135.008 37.4067 135.141 37.38L135.381 37.34C135.594 37.34 135.754 37.3933 135.861 37.5C135.994 37.6067 136.061 37.74 136.061 37.9C136.061 38.06 135.981 38.1933 135.821 38.3C135.688 38.4067 135.488 38.46 135.221 38.46H128.701C128.434 38.46 128.221 38.4067 128.061 38.3C127.928 38.1933 127.861 38.06 127.861 37.9C127.861 37.7133 127.941 37.5667 128.101 37.46C128.261 37.3533 128.488 37.3267 128.781 37.38C129.581 37.54 130.114 37.1133 130.381 36.1C130.541 35.5133 130.621 34.6067 130.621 33.38C130.621 32.5 130.608 31.82 130.581 31.34L130.541 28.66C130.541 27.94 130.421 27.3667 130.181 26.94C129.968 26.4867 129.608 26.26 129.101 26.26C128.834 26.26 128.621 26.22 128.461 26.14C128.328 26.06 128.261 25.9533 128.261 25.82ZM160.303 30.94C160.303 29.3133 160.663 27.9267 161.383 26.78C162.103 25.6067 163.023 24.74 164.143 24.18C165.263 23.5933 166.396 23.3 167.543 23.3C169.223 23.3 170.636 23.74 171.783 24.62C172.93 25.4733 173.503 26.6467 173.503 28.14C173.503 28.7 173.383 29.14 173.143 29.46C172.93 29.78 172.663 29.94 172.343 29.94L163.823 29.9C163.423 29.9 163.223 30.0867 163.223 30.46C163.223 32.2733 163.663 33.8333 164.543 35.14C165.423 36.42 166.623 37.06 168.143 37.06C169.263 37.06 170.236 36.8067 171.063 36.3C171.89 35.7933 172.49 35.2067 172.863 34.54C173.05 34.22 173.263 34.06 173.503 34.06C173.77 34.06 173.903 34.2333 173.903 34.58C173.903 34.8467 173.823 35.0733 173.663 35.26C172.916 36.3533 172.09 37.1667 171.183 37.7C170.276 38.2333 169.13 38.5 167.743 38.5C166.463 38.5 165.25 38.22 164.103 37.66C162.983 37.1 162.063 36.2467 161.343 35.1C160.65 33.9533 160.303 32.5667 160.303 30.94ZM163.543 28.26C163.516 28.3133 163.503 28.38 163.503 28.46C163.503 28.78 163.69 28.94 164.063 28.94L169.543 28.9C170.023 28.9 170.33 28.7933 170.463 28.58C170.596 28.34 170.663 28.0467 170.663 27.7C170.663 26.7133 170.37 25.9133 169.783 25.3C169.223 24.66 168.476 24.34 167.543 24.34C166.636 24.34 165.823 24.6733 165.103 25.34C164.41 26.0067 163.89 26.98 163.543 28.26Z" fill="#EDE1DE"/>
<path d="M50.4619 54.5C51.6826 54.4566 52.8061 54.3017 54.0203 53.9753C58.8569 52.6752 63.6521 51.002 68.4619 49.5" stroke="#EDE1DE" stroke-linecap="round"/>
<path d="M43.6963 74.5469C43.6963 73.9531 43.8213 73.3281 44.0713 72.6719C44.3525 72.0156 44.7744 71.5469 45.3369 71.2656C45.2119 72.2344 45.2588 73.1875 45.4775 74.125C45.7275 75.0625 46.1182 75.8906 46.6494 76.6094C47.1807 77.3281 47.8682 77.9062 48.7119 78.3438C49.5557 78.75 50.5244 78.9531 51.6182 78.9531C52.9619 78.9531 54.1182 78.625 55.0869 77.9688C56.0869 77.2812 56.915 76.4375 57.5713 75.4375C58.2275 74.4062 58.7119 73.2812 59.0244 72.0625C59.3369 70.8125 59.4932 69.6094 59.4932 68.4531V67.4688L56.7275 52.2344C56.6963 52.1094 56.665 51.9219 56.6338 51.6719C56.6338 51.4219 56.6807 51.1875 56.7744 50.9688C56.8994 50.7188 57.0713 50.5469 57.29 50.4531C57.54 50.3594 57.915 50.4062 58.415 50.5938C58.415 50.6562 58.4775 50.9688 58.6025 51.5312C58.7588 52.0625 58.915 52.7656 59.0713 53.6406C59.2588 54.4844 59.4463 55.4375 59.6338 56.5C59.8525 57.5625 60.0557 58.6406 60.2432 59.7344C60.4307 60.7969 60.6025 61.8281 60.7588 62.8281C60.915 63.7969 61.04 64.625 61.1338 65.3125C61.29 66.9688 61.2432 68.6875 60.9932 70.4688C60.7432 72.25 60.2432 73.8906 59.4932 75.3906C58.7432 76.8906 57.6807 78.125 56.3057 79.0938C54.9619 80.0625 53.2744 80.5469 51.2432 80.5469C50.4932 80.5469 49.665 80.3906 48.7588 80.0781C47.8838 79.7656 47.0713 79.3438 46.3213 78.8125C45.6025 78.2812 44.9775 77.6562 44.4463 76.9375C43.9463 76.1875 43.6963 75.3906 43.6963 74.5469ZM68.2007 80.5C67.6069 80.7188 67.06 80.6719 66.56 80.3594C66.0913 80.0156 65.6694 79.5156 65.2944 78.8594C64.9194 78.1719 64.5913 77.4062 64.31 76.5625C64.0288 75.6875 63.81 74.8281 63.6538 73.9844C63.4975 73.1406 63.3882 72.375 63.3257 71.6875C63.2944 71 63.31 70.5 63.3725 70.1875C63.3725 69.875 63.3882 69.3906 63.4194 68.7344C63.4507 68.0781 63.4819 67.3438 63.5132 66.5312C63.5444 65.6875 63.5757 64.8281 63.6069 63.9531C63.6694 63.0469 63.7163 62.1719 63.7475 61.3281C63.7788 60.4844 63.81 59.75 63.8413 59.125C63.8725 58.4688 63.8882 57.9844 63.8882 57.6719C63.9507 57.6719 63.9975 57.6562 64.0288 57.625L64.1694 57.5781C64.4819 57.5781 64.7475 57.7188 64.9663 58C65.185 58.2812 65.3725 58.5469 65.5288 58.7969C65.5288 59.2344 65.5132 60.0156 65.4819 61.1406C65.4819 62.2656 65.4819 63.4688 65.4819 64.75C65.4819 66.0312 65.4819 67.25 65.4819 68.4062C65.5132 69.5312 65.5288 70.3125 65.5288 70.75C65.56 71.125 65.6225 71.7188 65.7163 72.5312C65.8413 73.3125 65.9975 74.125 66.185 74.9688C66.3725 75.7812 66.6225 76.5312 66.935 77.2188C67.2788 77.875 67.7007 78.25 68.2007 78.3438C69.5132 78.3438 70.6069 77.8594 71.4819 76.8906C72.3882 75.9219 73.1382 74.7031 73.7319 73.2344C74.3257 71.7656 74.7944 70.1875 75.1382 68.5C75.5132 66.7812 75.8257 65.1719 76.0757 63.6719C76.3257 62.1719 76.5444 60.9219 76.7319 59.9219C76.9507 58.8906 77.2007 58.3281 77.4819 58.2344L78.6069 58.4688L81.2319 76.6094C81.4194 76.7031 81.5757 76.8438 81.7007 77.0312C81.8257 77.2188 81.935 77.4219 82.0288 77.6406C82.1538 77.8594 82.2319 78.0781 82.2632 78.2969C82.3257 78.5156 82.3569 78.6719 82.3569 78.7656C82.2944 78.9844 82.1069 79.2188 81.7944 79.4688C81.4819 79.7188 81.2163 79.8594 80.9975 79.8906H80.81C80.7788 79.8906 80.7475 79.8906 80.7163 79.8906C80.6538 79.7969 80.56 79.6562 80.435 79.4688C80.3413 79.25 80.2319 79.0312 80.1069 78.8125C79.9819 78.5938 79.8725 78.375 79.7788 78.1562C79.7163 77.9062 79.6694 77.75 79.6382 77.6875C79.5444 77.375 79.435 76.8906 79.31 76.2344C79.2163 75.5781 79.1225 74.8594 79.0288 74.0781C78.935 73.2656 78.8413 72.4219 78.7475 71.5469C78.685 70.6406 78.6069 69.7812 78.5132 68.9688C78.4507 68.125 78.3725 67.3906 78.2788 66.7656C78.2163 66.1094 78.1382 65.625 78.0444 65.3125C77.8882 66.0312 77.6694 66.8906 77.3882 67.8906C77.1069 68.8594 76.7475 69.8906 76.31 70.9844C75.9038 72.0781 75.435 73.1562 74.9038 74.2188C74.3725 75.25 73.7632 76.2188 73.0757 77.125C72.4194 78 71.685 78.75 70.8725 79.375C70.06 79.9688 69.1694 80.3438 68.2007 80.5ZM83.8457 63.0625C83.8457 62.875 83.8457 62.6562 83.8457 62.4062C83.8769 62.1562 83.9082 61.9219 83.9394 61.7031C84.0019 61.4531 84.1113 61.25 84.2675 61.0938C84.4238 60.9375 84.6425 60.8594 84.9238 60.8594C84.9863 60.8594 85.08 60.875 85.205 60.9062C85.3613 60.9062 85.4707 60.9062 85.5332 60.9062C85.5644 63.125 85.6738 65.4062 85.8613 67.75C86.08 70.0938 86.5019 72.3594 87.1269 74.5469C87.1582 74.2031 87.2363 73.625 87.3613 72.8125C87.5175 71.9688 87.6738 71.0938 87.83 70.1875C88.0175 69.25 88.1894 68.375 88.3457 67.5625C88.5332 66.75 88.6582 66.1719 88.7207 65.8281C88.9394 65.1719 89.2363 64.5 89.6113 63.8125C89.9863 63.0938 90.4394 62.4375 90.9707 61.8438C91.5332 61.25 92.1425 60.7656 92.7988 60.3906C93.4863 60.0156 94.205 59.8281 94.955 59.8281C96.205 59.8281 97.3144 60.1094 98.2832 60.6719C99.2519 61.2344 100.111 61.9844 100.861 62.9219C101.643 63.8281 102.299 64.875 102.83 66.0625C103.361 67.2188 103.799 68.4062 104.143 69.625C104.486 70.8438 104.736 72.0156 104.893 73.1406C105.049 74.2656 105.127 75.2656 105.127 76.1406V76.7031C105.127 76.8906 105.096 77.0781 105.033 77.2656C105.002 77.4219 104.924 77.5625 104.799 77.6875C104.705 77.7812 104.518 77.8281 104.236 77.8281C103.924 77.8281 103.658 77.6406 103.439 77.2656C103.408 76.4844 103.314 75.5781 103.158 74.5469C103.033 73.5156 102.846 72.4375 102.596 71.3125C102.377 70.1562 102.064 69.0312 101.658 67.9375C101.283 66.8125 100.799 65.8125 100.205 64.9375C99.6425 64.0625 98.9707 63.3594 98.1894 62.8281C97.4082 62.2656 96.4707 61.9844 95.3769 61.9844C94.5019 61.9844 93.7363 62.1406 93.08 62.4531C92.455 62.7656 91.9238 63.2031 91.4863 63.7656C91.0488 64.2969 90.6894 64.9375 90.4082 65.6875C90.1582 66.4062 89.9707 67.1875 89.8457 68.0312C89.7519 68.4688 89.6269 69.25 89.4707 70.375C89.3144 71.5 89.1425 72.7031 88.955 73.9844C88.7675 75.2656 88.5957 76.4688 88.4394 77.5938C88.3144 78.7188 88.2363 79.5 88.205 79.9375C88.1113 80.25 87.9394 80.4375 87.6894 80.5C87.4707 80.5625 87.2363 80.5938 86.9863 80.5938C86.955 80.5938 86.8769 80.5781 86.7519 80.5469C86.6269 80.5469 86.5644 80.5312 86.5644 80.5L83.8925 64.2344C83.8925 64.1719 83.8769 64 83.8457 63.7188C83.8457 63.4375 83.8457 63.2188 83.8457 63.0625ZM112.006 98.4531C112.006 98.1719 112.022 97.875 112.053 97.5625C112.116 97.2812 112.209 97.0938 112.334 97C112.491 96.9375 112.663 97.0312 112.85 97.2812C113.069 97.5312 113.334 98.0469 113.647 98.8281C114.647 98.8281 115.553 98.6094 116.366 98.1719C117.209 97.7656 117.959 97.2031 118.616 96.4844C119.272 95.7656 119.819 94.9375 120.256 94C120.725 93.0625 121.116 92.0938 121.428 91.0938C121.741 90.0938 121.959 89.0938 122.084 88.0938C122.241 87.125 122.319 86.2188 122.319 85.375C122.319 82.125 122.006 78.8125 121.381 75.4375C120.756 72.0312 119.803 68.8281 118.522 65.8281C117.897 67.2031 117.35 68.625 116.881 70.0938C116.413 71.5625 115.85 72.9844 115.194 74.3594C114.538 75.7031 113.725 76.9219 112.756 78.0156C111.819 79.0781 110.553 79.9219 108.959 80.5469C108.397 80.5469 107.944 80.4062 107.6 80.125C107.288 79.8125 107.038 79.4375 106.85 79C106.694 78.5625 106.6 78.1094 106.569 77.6406C106.538 77.1406 106.522 76.6719 106.522 76.2344C106.522 75.5469 106.6 74.6406 106.756 73.5156C106.944 72.3594 107.225 71.125 107.6 69.8125C107.975 68.5 108.413 67.1875 108.913 65.875C109.444 64.5625 110.053 63.375 110.741 62.3125C111.428 61.25 112.194 60.3906 113.038 59.7344C113.881 59.0781 114.803 58.75 115.803 58.75C116.116 58.75 116.428 58.8281 116.741 58.9844C117.053 59.1406 117.366 59.3125 117.678 59.5L118.616 60.0625C118.928 60.2188 119.256 60.3438 119.6 60.4375C119.694 60.8438 119.85 61.5156 120.069 62.4531C120.288 63.3906 120.522 64.4531 120.772 65.6406C121.022 66.7969 121.272 68.0312 121.522 69.3438C121.803 70.6562 122.069 71.9062 122.319 73.0938C122.569 74.25 122.788 75.3125 122.975 76.2812C123.194 77.2188 123.334 77.9062 123.397 78.3438C123.428 78.5625 123.475 78.9375 123.538 79.4688C123.631 79.9688 123.694 80.5 123.725 81.0625C123.788 81.6562 123.834 82.2031 123.866 82.7031C123.928 83.2031 123.959 83.5469 123.959 83.7344C123.959 84.6406 123.897 85.7031 123.772 86.9219C123.647 88.1406 123.428 89.3906 123.116 90.6719C122.803 91.9531 122.397 93.2188 121.897 94.4688C121.397 95.7188 120.772 96.8438 120.022 97.8438C119.272 98.8438 118.381 99.6406 117.35 100.234C116.35 100.859 115.194 101.172 113.881 101.172C113.131 101.172 112.631 100.891 112.381 100.328C112.131 99.7656 112.006 99.1406 112.006 98.4531ZM108.116 75.8125V76.6094C108.116 76.8906 108.147 77.1719 108.209 77.4531C108.272 77.7031 108.381 77.9375 108.538 78.1562C108.694 78.3438 108.944 78.4375 109.288 78.4375C109.85 78.4062 110.413 78.0938 110.975 77.5C111.569 76.9062 112.1 76.2188 112.569 75.4375C113.069 74.6562 113.506 73.875 113.881 73.0938C114.288 72.2812 114.569 71.6719 114.725 71.2656C114.85 70.9844 115.038 70.4531 115.288 69.6719C115.569 68.8906 115.85 68.0781 116.131 67.2344C116.413 66.3594 116.678 65.5312 116.928 64.75C117.178 63.9375 117.35 63.375 117.444 63.0625V62.8281C117.444 62.5781 117.334 62.3594 117.116 62.1719C116.928 61.9844 116.694 61.8438 116.413 61.75C116.163 61.6562 115.897 61.5781 115.616 61.5156C115.334 61.4531 115.1 61.4219 114.913 61.4219C114.225 61.4219 113.569 61.75 112.944 62.4062C112.35 63.0625 111.803 63.8906 111.303 64.8906C110.803 65.8906 110.35 66.9844 109.944 68.1719C109.569 69.3281 109.241 70.4531 108.959 71.5469C108.678 72.6094 108.459 73.5469 108.303 74.3594C108.178 75.1406 108.116 75.625 108.116 75.8125ZM127.464 79.4219C127.433 78.6094 127.354 77.3594 127.229 75.6719C127.104 73.9531 126.964 72.0312 126.808 69.9062C126.683 67.75 126.542 65.5 126.386 63.1562C126.261 60.7812 126.12 58.5156 125.964 56.3594C125.839 54.2031 125.698 52.2812 125.542 50.5938C125.417 48.875 125.339 47.6094 125.308 46.7969V46.1875C125.308 45.4688 125.667 45.1094 126.386 45.1094C126.448 45.1094 126.542 45.125 126.667 45.1562C126.792 45.1562 126.886 45.1562 126.948 45.1562C127.136 47.875 127.308 50.4844 127.464 52.9844C127.62 55.4844 127.776 57.9688 127.933 60.4375C128.089 62.9062 128.261 65.3906 128.448 67.8906C128.636 70.3594 128.854 72.9375 129.104 75.625C129.448 75.9688 129.636 76.375 129.667 76.8438C129.698 77.2812 129.714 77.7344 129.714 78.2031C129.714 78.4219 129.698 78.6719 129.667 78.9531C129.667 79.2031 129.62 79.4531 129.526 79.7031C129.433 79.9219 129.276 80.125 129.058 80.3125C128.87 80.4688 128.62 80.5469 128.308 80.5469C128.026 80.5469 127.823 80.4375 127.698 80.2188C127.604 80 127.526 79.7344 127.464 79.4219ZM132.656 69.625C131.937 70.0625 131.203 70.4062 130.453 70.6562C129.703 70.875 129.093 70.7188 128.624 70.1875C128.624 69.5938 128.828 69.2031 129.234 69.0156C129.64 68.7969 130.093 68.625 130.593 68.5C131.124 68.375 131.64 68.2188 132.14 68.0312C132.671 67.8438 133.031 67.4688 133.218 66.9062C133.406 66.2812 133.578 65.5312 133.734 64.6562C133.89 63.7812 134.109 62.9375 134.39 62.125C134.671 61.3125 135.078 60.6406 135.609 60.1094C136.14 59.5469 136.874 59.2656 137.812 59.2656C138.343 59.2656 138.999 59.4531 139.781 59.8281C140.593 60.1719 141.359 60.5938 142.078 61.0938C142.796 61.5938 143.406 62.125 143.906 62.6875C144.406 63.25 144.656 63.7656 144.656 64.2344C144.656 64.4531 144.624 64.6562 144.562 64.8438C144.531 65.0312 144.374 65.1875 144.093 65.3125L134.859 68.5L134.812 68.7344C134.812 68.8594 134.796 69.0312 134.765 69.25V69.8125C134.765 70.0312 134.765 70.1875 134.765 70.2812C134.765 70.9062 134.812 71.6875 134.906 72.625C134.999 73.5312 135.187 74.4219 135.468 75.2969C135.781 76.1406 136.203 76.875 136.734 77.5C137.265 78.125 137.984 78.4375 138.89 78.4375C139.234 78.4375 139.515 78.375 139.734 78.25C139.984 78.0938 140.218 77.9375 140.437 77.7812C140.687 77.5938 140.921 77.4375 141.14 77.3125C141.39 77.1562 141.671 77.0781 141.984 77.0781C141.984 77.5469 141.874 78 141.656 78.4375C141.468 78.8438 141.203 79.2031 140.859 79.5156C140.515 79.8281 140.124 80.0781 139.687 80.2656C139.249 80.4531 138.812 80.5469 138.374 80.5469C137.187 80.5469 136.234 80.1406 135.515 79.3281C134.796 78.4844 134.234 77.4844 133.828 76.3281C133.453 75.1406 133.187 73.9375 133.031 72.7188C132.874 71.4688 132.749 70.4375 132.656 69.625ZM138.374 61.3281C137.812 61.3281 137.328 61.4844 136.921 61.7969C136.546 62.1094 136.234 62.5 135.984 62.9688C135.734 63.4375 135.546 63.9531 135.421 64.5156C135.328 65.0469 135.281 65.5312 135.281 65.9688C135.781 65.9688 136.328 65.9375 136.921 65.875C137.546 65.8125 138.156 65.6875 138.749 65.5C139.343 65.3125 139.874 65.0781 140.343 64.7969C140.843 64.4844 141.187 64.1094 141.374 63.6719C140.906 62.9219 140.468 62.3438 140.062 61.9375C139.656 61.5312 139.093 61.3281 138.374 61.3281Z" fill="#EDE1DE"/>
</svg>
