<svg width="199" height="101" viewBox="0 0 199 101" fill="none" xmlns="http://www.w3.org/2000/svg">
<path d="M11.64 36.96C11.3733 36.96 11.16 36.9067 11 36.8C10.8667 36.6933 10.8 36.56 10.8 36.4C10.8 36.24 10.88 36.1067 11.04 36C11.2267 35.8933 11.4533 35.8533 11.72 35.88C12.36 35.9333 12.8267 35.96 13.12 35.96C13.92 35.96 14.56 35.84 15.04 35.6C15.52 35.3333 15.84 34.8933 16 34.28C16.2133 33.4533 16.48 30.6533 16.8 25.88C17.1467 21.08 17.32 17.36 17.32 14.72C17.32 13.5467 17.28 12.7867 17.2 12.44C17.04 11.8267 16.72 11.4 16.24 11.16C15.76 10.8933 15.12 10.76 14.32 10.76C14.0267 10.76 13.56 10.7867 12.92 10.84H12.76C12.52 10.84 12.3333 10.7867 12.2 10.68C12.0667 10.5733 12 10.44 12 10.28C12 10.1467 12.0667 10.0267 12.2 9.92C12.36 9.81333 12.5733 9.76 12.84 9.76H18.36C18.9733 9.76 19.3733 9.92 19.56 10.24C19.6133 10.3467 19.6933 10.56 19.8 10.88L27.76 29.76C27.8667 30.0267 28 30.16 28.16 30.16C28.3467 30.16 28.48 30.04 28.56 29.8L36.72 10.84C36.8 10.6267 36.9067 10.4133 37.04 10.2C37.2 9.90667 37.6267 9.76 38.32 9.76H44.44C44.7067 9.76 44.9067 9.81333 45.04 9.92C45.2 10.0267 45.28 10.16 45.28 10.32C45.28 10.48 45.1867 10.6133 45 10.72C44.84 10.8267 44.6267 10.8667 44.36 10.84C43.72 10.7867 43.2533 10.76 42.96 10.76C42.16 10.76 41.52 10.8933 41.04 11.16C40.56 11.4 40.24 11.8267 40.08 12.44C40 12.7867 39.96 13.5467 39.96 14.72C39.96 17.36 40.12 21.0667 40.44 25.84C40.7867 30.6133 41.0667 33.4267 41.28 34.28C41.44 34.8933 41.76 35.3333 42.24 35.6C42.72 35.84 43.36 35.96 44.16 35.96C44.4533 35.96 44.92 35.9333 45.56 35.88H45.72C45.96 35.88 46.1467 35.9333 46.28 36.04C46.4133 36.1467 46.48 36.28 46.48 36.44C46.48 36.5733 46.4 36.6933 46.24 36.8C46.1067 36.9067 45.9067 36.96 45.64 36.96H33.4C33.1333 36.96 32.92 36.9067 32.76 36.8C32.6267 36.6933 32.56 36.56 32.56 36.4C32.56 36.24 32.64 36.1067 32.8 36C32.9867 35.8933 33.2133 35.8533 33.48 35.88C34.12 35.9333 34.5867 35.96 34.88 35.96C35.68 35.96 36.32 35.84 36.8 35.6C37.28 35.3333 37.6 34.8933 37.76 34.28C37.84 33.9067 37.88 33.2267 37.88 32.24C37.88 30.32 37.6667 25.92 37.24 19.04L37 15.52C36.9733 15.2 36.8667 15.04 36.68 15.04C36.5467 15.04 36.4133 15.16 36.28 15.4L28.48 33.6C28.32 33.9733 28.1333 34.2667 27.92 34.48C27.7333 34.6933 27.5467 34.8 27.36 34.8C26.9867 34.8 26.6533 34.4667 26.36 33.8L19.72 17.56C19.6133 17.32 19.48 17.2 19.32 17.2C19.16 17.2 19.0533 17.36 19 17.68C18.7867 20.2133 18.6 22.8667 18.44 25.64C18.28 28.3867 18.2 30.56 18.2 32.16C18.2 33.2 18.24 33.9067 18.32 34.28C18.48 34.8933 18.8 35.3333 19.28 35.6C19.76 35.84 20.4 35.96 21.2 35.96C21.4933 35.96 21.96 35.9333 22.6 35.88H22.76C23 35.88 23.1867 35.9333 23.32 36.04C23.4533 36.1467 23.52 36.28 23.52 36.44C23.52 36.5733 23.44 36.6933 23.28 36.8C23.1467 36.9067 22.9467 36.96 22.68 36.96H11.64ZM57.7456 21.8C58.0123 21.8 58.2123 21.8533 58.3456 21.96C58.5056 22.0667 58.5856 22.2 58.5856 22.36C58.5856 22.5467 58.5056 22.6933 58.3456 22.8C58.1856 22.9067 57.959 22.9333 57.6656 22.88C57.559 22.8533 57.4256 22.84 57.2656 22.84C56.7323 22.84 56.4656 23.16 56.4656 23.8C56.4656 24.2533 56.6123 24.8933 56.9056 25.72C57.199 26.52 57.679 27.7333 58.3456 29.36L59.5856 32.44C59.6923 32.7067 59.8256 32.84 59.9856 32.84C60.1723 32.84 60.3056 32.72 60.3856 32.48C61.239 30.3733 61.959 28.4933 62.5456 26.84C63.1323 25.16 63.4123 24.1467 63.3856 23.8C63.3856 23.4267 63.2656 23.1867 63.0256 23.08C62.8123 22.9467 62.479 22.9067 62.0256 22.96H61.8256C61.6123 22.96 61.439 22.9067 61.3056 22.8C61.1723 22.6933 61.1056 22.5733 61.1056 22.44C61.1056 22.28 61.1723 22.1467 61.3056 22.04C61.4656 21.9333 61.679 21.88 61.9456 21.88H66.5856C66.8523 21.88 67.0523 21.9333 67.1856 22.04C67.3456 22.12 67.4256 22.24 67.4256 22.4C67.4256 22.56 67.3456 22.7067 67.1856 22.84C67.0256 22.9467 66.799 22.9867 66.5056 22.96C66.2656 22.9333 66.0656 23 65.9056 23.16C65.7456 23.2933 65.5456 23.5333 65.3056 23.88C65.0923 24.2 64.6256 25.2267 63.9056 26.96C63.2123 28.6933 62.719 29.9333 62.4256 30.68C60.9856 34.3067 59.959 36.8267 59.3456 38.24C58.9456 39.0667 58.4256 39.9067 57.7856 40.76C57.1456 41.6133 56.5323 42.1333 55.9456 42.32C55.4923 42.4533 55.1456 42.52 54.9056 42.52C54.4523 42.52 54.0923 42.4 53.8256 42.16C53.5856 41.9467 53.4656 41.6933 53.4656 41.4C53.4656 41.08 53.6123 40.8 53.9056 40.56C54.199 40.32 54.6123 40.2 55.1456 40.2C55.6256 40.2 56.1323 39.9733 56.6656 39.52C57.2256 39.0933 57.679 38.5333 58.0256 37.84L58.4656 36.92C58.5456 36.76 58.5856 36.6 58.5856 36.44C58.5856 36.36 58.559 36.24 58.5056 36.08L56.6256 31.44C55.959 29.76 55.3323 28.24 54.7456 26.88C54.1856 25.52 53.7323 24.56 53.3856 24C52.879 23.2267 52.4123 22.8533 51.9856 22.88H51.9456C51.679 22.88 51.4656 22.8267 51.3056 22.72C51.1456 22.6133 51.0656 22.48 51.0656 22.32C51.0656 22.16 51.1323 22.04 51.2656 21.96C51.4256 21.8533 51.639 21.8 51.9056 21.8H57.7456ZM84.665 36.96C84.3983 36.96 84.185 36.9067 84.025 36.8C83.8917 36.6933 83.825 36.56 83.825 36.4C83.825 36.24 83.905 36.1067 84.065 36C84.2517 35.8933 84.4783 35.8533 84.745 35.88C85.385 35.9333 85.8517 35.96 86.145 35.96C86.945 35.96 87.585 35.84 88.065 35.6C88.545 35.3333 88.865 34.8933 89.025 34.28C89.265 33.32 89.385 29.68 89.385 23.36C89.385 17.04 89.265 13.4 89.025 12.44C88.865 11.8267 88.545 11.4 88.065 11.16C87.585 10.8933 86.945 10.76 86.145 10.76C85.8517 10.76 85.385 10.7867 84.745 10.84H84.585C84.345 10.84 84.1583 10.7867 84.025 10.68C83.8917 10.5733 83.825 10.44 83.825 10.28C83.825 10.1467 83.8917 10.0267 84.025 9.92C84.185 9.81333 84.3983 9.76 84.665 9.76H96.905C97.1717 9.76 97.3717 9.81333 97.505 9.92C97.665 10.0267 97.745 10.16 97.745 10.32C97.745 10.48 97.6517 10.6133 97.465 10.72C97.305 10.8267 97.0917 10.8667 96.825 10.84C96.185 10.7867 95.7183 10.76 95.425 10.76C94.625 10.76 93.985 10.8933 93.505 11.16C93.025 11.4 92.705 11.8267 92.545 12.44C92.305 13.4267 92.185 16.5333 92.185 21.76C92.185 22.4533 92.5183 22.8 93.185 22.8H104.785C105.452 22.8 105.785 22.4533 105.785 21.76C105.785 16.5333 105.665 13.4267 105.425 12.44C105.265 11.8267 104.945 11.4 104.465 11.16C103.985 10.8933 103.345 10.76 102.545 10.76C102.252 10.76 101.785 10.7867 101.145 10.84H100.985C100.745 10.84 100.558 10.7867 100.425 10.68C100.292 10.5733 100.225 10.44 100.225 10.28C100.225 10.1467 100.292 10.0267 100.425 9.92C100.585 9.81333 100.798 9.76 101.065 9.76H113.305C113.572 9.76 113.772 9.81333 113.905 9.92C114.065 10.0267 114.145 10.16 114.145 10.32C114.145 10.48 114.052 10.6133 113.865 10.72C113.705 10.8267 113.492 10.8667 113.225 10.84C112.585 10.7867 112.118 10.76 111.825 10.76C111.025 10.76 110.385 10.8933 109.905 11.16C109.425 11.4 109.105 11.8267 108.945 12.44C108.705 13.4 108.585 17.04 108.585 23.36C108.585 29.68 108.705 33.32 108.945 34.28C109.105 34.8933 109.425 35.3333 109.905 35.6C110.385 35.84 111.025 35.96 111.825 35.96C112.118 35.96 112.585 35.9333 113.225 35.88H113.385C113.625 35.88 113.812 35.9333 113.945 36.04C114.078 36.1467 114.145 36.28 114.145 36.44C114.145 36.5733 114.065 36.6933 113.905 36.8C113.772 36.9067 113.572 36.96 113.305 36.96H101.065C100.798 36.96 100.585 36.9067 100.425 36.8C100.292 36.6933 100.225 36.56 100.225 36.4C100.225 36.24 100.305 36.1067 100.465 36C100.652 35.8933 100.878 35.8533 101.145 35.88C101.785 35.9333 102.252 35.96 102.545 35.96C103.345 35.96 103.985 35.84 104.465 35.6C104.945 35.3333 105.265 34.8933 105.425 34.28C105.665 33.32 105.785 30.2667 105.785 25.12C105.785 24.4267 105.452 24.08 104.785 24.08H93.185C92.5183 24.08 92.185 24.4267 92.185 25.12C92.185 30.2667 92.305 33.32 92.545 34.28C92.705 34.8933 93.025 35.3333 93.505 35.6C93.985 35.84 94.625 35.96 95.425 35.96C95.7183 35.96 96.185 35.9333 96.825 35.88H96.985C97.225 35.88 97.4117 35.9333 97.545 36.04C97.6783 36.1467 97.745 36.28 97.745 36.44C97.745 36.5733 97.665 36.6933 97.505 36.8C97.3717 36.9067 97.1717 36.96 96.905 36.96H84.665ZM125.187 37C123.907 37 122.68 36.72 121.507 36.16C120.334 35.6 119.374 34.7467 118.627 33.6C117.907 32.4533 117.547 31.0667 117.547 29.44C117.547 27.7867 117.92 26.3867 118.667 25.24C119.414 24.0933 120.36 23.24 121.507 22.68C122.68 22.0933 123.907 21.8 125.187 21.8C126.467 21.8 127.694 22.0933 128.867 22.68C130.04 23.24 131 24.0933 131.747 25.24C132.494 26.3867 132.867 27.7867 132.867 29.44C132.867 31.0667 132.494 32.4533 131.747 33.6C131 34.7467 130.04 35.6 128.867 36.16C127.694 36.72 126.467 37 125.187 37ZM125.187 35.96C126.574 35.96 127.68 35.36 128.507 34.16C129.334 32.96 129.747 31.3733 129.747 29.4C129.747 27.4533 129.32 25.88 128.467 24.68C127.64 23.4533 126.547 22.84 125.187 22.84C123.827 22.84 122.72 23.4533 121.867 24.68C121.04 25.88 120.627 27.4533 120.627 29.4C120.627 31.3467 121.04 32.9333 121.867 34.16C122.72 35.36 123.827 35.96 125.187 35.96ZM138.261 24.32C138.261 24.2133 138.328 24.1067 138.461 24C138.621 23.8667 138.834 23.7733 139.101 23.72C139.928 23.5067 140.781 23.0667 141.661 22.4C141.768 22.3467 141.954 22.24 142.221 22.08C142.488 21.8933 142.701 21.8 142.861 21.8C143.234 21.8 143.421 21.96 143.421 22.28C143.421 22.5733 143.408 22.84 143.381 23.08C143.381 23.2667 143.421 23.3867 143.501 23.44C143.608 23.4667 143.728 23.4267 143.861 23.32C144.954 22.3067 146.114 21.8 147.341 21.8C148.194 21.8 149.021 22.0533 149.821 22.56C150.621 23.04 151.288 23.7467 151.821 24.68C151.981 24.9467 152.141 24.96 152.301 24.72C152.728 24.0267 153.394 23.3733 154.301 22.76C155.208 22.12 156.128 21.8 157.061 21.8C157.941 21.8 158.794 22.0667 159.621 22.6C160.474 23.1333 161.168 23.96 161.701 25.08C162.261 26.1733 162.541 27.5333 162.541 29.16L162.501 32.76C162.501 33.8267 162.594 34.6267 162.781 35.16C162.968 35.6667 163.341 35.92 163.901 35.92C164.114 35.92 164.274 35.9067 164.381 35.88L164.621 35.84C164.834 35.84 164.994 35.8933 165.101 36C165.234 36.1067 165.301 36.24 165.301 36.4C165.301 36.56 165.221 36.6933 165.061 36.8C164.928 36.9067 164.728 36.96 164.461 36.96H157.821C157.554 36.96 157.341 36.9067 157.181 36.8C157.048 36.6933 156.981 36.56 156.981 36.4C156.981 36.2133 157.061 36.0667 157.221 35.96C157.381 35.8533 157.608 35.8267 157.901 35.88C158.674 36.0133 159.168 35.72 159.381 35C159.621 34.2533 159.741 33.1067 159.741 31.56V29.4C159.741 28.28 159.554 27.28 159.181 26.4C158.834 25.52 158.368 24.84 157.781 24.36C157.221 23.88 156.648 23.64 156.061 23.64C154.994 23.64 154.181 24.2133 153.621 25.36C153.088 26.48 152.821 27.7467 152.821 29.16L152.781 32.76C152.781 33.8267 152.874 34.6267 153.061 35.16C153.248 35.6667 153.621 35.92 154.181 35.92C154.394 35.92 154.554 35.9067 154.661 35.88L154.901 35.84C155.114 35.84 155.274 35.8933 155.381 36C155.514 36.1067 155.581 36.24 155.581 36.4C155.581 36.56 155.501 36.6933 155.341 36.8C155.208 36.9067 155.008 36.96 154.741 36.96H148.101C147.834 36.96 147.621 36.9067 147.461 36.8C147.328 36.6933 147.261 36.56 147.261 36.4C147.261 36.2133 147.341 36.0667 147.501 35.96C147.661 35.8533 147.888 35.8267 148.181 35.88C148.954 36.0133 149.448 35.72 149.661 35C149.901 34.2533 150.021 33.1067 150.021 31.56V29.4C150.021 28.28 149.834 27.28 149.461 26.4C149.114 25.52 148.648 24.84 148.061 24.36C147.501 23.88 146.928 23.64 146.341 23.64C145.754 23.64 145.208 23.88 144.701 24.36C144.221 24.8133 143.834 25.3733 143.541 26.04C143.274 26.7067 143.141 27.2933 143.141 27.8C143.114 28.4667 143.101 29.3733 143.101 30.52C143.101 32.1733 143.168 33.5333 143.301 34.6C143.381 35.0533 143.528 35.3867 143.741 35.6C143.954 35.8133 144.261 35.92 144.661 35.92C144.848 35.92 145.008 35.9067 145.141 35.88L145.381 35.84C145.594 35.84 145.754 35.8933 145.861 36C145.994 36.1067 146.061 36.24 146.061 36.4C146.061 36.56 145.981 36.6933 145.821 36.8C145.688 36.9067 145.488 36.96 145.221 36.96H138.701C138.434 36.96 138.221 36.9067 138.061 36.8C137.928 36.6933 137.861 36.56 137.861 36.4C137.861 36.2133 137.941 36.0667 138.101 35.96C138.261 35.8533 138.488 35.8267 138.781 35.88C139.581 36.04 140.114 35.6133 140.381 34.6C140.541 34.0133 140.621 33.1067 140.621 31.88C140.621 31 140.608 30.32 140.581 29.84L140.541 27.16C140.541 26.44 140.421 25.8667 140.181 25.44C139.968 24.9867 139.608 24.76 139.101 24.76C138.834 24.76 138.621 24.72 138.461 24.64C138.328 24.56 138.261 24.4533 138.261 24.32ZM170.303 29.44C170.303 27.8133 170.663 26.4267 171.383 25.28C172.103 24.1067 173.023 23.24 174.143 22.68C175.263 22.0933 176.396 21.8 177.543 21.8C179.223 21.8 180.636 22.24 181.783 23.12C182.93 23.9733 183.503 25.1467 183.503 26.64C183.503 27.2 183.383 27.64 183.143 27.96C182.93 28.28 182.663 28.44 182.343 28.44L173.823 28.4C173.423 28.4 173.223 28.5867 173.223 28.96C173.223 30.7733 173.663 32.3333 174.543 33.64C175.423 34.92 176.623 35.56 178.143 35.56C179.263 35.56 180.236 35.3067 181.063 34.8C181.89 34.2933 182.49 33.7067 182.863 33.04C183.05 32.72 183.263 32.56 183.503 32.56C183.77 32.56 183.903 32.7333 183.903 33.08C183.903 33.3467 183.823 33.5733 183.663 33.76C182.916 34.8533 182.09 35.6667 181.183 36.2C180.276 36.7333 179.13 37 177.743 37C176.463 37 175.25 36.72 174.103 36.16C172.983 35.6 172.063 34.7467 171.343 33.6C170.65 32.4533 170.303 31.0667 170.303 29.44ZM173.543 26.76C173.516 26.8133 173.503 26.88 173.503 26.96C173.503 27.28 173.69 27.44 174.063 27.44L179.543 27.4C180.023 27.4 180.33 27.2933 180.463 27.08C180.596 26.84 180.663 26.5467 180.663 26.2C180.663 25.2133 180.37 24.4133 179.783 23.8C179.223 23.16 178.476 22.84 177.543 22.84C176.636 22.84 175.823 23.1733 175.103 23.84C174.41 24.5067 173.89 25.48 173.543 26.76Z" fill="#EDE1DE"/>
<path d="M54 54C55.2207 53.9566 56.3441 53.8017 57.5584 53.4753C62.395 52.1752 67.1902 50.502 72 49" stroke="#EDE1DE" stroke-linecap="round"/>
<path d="M47.2344 74.0469C47.2344 73.4531 47.3594 72.8281 47.6094 72.1719C47.8906 71.5156 48.3125 71.0469 48.875 70.7656C48.75 71.7344 48.7969 72.6875 49.0156 73.625C49.2656 74.5625 49.6562 75.3906 50.1875 76.1094C50.7188 76.8281 51.4062 77.4062 52.25 77.8438C53.0938 78.25 54.0625 78.4531 55.1562 78.4531C56.5 78.4531 57.6562 78.125 58.625 77.4688C59.625 76.7812 60.4531 75.9375 61.1094 74.9375C61.7656 73.9062 62.25 72.7812 62.5625 71.5625C62.875 70.3125 63.0312 69.1094 63.0312 67.9531V66.9688L60.2656 51.7344C60.2344 51.6094 60.2031 51.4219 60.1719 51.1719C60.1719 50.9219 60.2188 50.6875 60.3125 50.4688C60.4375 50.2188 60.6094 50.0469 60.8281 49.9531C61.0781 49.8594 61.4531 49.9062 61.9531 50.0938C61.9531 50.1562 62.0156 50.4688 62.1406 51.0312C62.2969 51.5625 62.4531 52.2656 62.6094 53.1406C62.7969 53.9844 62.9844 54.9375 63.1719 56C63.3906 57.0625 63.5938 58.1406 63.7812 59.2344C63.9688 60.2969 64.1406 61.3281 64.2969 62.3281C64.4531 63.2969 64.5781 64.125 64.6719 64.8125C64.8281 66.4688 64.7812 68.1875 64.5312 69.9688C64.2812 71.75 63.7812 73.3906 63.0312 74.8906C62.2812 76.3906 61.2188 77.625 59.8438 78.5938C58.5 79.5625 56.8125 80.0469 54.7812 80.0469C54.0312 80.0469 53.2031 79.8906 52.2969 79.5781C51.4219 79.2656 50.6094 78.8438 49.8594 78.3125C49.1406 77.7812 48.5156 77.1562 47.9844 76.4375C47.4844 75.6875 47.2344 74.8906 47.2344 74.0469ZM71.7388 80C71.145 80.2188 70.5981 80.1719 70.0981 79.8594C69.6294 79.5156 69.2075 79.0156 68.8325 78.3594C68.4575 77.6719 68.1294 76.9062 67.8481 76.0625C67.5669 75.1875 67.3481 74.3281 67.1919 73.4844C67.0356 72.6406 66.9263 71.875 66.8638 71.1875C66.8325 70.5 66.8481 70 66.9106 69.6875C66.9106 69.375 66.9263 68.8906 66.9575 68.2344C66.9888 67.5781 67.02 66.8438 67.0513 66.0312C67.0825 65.1875 67.1138 64.3281 67.145 63.4531C67.2075 62.5469 67.2544 61.6719 67.2856 60.8281C67.3169 59.9844 67.3481 59.25 67.3794 58.625C67.4106 57.9688 67.4263 57.4844 67.4263 57.1719C67.4888 57.1719 67.5356 57.1562 67.5669 57.125L67.7075 57.0781C68.02 57.0781 68.2856 57.2188 68.5044 57.5C68.7231 57.7812 68.9106 58.0469 69.0669 58.2969C69.0669 58.7344 69.0513 59.5156 69.02 60.6406C69.02 61.7656 69.02 62.9688 69.02 64.25C69.02 65.5312 69.02 66.75 69.02 67.9062C69.0513 69.0312 69.0669 69.8125 69.0669 70.25C69.0981 70.625 69.1606 71.2188 69.2544 72.0312C69.3794 72.8125 69.5356 73.625 69.7231 74.4688C69.9106 75.2812 70.1606 76.0312 70.4731 76.7188C70.8169 77.375 71.2388 77.75 71.7388 77.8438C73.0513 77.8438 74.145 77.3594 75.02 76.3906C75.9263 75.4219 76.6763 74.2031 77.27 72.7344C77.8638 71.2656 78.3325 69.6875 78.6763 68C79.0513 66.2812 79.3638 64.6719 79.6138 63.1719C79.8638 61.6719 80.0825 60.4219 80.27 59.4219C80.4888 58.3906 80.7388 57.8281 81.02 57.7344L82.145 57.9688L84.77 76.1094C84.9575 76.2031 85.1138 76.3438 85.2388 76.5312C85.3638 76.7188 85.4731 76.9219 85.5669 77.1406C85.6919 77.3594 85.77 77.5781 85.8013 77.7969C85.8638 78.0156 85.895 78.1719 85.895 78.2656C85.8325 78.4844 85.645 78.7188 85.3325 78.9688C85.02 79.2188 84.7544 79.3594 84.5356 79.3906H84.3481C84.3169 79.3906 84.2856 79.3906 84.2544 79.3906C84.1919 79.2969 84.0981 79.1562 83.9731 78.9688C83.8794 78.75 83.77 78.5312 83.645 78.3125C83.52 78.0938 83.4106 77.875 83.3169 77.6562C83.2544 77.4062 83.2075 77.25 83.1763 77.1875C83.0825 76.875 82.9731 76.3906 82.8481 75.7344C82.7544 75.0781 82.6606 74.3594 82.5669 73.5781C82.4731 72.7656 82.3794 71.9219 82.2856 71.0469C82.2231 70.1406 82.145 69.2812 82.0513 68.4688C81.9888 67.625 81.9106 66.8906 81.8169 66.2656C81.7544 65.6094 81.6763 65.125 81.5825 64.8125C81.4263 65.5312 81.2075 66.3906 80.9263 67.3906C80.645 68.3594 80.2856 69.3906 79.8481 70.4844C79.4419 71.5781 78.9731 72.6562 78.4419 73.7188C77.9106 74.75 77.3013 75.7188 76.6138 76.625C75.9575 77.5 75.2231 78.25 74.4106 78.875C73.5981 79.4688 72.7075 79.8438 71.7388 80ZM87.3838 62.5625C87.3838 62.375 87.3838 62.1562 87.3838 61.9062C87.415 61.6562 87.4463 61.4219 87.4775 61.2031C87.54 60.9531 87.6494 60.75 87.8056 60.5938C87.9619 60.4375 88.1806 60.3594 88.4619 60.3594C88.5244 60.3594 88.6181 60.375 88.7431 60.4062C88.8994 60.4062 89.0088 60.4062 89.0713 60.4062C89.1025 62.625 89.2119 64.9062 89.3994 67.25C89.6181 69.5938 90.04 71.8594 90.665 74.0469C90.6963 73.7031 90.7744 73.125 90.8994 72.3125C91.0556 71.4688 91.2119 70.5938 91.3681 69.6875C91.5556 68.75 91.7275 67.875 91.8838 67.0625C92.0713 66.25 92.1963 65.6719 92.2588 65.3281C92.4775 64.6719 92.7744 64 93.1494 63.3125C93.5244 62.5938 93.9775 61.9375 94.5088 61.3438C95.0713 60.75 95.6806 60.2656 96.3369 59.8906C97.0244 59.5156 97.7431 59.3281 98.4931 59.3281C99.7431 59.3281 100.853 59.6094 101.821 60.1719C102.79 60.7344 103.649 61.4844 104.399 62.4219C105.181 63.3281 105.837 64.375 106.368 65.5625C106.899 66.7188 107.337 67.9062 107.681 69.125C108.024 70.3438 108.274 71.5156 108.431 72.6406C108.587 73.7656 108.665 74.7656 108.665 75.6406V76.2031C108.665 76.3906 108.634 76.5781 108.571 76.7656C108.54 76.9219 108.462 77.0625 108.337 77.1875C108.243 77.2812 108.056 77.3281 107.774 77.3281C107.462 77.3281 107.196 77.1406 106.978 76.7656C106.946 75.9844 106.853 75.0781 106.696 74.0469C106.571 73.0156 106.384 71.9375 106.134 70.8125C105.915 69.6562 105.603 68.5312 105.196 67.4375C104.821 66.3125 104.337 65.3125 103.743 64.4375C103.181 63.5625 102.509 62.8594 101.728 62.3281C100.946 61.7656 100.009 61.4844 98.915 61.4844C98.04 61.4844 97.2744 61.6406 96.6181 61.9531C95.9931 62.2656 95.4619 62.7031 95.0244 63.2656C94.5869 63.7969 94.2275 64.4375 93.9463 65.1875C93.6963 65.9062 93.5088 66.6875 93.3838 67.5312C93.29 67.9688 93.165 68.75 93.0088 69.875C92.8525 71 92.6806 72.2031 92.4931 73.4844C92.3056 74.7656 92.1338 75.9688 91.9775 77.0938C91.8525 78.2188 91.7744 79 91.7431 79.4375C91.6494 79.75 91.4775 79.9375 91.2275 80C91.0088 80.0625 90.7744 80.0938 90.5244 80.0938C90.4931 80.0938 90.415 80.0781 90.29 80.0469C90.165 80.0469 90.1025 80.0312 90.1025 80L87.4306 63.7344C87.4306 63.6719 87.415 63.5 87.3838 63.2188C87.3838 62.9375 87.3838 62.7188 87.3838 62.5625ZM115.544 97.9531C115.544 97.6719 115.56 97.375 115.591 97.0625C115.654 96.7812 115.747 96.5938 115.872 96.5C116.029 96.4375 116.201 96.5312 116.388 96.7812C116.607 97.0312 116.872 97.5469 117.185 98.3281C118.185 98.3281 119.091 98.1094 119.904 97.6719C120.747 97.2656 121.497 96.7031 122.154 95.9844C122.81 95.2656 123.357 94.4375 123.794 93.5C124.263 92.5625 124.654 91.5938 124.966 90.5938C125.279 89.5938 125.497 88.5938 125.622 87.5938C125.779 86.625 125.857 85.7188 125.857 84.875C125.857 81.625 125.544 78.3125 124.919 74.9375C124.294 71.5312 123.341 68.3281 122.06 65.3281C121.435 66.7031 120.888 68.125 120.419 69.5938C119.951 71.0625 119.388 72.4844 118.732 73.8594C118.076 75.2031 117.263 76.4219 116.294 77.5156C115.357 78.5781 114.091 79.4219 112.497 80.0469C111.935 80.0469 111.482 79.9062 111.138 79.625C110.826 79.3125 110.576 78.9375 110.388 78.5C110.232 78.0625 110.138 77.6094 110.107 77.1406C110.076 76.6406 110.06 76.1719 110.06 75.7344C110.06 75.0469 110.138 74.1406 110.294 73.0156C110.482 71.8594 110.763 70.625 111.138 69.3125C111.513 68 111.951 66.6875 112.451 65.375C112.982 64.0625 113.591 62.875 114.279 61.8125C114.966 60.75 115.732 59.8906 116.576 59.2344C117.419 58.5781 118.341 58.25 119.341 58.25C119.654 58.25 119.966 58.3281 120.279 58.4844C120.591 58.6406 120.904 58.8125 121.216 59L122.154 59.5625C122.466 59.7188 122.794 59.8438 123.138 59.9375C123.232 60.3438 123.388 61.0156 123.607 61.9531C123.826 62.8906 124.06 63.9531 124.31 65.1406C124.56 66.2969 124.81 67.5312 125.06 68.8438C125.341 70.1562 125.607 71.4062 125.857 72.5938C126.107 73.75 126.326 74.8125 126.513 75.7812C126.732 76.7188 126.872 77.4062 126.935 77.8438C126.966 78.0625 127.013 78.4375 127.076 78.9688C127.169 79.4688 127.232 80 127.263 80.5625C127.326 81.1562 127.372 81.7031 127.404 82.2031C127.466 82.7031 127.497 83.0469 127.497 83.2344C127.497 84.1406 127.435 85.2031 127.31 86.4219C127.185 87.6406 126.966 88.8906 126.654 90.1719C126.341 91.4531 125.935 92.7188 125.435 93.9688C124.935 95.2188 124.31 96.3438 123.56 97.3438C122.81 98.3438 121.919 99.1406 120.888 99.7344C119.888 100.359 118.732 100.672 117.419 100.672C116.669 100.672 116.169 100.391 115.919 99.8281C115.669 99.2656 115.544 98.6406 115.544 97.9531ZM111.654 75.3125V76.1094C111.654 76.3906 111.685 76.6719 111.747 76.9531C111.81 77.2031 111.919 77.4375 112.076 77.6562C112.232 77.8438 112.482 77.9375 112.826 77.9375C113.388 77.9062 113.951 77.5938 114.513 77C115.107 76.4062 115.638 75.7188 116.107 74.9375C116.607 74.1562 117.044 73.375 117.419 72.5938C117.826 71.7812 118.107 71.1719 118.263 70.7656C118.388 70.4844 118.576 69.9531 118.826 69.1719C119.107 68.3906 119.388 67.5781 119.669 66.7344C119.951 65.8594 120.216 65.0312 120.466 64.25C120.716 63.4375 120.888 62.875 120.982 62.5625V62.3281C120.982 62.0781 120.872 61.8594 120.654 61.6719C120.466 61.4844 120.232 61.3438 119.951 61.25C119.701 61.1562 119.435 61.0781 119.154 61.0156C118.872 60.9531 118.638 60.9219 118.451 60.9219C117.763 60.9219 117.107 61.25 116.482 61.9062C115.888 62.5625 115.341 63.3906 114.841 64.3906C114.341 65.3906 113.888 66.4844 113.482 67.6719C113.107 68.8281 112.779 69.9531 112.497 71.0469C112.216 72.1094 111.997 73.0469 111.841 73.8594C111.716 74.6406 111.654 75.125 111.654 75.3125ZM131.002 78.9219C130.971 78.1094 130.893 76.8594 130.768 75.1719C130.643 73.4531 130.502 71.5312 130.346 69.4062C130.221 67.25 130.08 65 129.924 62.6562C129.799 60.2812 129.658 58.0156 129.502 55.8594C129.377 53.7031 129.236 51.7812 129.08 50.0938C128.955 48.375 128.877 47.1094 128.846 46.2969V45.6875C128.846 44.9688 129.205 44.6094 129.924 44.6094C129.986 44.6094 130.08 44.625 130.205 44.6562C130.33 44.6562 130.424 44.6562 130.486 44.6562C130.674 47.375 130.846 49.9844 131.002 52.4844C131.158 54.9844 131.314 57.4688 131.471 59.9375C131.627 62.4062 131.799 64.8906 131.986 67.3906C132.174 69.8594 132.393 72.4375 132.643 75.125C132.986 75.4688 133.174 75.875 133.205 76.3438C133.236 76.7812 133.252 77.2344 133.252 77.7031C133.252 77.9219 133.236 78.1719 133.205 78.4531C133.205 78.7031 133.158 78.9531 133.064 79.2031C132.971 79.4219 132.814 79.625 132.596 79.8125C132.408 79.9688 132.158 80.0469 131.846 80.0469C131.564 80.0469 131.361 79.9375 131.236 79.7188C131.143 79.5 131.064 79.2344 131.002 78.9219ZM136.194 69.125C135.475 69.5625 134.741 69.9062 133.991 70.1562C133.241 70.375 132.631 70.2188 132.162 69.6875C132.162 69.0938 132.366 68.7031 132.772 68.5156C133.178 68.2969 133.631 68.125 134.131 68C134.662 67.875 135.178 67.7188 135.678 67.5312C136.209 67.3438 136.569 66.9688 136.756 66.4062C136.944 65.7812 137.116 65.0312 137.272 64.1562C137.428 63.2812 137.647 62.4375 137.928 61.625C138.209 60.8125 138.616 60.1406 139.147 59.6094C139.678 59.0469 140.412 58.7656 141.35 58.7656C141.881 58.7656 142.537 58.9531 143.319 59.3281C144.131 59.6719 144.897 60.0938 145.616 60.5938C146.334 61.0938 146.944 61.625 147.444 62.1875C147.944 62.75 148.194 63.2656 148.194 63.7344C148.194 63.9531 148.162 64.1562 148.1 64.3438C148.069 64.5312 147.912 64.6875 147.631 64.8125L138.397 68L138.35 68.2344C138.35 68.3594 138.334 68.5312 138.303 68.75V69.3125C138.303 69.5312 138.303 69.6875 138.303 69.7812C138.303 70.4062 138.35 71.1875 138.444 72.125C138.537 73.0312 138.725 73.9219 139.006 74.7969C139.319 75.6406 139.741 76.375 140.272 77C140.803 77.625 141.522 77.9375 142.428 77.9375C142.772 77.9375 143.053 77.875 143.272 77.75C143.522 77.5938 143.756 77.4375 143.975 77.2812C144.225 77.0938 144.459 76.9375 144.678 76.8125C144.928 76.6562 145.209 76.5781 145.522 76.5781C145.522 77.0469 145.412 77.5 145.194 77.9375C145.006 78.3438 144.741 78.7031 144.397 79.0156C144.053 79.3281 143.662 79.5781 143.225 79.7656C142.787 79.9531 142.35 80.0469 141.912 80.0469C140.725 80.0469 139.772 79.6406 139.053 78.8281C138.334 77.9844 137.772 76.9844 137.366 75.8281C136.991 74.6406 136.725 73.4375 136.569 72.2188C136.412 70.9688 136.287 69.9375 136.194 69.125ZM141.912 60.8281C141.35 60.8281 140.866 60.9844 140.459 61.2969C140.084 61.6094 139.772 62 139.522 62.4688C139.272 62.9375 139.084 63.4531 138.959 64.0156C138.866 64.5469 138.819 65.0312 138.819 65.4688C139.319 65.4688 139.866 65.4375 140.459 65.375C141.084 65.3125 141.694 65.1875 142.287 65C142.881 64.8125 143.412 64.5781 143.881 64.2969C144.381 63.9844 144.725 63.6094 144.912 63.1719C144.444 62.4219 144.006 61.8438 143.6 61.4375C143.194 61.0312 142.631 60.8281 141.912 60.8281Z" fill="#EDE1DE"/>
</svg>
