<svg width="41" height="33" viewBox="0 0 41 33" fill="none" xmlns="http://www.w3.org/2000/svg">
<mask id="path-1-inside-1_1711_672" fill="white">
<path d="M40.18 0H0.82C0.602522 0 0.393952 0.0914943 0.240173 0.254355C0.0863928 0.417215 0 0.638101 0 0.868421V30.3947C0 31.0857 0.259178 31.7484 0.720517 32.2369C1.18186 32.7255 1.80757 33 2.46 33H38.54C39.1924 33 39.8181 32.7255 40.2795 32.2369C40.7408 31.7484 41 31.0857 41 30.3947V0.868421C41 0.638101 40.9136 0.417215 40.7598 0.254355C40.606 0.0914943 40.3975 0 40.18 0ZM38.0685 1.73684L20.5 18.8013L2.9315 1.73684H38.0685ZM38.54 31.2632H2.46C2.24252 31.2632 2.03395 31.1717 1.88017 31.0088C1.72639 30.8459 1.64 30.6251 1.64 30.3947V2.84408L19.9465 20.6033C20.0954 20.7545 20.2937 20.839 20.5 20.839C20.7063 20.839 20.9046 20.7545 21.0535 20.6033L39.36 2.84408V30.3947C39.36 30.6251 39.2736 30.8459 39.1198 31.0088C38.966 31.1717 38.7575 31.2632 38.54 31.2632Z"/>
</mask>
<path d="M40.18 0H0.82C0.602522 0 0.393952 0.0914943 0.240173 0.254355C0.0863928 0.417215 0 0.638101 0 0.868421V30.3947C0 31.0857 0.259178 31.7484 0.720517 32.2369C1.18186 32.7255 1.80757 33 2.46 33H38.54C39.1924 33 39.8181 32.7255 40.2795 32.2369C40.7408 31.7484 41 31.0857 41 30.3947V0.868421C41 0.638101 40.9136 0.417215 40.7598 0.254355C40.606 0.0914943 40.3975 0 40.18 0ZM38.0685 1.73684L20.5 18.8013L2.9315 1.73684H38.0685ZM38.54 31.2632H2.46C2.24252 31.2632 2.03395 31.1717 1.88017 31.0088C1.72639 30.8459 1.64 30.6251 1.64 30.3947V2.84408L19.9465 20.6033C20.0954 20.7545 20.2937 20.839 20.5 20.839C20.7063 20.839 20.9046 20.7545 21.0535 20.6033L39.36 2.84408V30.3947C39.36 30.6251 39.2736 30.8459 39.1198 31.0088C38.966 31.1717 38.7575 31.2632 38.54 31.2632Z" fill="#EEE4E2"/>
<path d="M38.0685 1.73684L39.462 3.17149L42.9981 -0.263158H38.0685V1.73684ZM20.5 18.8013L19.1065 20.236L20.5 21.5895L21.8935 20.236L20.5 18.8013ZM2.9315 1.73684V-0.263158H-1.99808L1.53802 3.17149L2.9315 1.73684ZM1.64 2.84408L3.03259 1.40857L-0.36 -1.8826V2.84408H1.64ZM19.9465 20.6033L21.3719 19.2004L21.3557 19.1839L21.3391 19.1678L19.9465 20.6033ZM20.5 20.839V18.839V20.839ZM21.0535 20.6033L19.6609 19.1678L19.6443 19.1839L19.6281 19.2004L21.0535 20.6033ZM39.36 2.84408H41.36V-1.8826L37.9674 1.40857L39.36 2.84408ZM40.18 -2H0.82V2H40.18V-2ZM0.82 -2C0.0338564 -2 -0.695167 -1.66821 -1.214 -1.11874L1.69435 1.62745C1.48307 1.8512 1.17119 2 0.82 2V-2ZM-1.214 -1.11874C-1.72916 -0.57316 -2 0.143511 -2 0.868421H2C2 1.13269 1.90194 1.40759 1.69435 1.62745L-1.214 -1.11874ZM-2 0.868421V30.3947H2V0.868421H-2ZM-2 30.3947C-2 31.5803 -1.55637 32.7387 -0.733656 33.61L2.17469 30.8638C2.07473 30.758 2 30.5911 2 30.3947H-2ZM-0.733656 33.61C0.0927343 34.4852 1.2389 35 2.46 35V31C2.37624 31 2.27098 30.9658 2.17469 30.8638L-0.733656 33.61ZM2.46 35H38.54V31H2.46V35ZM38.54 35C39.7611 35 40.9073 34.4852 41.7337 33.61L38.8253 30.8638C38.729 30.9658 38.6238 31 38.54 31V35ZM41.7337 33.61C42.5564 32.7387 43 31.5803 43 30.3947H39C39 30.5911 38.9253 30.758 38.8253 30.8638L41.7337 33.61ZM43 30.3947V0.868421H39V30.3947H43ZM43 0.868421C43 0.143506 42.7292 -0.573163 42.214 -1.11874L39.3057 1.62745C39.0981 1.40759 39 1.1327 39 0.868421H43ZM42.214 -1.11874C41.6952 -1.66821 40.9661 -2 40.18 -2V2C39.8288 2 39.5169 1.85119 39.3057 1.62745L42.214 -1.11874ZM36.675 0.302199L19.1065 17.3667L21.8935 20.236L39.462 3.17149L36.675 0.302199ZM21.8935 17.3667L4.32498 0.302199L1.53802 3.17149L19.1065 20.236L21.8935 17.3667ZM2.9315 3.73684H38.0685V-0.263158H2.9315V3.73684ZM38.54 29.2632H2.46V33.2632H38.54V29.2632ZM2.46 29.2632C2.81118 29.2632 3.12306 29.412 3.33435 29.6357L0.426 32.3819C0.944842 32.9314 1.67387 33.2632 2.46 33.2632V29.2632ZM3.33435 29.6357C3.54194 29.8556 3.64 30.1305 3.64 30.3947H-0.36C-0.36 31.1196 -0.0891586 31.8363 0.426 32.3819L3.33435 29.6357ZM3.64 30.3947V2.84408H-0.36V30.3947H3.64ZM0.247407 4.27959L18.5539 22.0388L21.3391 19.1678L3.03259 1.40857L0.247407 4.27959ZM18.5211 22.0062C19.0338 22.5271 19.7407 22.839 20.5 22.839V18.839C20.8467 18.839 21.157 18.982 21.3719 19.2004L18.5211 22.0062ZM20.5 22.839C21.2593 22.839 21.9662 22.5271 22.4789 22.0062L19.6281 19.2004C19.843 18.982 20.1533 18.839 20.5 18.839V22.839ZM22.4461 22.0388L40.7526 4.27959L37.9674 1.40857L19.6609 19.1678L22.4461 22.0388ZM37.36 2.84408V30.3947H41.36V2.84408H37.36ZM37.36 30.3947C37.36 30.1305 37.4581 29.8556 37.6657 29.6357L40.574 32.3819C41.0892 31.8363 41.36 31.1196 41.36 30.3947H37.36ZM37.6657 29.6357C37.8769 29.412 38.1888 29.2632 38.54 29.2632V33.2632C39.3261 33.2632 40.0552 32.9314 40.574 32.3819L37.6657 29.6357Z" fill="#EEE4E2" mask="url(#path-1-inside-1_1711_672)"/>
</svg>
