<svg width="41" height="36" viewBox="0 0 41 36" fill="none" xmlns="http://www.w3.org/2000/svg">
<mask id="path-1-inside-1_1584_621" fill="white">
<path d="M15.9964 6.36082e-07C13.2065 0.000427008 10.4653 0.684808 8.04471 1.98523C5.62411 3.28566 3.60828 5.15692 2.19724 7.41333C0.786203 9.66975 0.029018 12.2329 0.00081759 14.8484C-0.0273828 17.4639 0.674382 20.0408 2.03648 22.3235L0.656174 26.8382C0.54346 27.1916 0.534809 27.5669 0.631137 27.9245C0.727465 28.2821 0.925183 28.6086 1.20334 28.8694C1.48149 29.1301 1.82972 29.3155 2.21111 29.4058C2.5925 29.4961 2.99285 29.488 3.36973 29.3824L8.1851 28.0882C10.3188 29.2083 12.6979 29.8548 15.1397 29.9782C17.5814 30.1017 20.0209 29.6987 22.2707 28.8003C24.5204 27.9018 26.5205 26.5319 28.1174 24.7956C29.7143 23.0593 30.8655 21.0029 31.4824 18.7845C32.0994 16.566 32.1657 14.2445 31.6764 11.9982C31.187 9.75193 30.155 7.64072 28.6595 5.82677C27.1641 4.01281 25.2451 2.54439 23.0498 1.5343C20.8546 0.524207 18.4417 -0.000666978 15.9964 6.36082e-07ZM15.9964 28.2353C13.4626 28.2346 10.9758 27.5946 8.79683 26.3824C8.64704 26.3074 8.48034 26.2671 8.31059 26.2647C8.22571 26.2599 8.14063 26.2699 8.05962 26.2941L2.85211 27.6912C2.79761 27.7069 2.73956 27.7084 2.68421 27.6955C2.62886 27.6826 2.5783 27.6559 2.53797 27.6181C2.49764 27.5802 2.46907 27.5328 2.45533 27.4809C2.44159 27.4291 2.4432 27.3746 2.45998 27.3235L3.95008 22.4412C3.98526 22.326 3.99506 22.2053 3.97888 22.0865C3.9627 21.9677 3.92088 21.8532 3.85597 21.75C2.26748 19.2381 1.60965 16.3042 1.98493 13.4053C2.36022 10.5063 3.74756 7.80517 5.93086 5.7225C8.11415 3.63983 10.9708 2.2926 14.0558 1.89067C17.1409 1.48874 20.2811 2.05468 22.9873 3.50033C25.6936 4.94598 27.8139 7.19017 29.018 9.88332C30.2221 12.5765 30.4424 15.5674 29.6446 18.3902C28.8468 21.213 27.0756 23.7091 24.6071 25.4898C22.1385 27.2705 19.1111 28.2358 15.9964 28.2353ZM24.0743 17.4706L20.8588 15.75C20.5203 15.571 20.1373 15.4794 19.7488 15.4846C19.3602 15.4897 18.9801 15.5915 18.6472 15.7794L16.6395 16.9118C15.4984 16.3425 14.5645 15.4669 13.9573 14.3971L15.165 12.5147C15.3655 12.2026 15.474 11.8462 15.4795 11.4819C15.485 11.1176 15.3873 10.7585 15.1964 10.4412L13.3612 7.42647C13.1831 7.1371 12.9271 6.89657 12.6188 6.72885C12.3106 6.56114 11.9609 6.47209 11.6045 6.47059C10.1928 6.47058 8.83871 6.99535 7.83903 7.92985C6.83935 8.86436 6.27565 10.1324 6.2715 11.4559C6.26944 13.118 6.61683 14.7641 7.29381 16.3002C7.97079 17.8363 8.96408 19.2323 10.2169 20.4082C11.4697 21.5842 12.9574 22.517 14.5951 23.1535C16.2327 23.79 17.9881 24.1176 19.7608 24.1176H19.7765C21.1882 24.1138 22.5406 23.5853 23.5374 22.648C24.5341 21.7107 25.0938 20.4412 25.0938 19.1176C25.0922 18.7835 24.9972 18.4556 24.8184 18.1666C24.6395 17.8776 24.3829 17.6377 24.0743 17.4706ZM19.7765 22.3529H19.7608C16.681 22.349 13.7287 21.1992 11.5524 19.1561C9.37612 17.1129 8.15373 14.3434 8.15373 11.4559C8.15788 10.6004 8.52327 9.78124 9.16996 9.17768C9.81666 8.57413 10.692 8.23529 11.6045 8.23529C11.6528 8.23901 11.6978 8.26008 11.73 8.29412L13.5652 11.3088C13.5903 11.3548 13.6022 11.4062 13.5994 11.4579C13.5966 11.5095 13.5794 11.5595 13.5495 11.6029L12.0907 13.9118C12.0081 14.0306 11.9591 14.1671 11.9481 14.3086C11.9371 14.45 11.9646 14.5918 12.028 14.7206C12.8855 16.495 14.4018 17.9166 16.2944 18.7206C16.4317 18.78 16.5829 18.8058 16.7338 18.7955C16.8847 18.7852 17.0303 18.7392 17.1571 18.6618L19.6197 17.2941C19.666 17.266 19.7193 17.2499 19.7744 17.2473C19.8295 17.2447 19.8843 17.2558 19.9334 17.2794L23.1488 19C23.1852 19.0302 23.2076 19.0723 23.2116 19.1176C23.2116 19.9732 22.8502 20.7938 22.2064 21.4002C21.5627 22.0065 20.689 22.3491 19.7765 22.3529Z"/>
</mask>
<path d="M15.9964 6.36082e-07C13.2065 0.000427008 10.4653 0.684808 8.04471 1.98523C5.62411 3.28566 3.60828 5.15692 2.19724 7.41333C0.786203 9.66975 0.029018 12.2329 0.00081759 14.8484C-0.0273828 17.4639 0.674382 20.0408 2.03648 22.3235L0.656174 26.8382C0.54346 27.1916 0.534809 27.5669 0.631137 27.9245C0.727465 28.2821 0.925183 28.6086 1.20334 28.8694C1.48149 29.1301 1.82972 29.3155 2.21111 29.4058C2.5925 29.4961 2.99285 29.488 3.36973 29.3824L8.1851 28.0882C10.3188 29.2083 12.6979 29.8548 15.1397 29.9782C17.5814 30.1017 20.0209 29.6987 22.2707 28.8003C24.5204 27.9018 26.5205 26.5319 28.1174 24.7956C29.7143 23.0593 30.8655 21.0029 31.4824 18.7845C32.0994 16.566 32.1657 14.2445 31.6764 11.9982C31.187 9.75193 30.155 7.64072 28.6595 5.82677C27.1641 4.01281 25.2451 2.54439 23.0498 1.5343C20.8546 0.524207 18.4417 -0.000666978 15.9964 6.36082e-07ZM15.9964 28.2353C13.4626 28.2346 10.9758 27.5946 8.79683 26.3824C8.64704 26.3074 8.48034 26.2671 8.31059 26.2647C8.22571 26.2599 8.14063 26.2699 8.05962 26.2941L2.85211 27.6912C2.79761 27.7069 2.73956 27.7084 2.68421 27.6955C2.62886 27.6826 2.5783 27.6559 2.53797 27.6181C2.49764 27.5802 2.46907 27.5328 2.45533 27.4809C2.44159 27.4291 2.4432 27.3746 2.45998 27.3235L3.95008 22.4412C3.98526 22.326 3.99506 22.2053 3.97888 22.0865C3.9627 21.9677 3.92088 21.8532 3.85597 21.75C2.26748 19.2381 1.60965 16.3042 1.98493 13.4053C2.36022 10.5063 3.74756 7.80517 5.93086 5.7225C8.11415 3.63983 10.9708 2.2926 14.0558 1.89067C17.1409 1.48874 20.2811 2.05468 22.9873 3.50033C25.6936 4.94598 27.8139 7.19017 29.018 9.88332C30.2221 12.5765 30.4424 15.5674 29.6446 18.3902C28.8468 21.213 27.0756 23.7091 24.6071 25.4898C22.1385 27.2705 19.1111 28.2358 15.9964 28.2353ZM24.0743 17.4706L20.8588 15.75C20.5203 15.571 20.1373 15.4794 19.7488 15.4846C19.3602 15.4897 18.9801 15.5915 18.6472 15.7794L16.6395 16.9118C15.4984 16.3425 14.5645 15.4669 13.9573 14.3971L15.165 12.5147C15.3655 12.2026 15.474 11.8462 15.4795 11.4819C15.485 11.1176 15.3873 10.7585 15.1964 10.4412L13.3612 7.42647C13.1831 7.1371 12.9271 6.89657 12.6188 6.72885C12.3106 6.56114 11.9609 6.47209 11.6045 6.47059C10.1928 6.47058 8.83871 6.99535 7.83903 7.92985C6.83935 8.86436 6.27565 10.1324 6.2715 11.4559C6.26944 13.118 6.61683 14.7641 7.29381 16.3002C7.97079 17.8363 8.96408 19.2323 10.2169 20.4082C11.4697 21.5842 12.9574 22.517 14.5951 23.1535C16.2327 23.79 17.9881 24.1176 19.7608 24.1176H19.7765C21.1882 24.1138 22.5406 23.5853 23.5374 22.648C24.5341 21.7107 25.0938 20.4412 25.0938 19.1176C25.0922 18.7835 24.9972 18.4556 24.8184 18.1666C24.6395 17.8776 24.3829 17.6377 24.0743 17.4706ZM19.7765 22.3529H19.7608C16.681 22.349 13.7287 21.1992 11.5524 19.1561C9.37612 17.1129 8.15373 14.3434 8.15373 11.4559C8.15788 10.6004 8.52327 9.78124 9.16996 9.17768C9.81666 8.57413 10.692 8.23529 11.6045 8.23529C11.6528 8.23901 11.6978 8.26008 11.73 8.29412L13.5652 11.3088C13.5903 11.3548 13.6022 11.4062 13.5994 11.4579C13.5966 11.5095 13.5794 11.5595 13.5495 11.6029L12.0907 13.9118C12.0081 14.0306 11.9591 14.1671 11.9481 14.3086C11.9371 14.45 11.9646 14.5918 12.028 14.7206C12.8855 16.495 14.4018 17.9166 16.2944 18.7206C16.4317 18.78 16.5829 18.8058 16.7338 18.7955C16.8847 18.7852 17.0303 18.7392 17.1571 18.6618L19.6197 17.2941C19.666 17.266 19.7193 17.2499 19.7744 17.2473C19.8295 17.2447 19.8843 17.2558 19.9334 17.2794L23.1488 19C23.1852 19.0302 23.2076 19.0723 23.2116 19.1176C23.2116 19.9732 22.8502 20.7938 22.2064 21.4002C21.5627 22.0065 20.689 22.3491 19.7765 22.3529Z" fill="#EEE4E2"/>
<path d="M15.9964 6.36082e-07L15.9967 2L15.9969 2L15.9964 6.36082e-07ZM2.03648 22.3235L3.94908 22.9083L4.20836 22.0602L3.75396 21.2987L2.03648 22.3235ZM0.656174 26.8382L2.56158 27.446L2.56525 27.4345L2.56878 27.423L0.656174 26.8382ZM3.36973 29.3824L2.85065 27.4509L2.84018 27.4537L2.82975 27.4566L3.36973 29.3824ZM8.1851 28.0882L9.11467 26.3174L8.42177 25.9537L7.66603 26.1568L8.1851 28.0882ZM31.6764 11.9982L33.6305 11.5725L31.6764 11.9982ZM15.9964 28.2353L15.9958 30.2353H15.996L15.9964 28.2353ZM8.79683 26.3824L9.76913 24.6346L9.73087 24.6133L9.69171 24.5937L8.79683 26.3824ZM8.31059 26.2647L8.19827 28.2615L8.24041 28.2639L8.28262 28.2645L8.31059 26.2647ZM8.05962 26.2941L8.57785 28.2258L8.60524 28.2185L8.6324 28.2103L8.05962 26.2941ZM2.85211 27.6912L2.33388 25.7595L2.31559 25.7644L2.29739 25.7696L2.85211 27.6912ZM2.45998 27.3235L4.36013 27.9476L4.36671 27.9275L4.37287 27.9073L2.45998 27.3235ZM3.95008 22.4412L2.03733 21.8569L2.03719 21.8574L3.95008 22.4412ZM3.85597 21.75L5.54887 20.6851L5.54633 20.681L3.85597 21.75ZM24.0743 17.4706L25.0263 15.7117L25.0179 15.7072L24.0743 17.4706ZM20.8588 15.75L21.8024 13.9866L21.7938 13.982L20.8588 15.75ZM18.6472 15.7794L19.6297 17.5214L19.6304 17.5211L18.6472 15.7794ZM16.6395 16.9118L15.7466 18.7014L16.6969 19.1755L17.622 18.6538L16.6395 16.9118ZM13.9573 14.3971L12.274 13.317L11.6217 14.3337L12.2179 15.3843L13.9573 14.3971ZM15.165 12.5147L13.4822 11.434L13.4817 11.4347L15.165 12.5147ZM15.1964 10.4412L16.9102 9.41007L16.9048 9.40123L15.1964 10.4412ZM13.3612 7.42647L15.0696 6.38651L15.0643 6.37778L13.3612 7.42647ZM11.6045 6.47059L11.6129 4.47059H11.6045L11.6045 6.47059ZM6.2715 11.4559L4.27151 11.4496L4.2715 11.4534L6.2715 11.4559ZM19.7608 24.1176V22.1176V24.1176ZM19.7765 24.1176V26.1177L19.782 26.1176L19.7765 24.1176ZM25.0938 19.1176L27.0938 19.1176L27.0938 19.1081L25.0938 19.1176ZM19.7765 22.3529V24.353L19.785 24.3529L19.7765 22.3529ZM19.7608 22.3529L19.7583 24.3529H19.7608V22.3529ZM8.15373 11.4559L6.15373 11.4462V11.4559L8.15373 11.4559ZM11.6045 8.23529L11.7577 6.24117L11.6812 6.2353L11.6045 6.23529L11.6045 8.23529ZM11.73 8.29412L13.4383 7.25417L13.3285 7.07366L13.1833 6.9201L11.73 8.29412ZM13.5652 11.3088L15.3193 10.3481L15.2973 10.308L15.2735 10.2689L13.5652 11.3088ZM13.5495 11.6029L11.9034 10.467L11.8803 10.5004L11.8587 10.5347L13.5495 11.6029ZM12.0907 13.9118L13.733 15.0532L13.7581 15.0171L13.7815 14.98L12.0907 13.9118ZM12.028 14.7206L13.8287 13.8504L13.8256 13.8439L13.8224 13.8374L12.028 14.7206ZM16.2944 18.7206L17.0885 16.885L17.0763 16.8798L16.2944 18.7206ZM17.1571 18.6618L16.186 16.9133L16.1498 16.9334L16.1144 16.9551L17.1571 18.6618ZM19.6197 17.2941L20.5907 19.0426L20.6242 19.024L20.657 19.0041L19.6197 17.2941ZM19.9334 17.2794L20.877 15.516L20.8393 15.4959L20.8009 15.4774L19.9334 17.2794ZM23.1488 19L24.4272 17.4618L24.2712 17.3322L24.0924 17.2366L23.1488 19ZM23.2116 19.1176L25.2116 19.1176L25.2116 19.0304L25.204 18.9435L23.2116 19.1176ZM15.9961 -2C12.8813 -1.99952 9.81431 -1.2358 7.09819 0.223387L8.99123 3.74708C11.1163 2.60541 13.5318 2.00038 15.9967 2L15.9961 -2ZM7.09819 0.223387C4.38149 1.68288 2.10318 3.79165 0.501505 6.35291L3.89297 8.47375C5.11337 6.52219 6.86672 4.88843 8.99123 3.74708L7.09819 0.223387ZM0.501505 6.35291C-1.10089 8.91534 -1.96683 11.8369 -1.99907 14.8268L2.0007 14.8699C2.02487 12.6288 2.6733 10.4242 3.89297 8.47375L0.501505 6.35291ZM-1.99907 14.8268C-2.0313 17.8167 -1.22851 20.7549 0.319 23.3484L3.75396 21.2987C2.57728 19.3267 1.97654 17.111 2.0007 14.8699L-1.99907 14.8268ZM0.12387 21.7388L-1.25643 26.2535L2.56878 27.423L3.94908 22.9083L0.12387 21.7388ZM-1.24923 26.2304C-1.47843 26.9489 -1.49637 27.7159 -1.30002 28.4447L2.56229 27.4043C2.56386 27.4101 2.56492 27.4176 2.56473 27.4259C2.56454 27.4341 2.56315 27.4411 2.56158 27.446L-1.24923 26.2304ZM-1.30002 28.4447C-1.10395 29.1726 -0.705695 29.8211 -0.164592 30.3284L2.57127 27.4103C2.56355 27.4031 2.56041 27.3982 2.5598 27.3972C2.55922 27.3962 2.56075 27.3985 2.56229 27.4043L-1.30002 28.4447ZM-0.164592 30.3284C0.375567 30.8348 1.0391 31.1836 1.75026 31.352L2.67196 27.4596C2.62033 27.4474 2.58741 27.4255 2.57127 27.4103L-0.164592 30.3284ZM1.75026 31.352C2.46113 31.5203 3.20588 31.5054 3.9097 31.3081L2.82975 27.4566C2.77982 27.4706 2.72387 27.4719 2.67196 27.4596L1.75026 31.352ZM3.8888 31.3138L8.70418 30.0197L7.66603 26.1568L2.85065 27.4509L3.8888 31.3138ZM7.25554 29.8591C9.64956 31.1158 12.3119 31.8379 15.0387 31.9757L15.2406 27.9808C13.0838 27.8718 10.988 27.3007 9.11467 26.3174L7.25554 29.8591ZM15.0387 31.9757C17.7654 32.1135 20.4926 31.6639 23.0124 30.6576L21.5289 26.9429C19.5492 27.7335 17.3974 28.0898 15.2406 27.9808L15.0387 31.9757ZM23.0124 30.6576C25.5325 29.6512 27.7844 28.1122 29.5895 26.1495L26.6454 23.4417C25.2567 24.9515 23.5083 26.1524 21.5289 26.9429L23.0124 30.6576ZM29.5895 26.1495C31.3951 24.1862 32.7055 21.8513 33.4093 19.3203L29.5555 18.2486C29.0255 20.1546 28.0335 21.9324 26.6454 23.4417L29.5895 26.1495ZM33.4093 19.3203C34.1133 16.7889 34.1893 14.1372 33.6305 11.5725L29.7222 12.4239C30.1422 14.3517 30.0855 16.3431 29.5555 18.2486L33.4093 19.3203ZM33.6305 11.5725C33.0719 9.00816 31.8958 6.60821 30.2027 4.55455L27.1163 7.09899C28.4141 8.67323 29.3021 10.4957 29.7222 12.4239L33.6305 11.5725ZM30.2027 4.55455C28.5102 2.50148 26.3469 0.849839 23.8859 -0.28259L22.2138 3.35119C24.1432 4.23894 25.818 5.52415 27.1163 7.09899L30.2027 4.55455ZM23.8859 -0.28259C21.4251 -1.41488 18.7264 -2.00074 15.9958 -2L15.9969 2C18.157 1.99941 20.2842 2.4633 22.2138 3.35119L23.8859 -0.28259ZM15.9969 26.2353C13.7976 26.2347 11.646 25.6787 9.76913 24.6346L7.82453 28.1301C10.3057 29.5104 13.1277 30.2345 15.9958 30.2353L15.9969 26.2353ZM9.69171 24.5937C9.26874 24.3821 8.80522 24.2714 8.33855 24.2649L8.28262 28.2645C8.15547 28.2627 8.02535 28.2327 7.90195 28.171L9.69171 24.5937ZM8.4229 24.2679C8.108 24.2502 7.79105 24.287 7.48684 24.3779L8.6324 28.2103C8.49021 28.2528 8.34342 28.2697 8.19827 28.2615L8.4229 24.2679ZM7.54139 24.3624L2.33388 25.7595L3.37034 29.6229L8.57785 28.2258L7.54139 24.3624ZM2.29739 25.7696C2.57175 25.6904 2.86079 25.6832 3.13762 25.7476L2.2308 29.6435C2.61832 29.7337 3.02346 29.7234 3.40684 29.6127L2.29739 25.7696ZM3.13762 25.7476C3.41475 25.8121 3.68226 25.9493 3.9059 26.159L1.17004 29.0771C1.47434 29.3624 1.84296 29.5532 2.2308 29.6435L3.13762 25.7476ZM3.9059 26.159C4.13053 26.3696 4.3035 26.6472 4.3887 26.969L0.521967 27.9929C0.634648 28.4184 0.864753 28.7909 1.17004 29.0771L3.9059 26.159ZM4.3887 26.969C4.47417 27.2918 4.46378 27.632 4.36013 27.9476L0.559833 26.6995C0.422609 27.1173 0.409006 27.5663 0.521967 27.9929L4.3887 26.969ZM4.37287 27.9073L5.86297 23.025L2.03719 21.8574L0.547087 26.7397L4.37287 27.9073ZM5.86283 23.0255C5.98208 22.6351 6.01592 22.2231 5.96059 21.8167L1.99716 22.3563C1.97419 22.1876 1.98844 22.0169 2.03733 21.8569L5.86283 23.0255ZM5.96059 21.8167C5.90528 21.4105 5.76306 21.0256 5.54887 20.6851L2.16307 22.8149C2.0787 22.6808 2.02011 22.5249 1.99716 22.3563L5.96059 21.8167ZM5.54633 20.681C4.20258 18.5562 3.65406 16.09 3.96838 13.662L0.0014858 13.1485C-0.434772 16.5184 0.332376 19.9201 2.16561 22.819L5.54633 20.681ZM3.96838 13.662C4.28286 11.2329 5.4478 8.94731 7.31133 7.16967L4.55038 4.27533C2.04733 6.66303 0.437587 9.77983 0.0014858 13.1485L3.96838 13.662ZM7.31133 7.16967C9.17697 5.39 11.6366 4.22275 14.3142 3.87391L13.7975 -0.0925688C10.305 0.362445 7.05132 1.88965 4.55038 4.27533L7.31133 7.16967ZM14.3142 3.87391C16.9922 3.52502 19.7119 4.01807 22.045 5.2644L23.9297 1.73625C20.8503 0.091288 17.2896 -0.547536 13.7975 -0.0925688L14.3142 3.87391ZM22.045 5.2644C24.3766 6.50993 26.1769 8.4288 27.1922 10.6997L30.8438 9.067C29.4509 5.95153 27.0106 3.38202 23.9297 1.73625L22.045 5.2644ZM27.1922 10.6997C28.2062 12.9676 28.3896 15.4772 27.72 17.8462L31.5692 18.9341C32.4953 15.6575 32.238 12.1853 30.8438 9.067L27.1922 10.6997ZM27.72 17.8462C27.0498 20.2175 25.5546 22.3403 23.437 23.8678L25.7771 27.1118C28.5967 25.0779 30.6438 22.2084 31.5692 18.9341L27.72 17.8462ZM23.437 23.8678C21.3176 25.3966 18.7017 26.2357 15.9967 26.2353L15.996 30.2353C19.5204 30.2359 22.9594 29.1444 25.7771 27.1118L23.437 23.8678ZM25.0179 15.7072L21.8024 13.9866L19.9152 17.5134L23.1307 19.234L25.0179 15.7072ZM21.7938 13.982C21.1547 13.644 20.4404 13.4752 19.7222 13.4848L19.7753 17.4844C19.8342 17.4836 19.886 17.498 19.9238 17.518L21.7938 13.982ZM19.7222 13.4848C19.0039 13.4943 18.294 13.6821 17.664 14.0378L19.6304 17.5211C19.6661 17.5009 19.7165 17.4852 19.7753 17.4844L19.7222 13.4848ZM17.6647 14.0374L15.657 15.1697L17.622 18.6538L19.6297 17.5214L17.6647 14.0374ZM17.5323 15.1221C16.7331 14.7234 16.1002 14.1209 15.6967 13.4099L12.2179 15.3843C13.0288 16.8129 14.2637 17.9616 15.7466 18.7014L17.5323 15.1221ZM15.6406 15.4771L16.8483 13.5948L13.4817 11.4347L12.274 13.317L15.6406 15.4771ZM16.8479 13.5955C17.246 12.9756 17.468 12.2564 17.4793 11.5122L13.4797 11.4517C13.4799 11.4448 13.481 11.4391 13.4821 11.4353C13.4832 11.4316 13.4839 11.4312 13.4822 11.434L16.8479 13.5955ZM17.4793 11.5122C17.4905 10.7679 17.2903 10.042 16.9101 9.41009L13.4827 11.4723C13.4839 11.4742 13.4829 11.4732 13.4818 11.4689C13.4806 11.4646 13.4796 11.4586 13.4797 11.4517L17.4793 11.5122ZM16.9048 9.40123L15.0696 6.38652L11.6529 8.46642L13.4881 11.4811L16.9048 9.40123ZM15.0643 6.37778C14.6969 5.78128 14.1791 5.30092 13.5747 4.97208L11.663 8.48563C11.6751 8.49223 11.6692 8.49292 11.6582 8.47516L15.0643 6.37778ZM13.5747 4.97208C12.971 4.64356 12.295 4.47348 11.6129 4.47061L11.5961 8.47057C11.6267 8.4707 11.6502 8.47871 11.663 8.48563L13.5747 4.97208ZM11.6045 4.47059C9.70341 4.47058 7.85615 5.17607 6.47325 6.46881L9.20481 9.39089C9.82128 8.81462 10.6822 8.47058 11.6045 8.47059L11.6045 4.47059ZM6.47325 6.46881C5.08602 7.7656 4.27746 9.55367 4.27151 11.4496L8.27149 11.4622C8.27385 10.711 8.59269 9.96311 9.20481 9.39089L6.47325 6.46881ZM4.2715 11.4534C4.26909 13.3969 4.67549 15.3184 5.46366 17.1068L9.12396 15.4937C8.55817 14.2098 8.26979 12.839 8.2715 11.4584L4.2715 11.4534ZM5.46366 17.1068C6.25166 18.8948 7.40401 20.5109 8.84811 21.8664L11.5857 18.95C10.5241 17.9536 9.68992 16.7779 9.12396 15.4937L5.46366 17.1068ZM8.84811 21.8664C10.2919 23.2217 11.9996 24.2905 13.8705 25.0177L15.3196 21.2894C13.9152 20.7436 12.6474 19.9466 11.5857 18.95L8.84811 21.8664ZM13.8705 25.0177C15.7413 25.7448 17.7425 26.1176 19.7608 26.1176L19.7608 22.1176C18.2336 22.1176 16.7241 21.8353 15.3196 21.2894L13.8705 25.0177ZM19.7608 26.1176H19.7765V22.1176H19.7608V26.1176ZM19.782 26.1176C21.6831 26.1124 23.5284 25.4018 24.9074 24.105L22.1673 21.191C21.5529 21.7687 20.6933 22.1151 19.771 22.1177L19.782 26.1176ZM24.9074 24.105C26.2909 22.8042 27.0938 21.0136 27.0938 19.1176L23.0938 19.1177C23.0938 19.8688 22.7774 20.6173 22.1673 21.191L24.9074 24.105ZM27.0938 19.1081C27.0904 18.3987 26.8883 17.7107 26.5189 17.114L23.1178 19.2193C23.1062 19.2005 23.094 19.1684 23.0938 19.1272L27.0938 19.1081ZM26.5189 17.114C26.1502 16.5184 25.6314 16.0392 25.0263 15.7117L23.1222 19.2295C23.1345 19.2361 23.1287 19.2369 23.1178 19.2193L26.5189 17.114ZM19.7765 20.3529H19.7608V24.3529H19.7765V20.3529ZM19.7634 20.3529C17.1734 20.3497 14.7147 19.3816 12.9213 17.698L10.1835 20.6142C12.7428 23.0169 16.1886 24.3484 19.7583 24.3529L19.7634 20.3529ZM12.9213 17.698C11.1323 16.0184 10.1537 13.7704 10.1537 11.4559L6.15373 11.4559C6.15373 14.9165 7.61989 18.2074 10.1835 20.6142L12.9213 17.698ZM10.1537 11.4656C10.1551 11.1818 10.2753 10.8818 10.5346 10.6398L7.80536 7.71555C6.77128 8.68065 6.16068 10.0189 6.15376 11.4462L10.1537 11.4656ZM10.5346 10.6398C10.7982 10.3938 11.1809 10.2353 11.6045 10.2353L11.6045 6.23529C10.2031 6.23528 8.83512 6.75448 7.80536 7.71555L10.5346 10.6398ZM11.4513 10.2294C11.0236 10.1966 10.5988 10.0089 10.2767 9.66813L13.1833 6.9201C12.7968 6.51128 12.2821 6.28146 11.7577 6.24117L11.4513 10.2294ZM10.0216 9.33407L11.8568 12.3488L15.2735 10.2689L13.4383 7.25417L10.0216 9.33407ZM11.811 12.2695C11.6602 11.9942 11.5849 11.6766 11.6022 11.3513L15.5966 11.5644C15.6194 11.1358 15.5205 10.7155 15.3193 10.3481L11.811 12.2695ZM11.6022 11.3513C11.6196 11.0263 11.7279 10.7213 11.9034 10.467L15.1955 12.7389C15.431 12.3978 15.5737 11.9927 15.5966 11.5644L11.6022 11.3513ZM11.8587 10.5347L10.3999 12.8435L13.7815 14.98L15.2403 12.6712L11.8587 10.5347ZM10.4484 12.7703C10.1673 13.1749 9.99311 13.6508 9.95409 14.1539L13.9421 14.4633C13.925 14.6835 13.849 14.8863 13.733 15.0532L10.4484 12.7703ZM9.95409 14.1539C9.91504 14.6573 10.0137 15.1571 10.2335 15.6037L13.8224 13.8374C13.9155 14.0265 13.9592 14.2428 13.9421 14.4633L9.95409 14.1539ZM10.2272 15.5908C11.3054 17.8217 13.195 19.577 15.5124 20.5614L17.0763 16.8798C15.6086 16.2563 14.4656 15.1683 13.8287 13.8504L10.2272 15.5908ZM15.5003 20.5562C15.9337 20.7437 16.4041 20.8226 16.8699 20.7909L16.5978 16.8001C16.7618 16.7889 16.9298 16.8163 17.0885 16.885L15.5003 20.5562ZM16.8699 20.7909C17.3357 20.7591 17.7933 20.6168 18.1998 20.3685L16.1144 16.9551C16.2674 16.8616 16.4337 16.8113 16.5978 16.8001L16.8699 20.7909ZM18.1281 20.4102L20.5907 19.0426L18.6486 15.5457L16.186 16.9133L18.1281 20.4102ZM20.657 19.0041C20.4124 19.1525 20.1404 19.2323 19.8681 19.2451L19.6808 15.2495C19.2983 15.2674 18.9196 15.3796 18.5824 15.5841L20.657 19.0041ZM19.8681 19.2451C19.5959 19.2579 19.3199 19.2038 19.0659 19.0815L20.8009 15.4774C20.4487 15.3078 20.0631 15.2316 19.6808 15.2495L19.8681 19.2451ZM18.9898 19.0428L22.2053 20.7634L24.0924 17.2366L20.877 15.516L18.9898 19.0428ZM21.8705 20.5382C21.5134 20.2414 21.2636 19.8 21.2192 19.2918L25.204 18.9435C25.1517 18.3447 24.8569 17.8189 24.4272 17.4618L21.8705 20.5382ZM21.2116 19.1177C21.2116 19.4014 21.0929 19.7015 20.8352 19.9442L23.5777 22.8561C24.6075 21.8862 25.2116 20.545 25.2116 19.1176L21.2116 19.1177ZM20.8352 19.9442C20.5731 20.1911 20.1916 20.3512 19.768 20.353L19.785 24.3529C21.1864 24.3469 22.5522 23.8219 23.5777 22.8561L20.8352 19.9442Z" fill="#EEE4E2" mask="url(#path-1-inside-1_1584_621)"/>
</svg>
