<svg width="309" height="125" viewBox="0 0 309 125" fill="none" xmlns="http://www.w3.org/2000/svg">
<g filter="url(#filter0_d_3787_11635)">
<path d="M53.4 118.05V91.35H3.45V82.35L56.7 13.35H63.6V82.05H76.8V91.35H63.6V118.05H53.4ZM14.25 82.05H54.45V29.4L14.25 82.05Z" fill="#87957E"/>
<path d="M53.4 118.05H53.1V118.35H53.4V118.05ZM53.4 91.35H53.7V91.05H53.4V91.35ZM3.45 91.35H3.15V91.65H3.45V91.35ZM3.45 82.35L3.2125 82.1667L3.15 82.2477V82.35H3.45ZM56.7 13.35V13.05H56.5526L56.4625 13.1667L56.7 13.35ZM63.6 13.35H63.9V13.05H63.6V13.35ZM63.6 82.05H63.3V82.35H63.6V82.05ZM76.8 82.05H77.1V81.75H76.8V82.05ZM76.8 91.35V91.65H77.1V91.35H76.8ZM63.6 91.35V91.05H63.3V91.35H63.6ZM63.6 118.05V118.35H63.9V118.05H63.6ZM14.25 82.05L14.0116 81.8679L13.6435 82.35H14.25V82.05ZM54.45 82.05V82.35H54.75V82.05H54.45ZM54.45 29.4H54.75V28.5127L54.2116 29.2179L54.45 29.4ZM53.7 118.05V91.35H53.1V118.05H53.7ZM53.4 91.05H3.45V91.65H53.4V91.05ZM3.75 91.35V82.35H3.15V91.35H3.75ZM3.6875 82.5333L56.9375 13.5333L56.4625 13.1667L3.2125 82.1667L3.6875 82.5333ZM56.7 13.65H63.6V13.05H56.7V13.65ZM63.3 13.35V82.05H63.9V13.35H63.3ZM63.6 82.35H76.8V81.75H63.6V82.35ZM76.5 82.05V91.35H77.1V82.05H76.5ZM76.8 91.05H63.6V91.65H76.8V91.05ZM63.3 91.35V118.05H63.9V91.35H63.3ZM63.6 117.75H53.4V118.35H63.6V117.75ZM14.25 82.35H54.45V81.75H14.25V82.35ZM54.75 82.05V29.4H54.15V82.05H54.75ZM54.2116 29.2179L14.0116 81.8679L14.4884 82.2321L54.6884 29.5821L54.2116 29.2179Z" fill="#3A4736"/>
<path d="M184.55 52.05C184.55 60.85 182.9 68.7 179.6 75.6C176.4 82.4 171.95 87.75 166.25 91.65C160.55 95.55 154.1 97.5 146.9 97.5C139.7 97.5 133.25 95.55 127.55 91.65C121.95 87.75 117.5 82.4 114.2 75.6C110.9 68.7 109.25 60.85 109.25 52.05C109.25 43.25 110.9 35.45 114.2 28.65C117.5 21.75 121.95 16.35 127.55 12.45C133.25 8.45 139.7 6.45 146.9 6.45C154.1 6.45 160.55 8.45 166.25 12.45C171.95 16.35 176.4 21.75 179.6 28.65C182.9 35.45 184.55 43.25 184.55 52.05ZM174.2 52.05C174.2 44.95 173.05 38.7 170.75 33.3C168.45 27.9 165.25 23.7 161.15 20.7C157.05 17.6 152.3 16.05 146.9 16.05C141.5 16.05 136.75 17.6 132.65 20.7C128.55 23.7 125.3 27.9 122.9 33.3C120.6 38.7 119.45 44.95 119.45 52.05C119.45 59.15 120.6 65.4 122.9 70.8C125.3 76.2 128.55 80.4 132.65 83.4C136.75 86.4 141.5 87.9 146.9 87.9C152.3 87.9 157.05 86.4 161.15 83.4C165.25 80.3 168.45 76.1 170.75 70.8C173.05 65.4 174.2 59.15 174.2 52.05Z" fill="#87957E"/>
<path d="M179.6 75.6L179.329 75.4706L179.329 75.4723L179.6 75.6ZM166.25 91.65L166.419 91.8976L166.25 91.65ZM127.55 91.65L127.379 91.8962L127.381 91.8976L127.55 91.65ZM114.2 75.6L113.929 75.7294L113.93 75.731L114.2 75.6ZM114.2 28.65L114.47 28.781L114.471 28.7794L114.2 28.65ZM127.55 12.45L127.721 12.6962L127.722 12.6956L127.55 12.45ZM166.25 12.45L166.078 12.6956L166.081 12.6976L166.25 12.45ZM179.6 28.65L179.328 28.7762L179.33 28.781L179.6 28.65ZM170.75 33.3L170.474 33.4176L170.75 33.3ZM161.15 20.7L160.969 20.9393L160.973 20.9421L161.15 20.7ZM132.65 20.7L132.827 20.9421L132.831 20.9393L132.65 20.7ZM122.9 33.3L122.626 33.1781L122.624 33.1824L122.9 33.3ZM122.9 70.8L122.624 70.9176L122.626 70.9218L122.9 70.8ZM132.65 83.4L132.827 83.1579L132.65 83.4ZM161.15 83.4L161.327 83.6421L161.331 83.6393L161.15 83.4ZM170.75 70.8L171.025 70.9194L171.026 70.9176L170.75 70.8ZM184.25 52.05C184.25 60.8119 182.607 68.6166 179.329 75.4706L179.871 75.7294C183.193 68.7834 184.85 60.8881 184.85 52.05H184.25ZM179.329 75.4723C176.149 82.2283 171.733 87.5352 166.081 91.4024L166.419 91.8976C172.167 87.9648 176.651 82.5717 179.871 75.7277L179.329 75.4723ZM166.081 91.4024C160.433 95.2668 154.042 97.2 146.9 97.2V97.8C154.158 97.8 160.667 95.8332 166.419 91.8976L166.081 91.4024ZM146.9 97.2C139.758 97.2 133.367 95.2668 127.719 91.4024L127.381 91.8976C133.133 95.8332 139.642 97.8 146.9 97.8V97.2ZM127.721 91.4038C122.168 87.5362 117.75 82.2279 114.47 75.469L113.93 75.731C117.25 82.5721 121.732 87.9638 127.379 91.8962L127.721 91.4038ZM114.471 75.4706C111.193 68.6166 109.55 60.8119 109.55 52.05H108.95C108.95 60.8881 110.607 68.7834 113.929 75.7294L114.471 75.4706ZM109.55 52.05C109.55 43.2879 111.193 35.534 114.47 28.781L113.93 28.519C110.607 35.366 108.95 43.2121 108.95 52.05H109.55ZM114.471 28.7794C117.751 21.9205 122.169 16.563 127.721 12.6962L127.379 12.2038C121.731 16.1369 117.249 21.5795 113.929 28.5206L114.471 28.7794ZM127.722 12.6956C133.37 8.73225 139.759 6.75 146.9 6.75V6.15C139.641 6.15 133.13 8.16774 127.378 12.2044L127.722 12.6956ZM146.9 6.75C154.041 6.75 160.43 8.73225 166.078 12.6956L166.422 12.2044C160.67 8.16774 154.159 6.15 146.9 6.15V6.75ZM166.081 12.6976C171.732 16.5641 176.148 21.9201 179.328 28.7762L179.872 28.5238C176.652 21.5799 172.168 16.1359 166.419 12.2024L166.081 12.6976ZM179.33 28.781C182.607 35.534 184.25 43.2879 184.25 52.05H184.85C184.85 43.2121 183.193 35.366 179.87 28.519L179.33 28.781ZM174.5 52.05C174.5 44.9179 173.345 38.6265 171.026 33.1824L170.474 33.4176C172.755 38.7735 173.9 44.9821 173.9 52.05H174.5ZM171.026 33.1824C168.708 27.7406 165.477 23.4944 161.327 20.4579L160.973 20.9421C165.023 23.9056 168.192 28.0594 170.474 33.4176L171.026 33.1824ZM161.331 20.4607C157.176 17.3192 152.362 15.75 146.9 15.75V16.35C152.238 16.35 156.924 17.8808 160.969 20.9393L161.331 20.4607ZM146.9 15.75C141.438 15.75 136.624 17.3192 132.469 20.4607L132.831 20.9393C136.876 17.8808 141.562 16.35 146.9 16.35V15.75ZM132.473 20.4579C128.324 23.4935 125.044 27.7382 122.626 33.1782L123.174 33.4218C125.556 28.0618 128.776 23.9064 132.827 20.9421L132.473 20.4579ZM122.624 33.1824C120.305 38.6265 119.15 44.9179 119.15 52.05H119.75C119.75 44.9821 120.895 38.7735 123.176 33.4176L122.624 33.1824ZM119.15 52.05C119.15 59.1821 120.305 65.4735 122.624 70.9176L123.176 70.6824C120.895 65.3265 119.75 59.1179 119.75 52.05H119.15ZM122.626 70.9218C125.044 76.3618 128.324 80.6064 132.473 83.6421L132.827 83.1579C128.776 80.1936 125.556 76.0382 123.174 70.6782L122.626 70.9218ZM132.473 83.6421C136.628 86.6822 141.441 88.2 146.9 88.2V87.6C141.559 87.6 136.872 86.1178 132.827 83.1579L132.473 83.6421ZM146.9 88.2C152.359 88.2 157.172 86.6822 161.327 83.6421L160.973 83.1579C156.928 86.1178 152.241 87.6 146.9 87.6V88.2ZM161.331 83.6393C165.477 80.5044 168.707 76.2608 171.025 70.9194L170.475 70.6806C168.193 75.9392 165.023 80.0956 160.969 83.1607L161.331 83.6393ZM171.026 70.9176C173.345 65.4735 174.5 59.1821 174.5 52.05H173.9C173.9 59.1179 172.755 65.3265 170.474 70.6824L171.026 70.9176Z" fill="#3A4736"/>
<path d="M261.4 118.05V91.35H211.45V82.35L264.7 13.35H271.6V82.05H284.8V91.35H271.6V118.05H261.4ZM222.25 82.05H262.45V29.4L222.25 82.05Z" fill="#87957E"/>
<path d="M261.4 118.05H261.1V118.35H261.4V118.05ZM261.4 91.35H261.7V91.05H261.4V91.35ZM211.45 91.35H211.15V91.65H211.45V91.35ZM211.45 82.35L211.213 82.1667L211.15 82.2477V82.35H211.45ZM264.7 13.35V13.05H264.553L264.463 13.1667L264.7 13.35ZM271.6 13.35H271.9V13.05H271.6V13.35ZM271.6 82.05H271.3V82.35H271.6V82.05ZM284.8 82.05H285.1V81.75H284.8V82.05ZM284.8 91.35V91.65H285.1V91.35H284.8ZM271.6 91.35V91.05H271.3V91.35H271.6ZM271.6 118.05V118.35H271.9V118.05H271.6ZM222.25 82.05L222.012 81.8679L221.643 82.35H222.25V82.05ZM262.45 82.05V82.35H262.75V82.05H262.45ZM262.45 29.4H262.75V28.5127L262.212 29.2179L262.45 29.4ZM261.7 118.05V91.35H261.1V118.05H261.7ZM261.4 91.05H211.45V91.65H261.4V91.05ZM211.75 91.35V82.35H211.15V91.35H211.75ZM211.687 82.5333L264.938 13.5333L264.463 13.1667L211.213 82.1667L211.687 82.5333ZM264.7 13.65H271.6V13.05H264.7V13.65ZM271.3 13.35V82.05H271.9V13.35H271.3ZM271.6 82.35H284.8V81.75H271.6V82.35ZM284.5 82.05V91.35H285.1V82.05H284.5ZM284.8 91.05H271.6V91.65H284.8V91.05ZM271.3 91.35V118.05H271.9V91.35H271.3ZM271.6 117.75H261.4V118.35H271.6V117.75ZM222.25 82.35H262.45V81.75H222.25V82.35ZM262.75 82.05V29.4H262.15V82.05H262.75ZM262.212 29.2179L222.012 81.8679L222.488 82.2321L262.688 29.5821L262.212 29.2179Z" fill="#3A4736"/>
</g>
<defs>
<filter id="filter0_d_3787_11635" x="0" y="0.449951" width="330" height="125.55" filterUnits="userSpaceOnUse" color-interpolation-filters="sRGB">
<feFlood flood-opacity="0" result="BackgroundImageFix"/>
<feColorMatrix in="SourceAlpha" type="matrix" values="0 0 0 0 0 0 0 0 0 0 0 0 0 0 0 0 0 0 127 0" result="hardAlpha"/>
<feOffset dx="15"/>
<feGaussianBlur stdDeviation="3"/>
<feComposite in2="hardAlpha" operator="out"/>
<feColorMatrix type="matrix" values="0 0 0 0 0 0 0 0 0 0 0 0 0 0 0 0 0 0 0.15 0"/>
<feBlend mode="normal" in2="BackgroundImageFix" result="effect1_dropShadow_3787_11635"/>
<feBlend mode="normal" in="SourceGraphic" in2="effect1_dropShadow_3787_11635" result="shape"/>
</filter>
</defs>
</svg>
