<svg width="8" height="15" viewBox="0 0 8 15" fill="none" xmlns="http://www.w3.org/2000/svg">
<path fill-rule="evenodd" clip-rule="evenodd" d="M0.999625 0.0637208C0.743828 0.0638161 0.48806 0.161447 0.292893 0.356614C-0.0976311 0.747138 -0.0976311 1.3803 0.292893 1.77083L5.58579 7.06372L0.292894 12.3566C-0.0976306 12.7471 -0.0976305 13.3803 0.292894 13.7708C0.48798 13.9659 0.743617 14.0635 0.999308 14.0637C0.99977 14.0637 1.00023 14.0637 1.00069 14.0637C1.25638 14.0635 1.51202 13.9659 1.70711 13.7708L7.70711 7.77083C7.89464 7.58329 8 7.32894 8 7.06372C8 6.7985 7.89464 6.54415 7.70711 6.35661L1.70711 0.356614C1.51194 0.161447 1.25617 0.0638161 1.00037 0.0637208C1.00012 0.0637207 0.999875 0.0637207 0.999625 0.0637208Z" fill="#EEE4E2"/>
</svg>
