<svg width="18" height="18" viewBox="0 0 18 18" fill="none" xmlns="http://www.w3.org/2000/svg">
<path fill-rule="evenodd" clip-rule="evenodd" d="M7.2 0C3.22355 0 0 3.22355 0 7.2C0 11.1764 3.22355 14.4 7.2 14.4C8.86384 14.4 10.3959 13.8356 11.6151 12.8879L16.4636 17.7364C16.8151 18.0879 17.3849 18.0879 17.7364 17.7364C18.0879 17.3849 18.0879 16.8151 17.7364 16.4636L12.8879 11.6151C13.8356 10.3959 14.4 8.86384 14.4 7.2C14.4 3.22355 11.1764 0 7.2 0ZM1.8 7.2C1.8 4.21766 4.21766 1.8 7.2 1.8C10.1823 1.8 12.6 4.21766 12.6 7.2C12.6 10.1823 10.1823 12.6 7.2 12.6C4.21766 12.6 1.8 10.1823 1.8 7.2Z" fill="#87957E"/>
</svg>
