<svg width="16" height="18" viewBox="0 0 16 18" fill="none" xmlns="http://www.w3.org/2000/svg">
<path d="M13.6302 9.67407V8.06896H12.445V9.93103C12.445 10.0956 12.5075 10.2535 12.6186 10.3699L14.2228 12.0501V13.0345H1.18524V12.0501L2.78945 10.3699C2.9006 10.2535 2.96306 10.0956 2.96309 9.93103V7.44828C2.96144 6.57608 3.17958 5.71887 3.59547 4.96323C4.01136 4.20759 4.61028 3.58028 5.33173 3.14467C6.05318 2.70905 6.87161 2.48055 7.70436 2.48225C8.53711 2.48395 9.35469 2.71579 10.0745 3.15434V1.7671C9.5104 1.5055 8.9104 1.33876 8.29666 1.27303V0H7.11142V1.27241C5.65036 1.42816 4.29634 2.1458 3.31118 3.28654C2.32601 4.42728 1.77969 5.91011 1.77786 7.44828V9.67407L0.173637 11.3543C0.062492 11.4706 3.35644e-05 11.6285 0 11.7931V13.6552C0 13.8198 0.0624364 13.9777 0.173574 14.0941C0.284711 14.2105 0.435446 14.2759 0.592618 14.2759H4.74095V14.8966C4.74095 15.7196 5.05313 16.509 5.60882 17.091C6.1645 17.673 6.91818 18 7.70404 18C8.4899 18 9.24357 17.673 9.79926 17.091C10.3549 16.509 10.6671 15.7196 10.6671 14.8966V14.2759H14.8155C14.9726 14.2759 15.1234 14.2105 15.2345 14.0941C15.3456 13.9777 15.4081 13.8198 15.4081 13.6552V11.7931C15.408 11.6285 15.3456 11.4706 15.2344 11.3543L13.6302 9.67407ZM9.48189 14.8966C9.48189 15.3904 9.29459 15.864 8.96117 16.2132C8.62776 16.5624 8.17556 16.7586 7.70404 16.7586C7.23252 16.7586 6.78032 16.5624 6.44691 16.2132C6.11349 15.864 5.92618 15.3904 5.92618 14.8966V14.2759H9.48189V14.8966Z" fill="#3A4736"/>
<path d="M13.6303 6.82782C14.9395 6.82782 16.0008 5.71625 16.0008 4.34506C16.0008 2.97387 14.9395 1.8623 13.6303 1.8623C12.3211 1.8623 11.2598 2.97387 11.2598 4.34506C11.2598 5.71625 12.3211 6.82782 13.6303 6.82782Z" fill="#E09A78"/>
</svg>
