<svg width="101" height="20" viewBox="0 0 101 20" fill="none" xmlns="http://www.w3.org/2000/svg">
<path d="M0.576828 12.7447C0.483034 12.7447 0.408 12.726 0.351724 12.6884C0.304828 12.6509 0.281379 12.604 0.281379 12.5478C0.281379 12.4915 0.309517 12.4446 0.365793 12.4071C0.431448 12.3695 0.511172 12.3555 0.604966 12.3649C0.830069 12.3836 0.994207 12.393 1.09738 12.393C1.37876 12.393 1.60386 12.3508 1.77269 12.2664C1.94152 12.1726 2.05407 12.0178 2.11034 11.8021C2.18538 11.5113 2.27917 10.5265 2.39172 8.84762C2.51366 7.15934 2.57462 5.85093 2.57462 4.92238C2.57462 4.50969 2.56055 4.24238 2.53241 4.12044C2.47614 3.90472 2.36359 3.75465 2.19476 3.67024C2.02593 3.57644 1.80083 3.52955 1.51945 3.52955C1.41628 3.52955 1.25214 3.53893 1.02703 3.55769H0.970759C0.886345 3.55769 0.82069 3.53893 0.773793 3.50141C0.726897 3.46389 0.703448 3.417 0.703448 3.36072C0.703448 3.31382 0.726897 3.27162 0.773793 3.2341C0.830069 3.19658 0.905103 3.17782 0.998897 3.17782H2.94041C3.15614 3.17782 3.29683 3.2341 3.36248 3.34665C3.38124 3.38417 3.40938 3.4592 3.4469 3.57175L6.24662 10.2123C6.28414 10.3061 6.33103 10.353 6.38731 10.353C6.45297 10.353 6.49986 10.3108 6.528 10.2264L9.39807 3.55769C9.42621 3.48265 9.46372 3.40762 9.51062 3.33258C9.5669 3.22941 9.71697 3.17782 9.96083 3.17782H12.1134C12.2072 3.17782 12.2775 3.19658 12.3244 3.2341C12.3807 3.27162 12.4088 3.31851 12.4088 3.37479C12.4088 3.43106 12.376 3.47796 12.3103 3.51548C12.2541 3.553 12.179 3.56706 12.0852 3.55769C11.8601 3.53893 11.696 3.52955 11.5928 3.52955C11.3114 3.52955 11.0863 3.57644 10.9175 3.67024C10.7487 3.75465 10.6361 3.90472 10.5799 4.12044C10.5517 4.24238 10.5377 4.50969 10.5377 4.92238C10.5377 5.85093 10.5939 7.15465 10.7065 8.83355C10.8284 10.5124 10.9269 11.502 11.0019 11.8021C11.0582 12.0178 11.1708 12.1726 11.3396 12.2664C11.5084 12.3508 11.7335 12.393 12.0149 12.393C12.1181 12.393 12.2822 12.3836 12.5073 12.3649H12.5636C12.648 12.3649 12.7137 12.3836 12.7606 12.4211C12.8074 12.4587 12.8309 12.5055 12.8309 12.5618C12.8309 12.6087 12.8028 12.6509 12.7465 12.6884C12.6996 12.726 12.6292 12.7447 12.5354 12.7447H8.23035C8.13655 12.7447 8.06152 12.726 8.00524 12.6884C7.95834 12.6509 7.9349 12.604 7.9349 12.5478C7.9349 12.4915 7.96303 12.4446 8.01931 12.4071C8.08497 12.3695 8.16469 12.3555 8.25848 12.3649C8.48359 12.3836 8.64772 12.393 8.7509 12.393C9.03228 12.393 9.25738 12.3508 9.42621 12.2664C9.59503 12.1726 9.70759 12.0178 9.76386 11.8021C9.792 11.6708 9.80607 11.4316 9.80607 11.0846C9.80607 10.4093 9.73103 8.86169 9.58097 6.44182L9.49655 5.20375C9.48717 5.0912 9.44966 5.03493 9.384 5.03493C9.3371 5.03493 9.29021 5.07713 9.24331 5.16155L6.49986 11.5629C6.44359 11.6942 6.37793 11.7974 6.3029 11.8724C6.23724 11.9475 6.17159 11.985 6.10593 11.985C5.97462 11.985 5.85738 11.8678 5.75421 11.6333L3.41876 5.92127C3.38124 5.83686 3.33434 5.79465 3.27807 5.79465C3.22179 5.79465 3.18428 5.85093 3.16552 5.96348C3.09048 6.85451 3.02483 7.78775 2.96855 8.7632C2.91228 9.72927 2.88414 10.4937 2.88414 11.0564C2.88414 11.4222 2.89821 11.6708 2.92634 11.8021C2.98262 12.0178 3.09517 12.1726 3.264 12.2664C3.43283 12.3508 3.65793 12.393 3.93931 12.393C4.04248 12.393 4.20662 12.3836 4.43172 12.3649H4.488C4.57241 12.3649 4.63807 12.3836 4.68497 12.4211C4.73186 12.4587 4.75531 12.5055 4.75531 12.5618C4.75531 12.6087 4.72717 12.6509 4.6709 12.6884C4.624 12.726 4.55366 12.7447 4.45986 12.7447H0.576828ZM16.1602 7.41258C16.254 7.41258 16.3243 7.43134 16.3712 7.46886C16.4275 7.50638 16.4556 7.55327 16.4556 7.60955C16.4556 7.6752 16.4275 7.72679 16.3712 7.76431C16.3149 7.80182 16.2352 7.8112 16.132 7.79244C16.0945 7.78307 16.0476 7.77838 15.9914 7.77838C15.8038 7.77838 15.71 7.89093 15.71 8.11603C15.71 8.27548 15.7616 8.50058 15.8647 8.79134C15.9679 9.07272 16.1367 9.49948 16.3712 10.0716L16.8074 11.1549C16.8449 11.2487 16.8918 11.2956 16.948 11.2956C17.0137 11.2956 17.0606 11.2534 17.0887 11.169C17.3889 10.428 17.6421 9.76679 17.8485 9.18527C18.0548 8.59438 18.1533 8.23796 18.1439 8.11603C18.1439 7.98472 18.1017 7.90031 18.0173 7.86279C17.9423 7.81589 17.825 7.80182 17.6656 7.82058H17.5952C17.5202 7.82058 17.4592 7.80182 17.4123 7.76431C17.3654 7.72679 17.342 7.68458 17.342 7.63769C17.342 7.58141 17.3654 7.53451 17.4123 7.497C17.4686 7.45948 17.5436 7.44072 17.6374 7.44072H19.2694C19.3632 7.44072 19.4336 7.45948 19.4805 7.497C19.5367 7.52513 19.5649 7.56734 19.5649 7.62362C19.5649 7.67989 19.5367 7.73148 19.4805 7.77838C19.4242 7.81589 19.3445 7.82996 19.2413 7.82058C19.1569 7.8112 19.0865 7.83465 19.0303 7.89093C18.974 7.93782 18.9036 8.02224 18.8192 8.14417C18.7442 8.25672 18.58 8.61782 18.3268 9.22748C18.0829 9.83713 17.9094 10.2733 17.8063 10.5359C17.2998 11.8115 16.9387 12.6978 16.7229 13.1949C16.5823 13.4857 16.3994 13.7811 16.1743 14.0813C15.9492 14.3814 15.7334 14.5643 15.5271 14.63C15.3676 14.6769 15.2457 14.7003 15.1613 14.7003C15.0018 14.7003 14.8752 14.6581 14.7814 14.5737C14.697 14.4987 14.6548 14.4095 14.6548 14.3064C14.6548 14.1938 14.7064 14.0953 14.8096 14.0109C14.9127 13.9265 15.0581 13.8843 15.2457 13.8843C15.4145 13.8843 15.5927 13.8046 15.7803 13.6451C15.9773 13.4951 16.1367 13.2981 16.2587 13.0542L16.4134 12.7307C16.4416 12.6744 16.4556 12.6181 16.4556 12.5618C16.4556 12.5337 16.4463 12.4915 16.4275 12.4352L15.7663 10.8032C15.5318 10.2123 15.3114 9.67769 15.105 9.19934C14.908 8.721 14.7486 8.38334 14.6267 8.18638C14.4485 7.91438 14.2843 7.78307 14.1343 7.79244H14.1202C14.0264 7.79244 13.9514 7.77369 13.8951 7.73617C13.8388 7.69865 13.8107 7.65175 13.8107 7.59548C13.8107 7.5392 13.8341 7.497 13.881 7.46886C13.9373 7.43134 14.0123 7.41258 14.1061 7.41258H16.1602ZM25.7691 12.7447C25.6753 12.7447 25.6002 12.726 25.544 12.6884C25.4971 12.6509 25.4736 12.604 25.4736 12.5478C25.4736 12.4915 25.5018 12.4446 25.558 12.4071C25.6237 12.3695 25.7034 12.3555 25.7972 12.3649C26.0223 12.3836 26.1864 12.393 26.2896 12.393C26.571 12.393 26.7961 12.3508 26.9649 12.2664C27.1338 12.1726 27.2463 12.0178 27.3026 11.8021C27.387 11.4644 27.4292 10.1842 27.4292 7.96127C27.4292 5.73838 27.387 4.4581 27.3026 4.12044C27.2463 3.90472 27.1338 3.75465 26.9649 3.67024C26.7961 3.57644 26.571 3.52955 26.2896 3.52955C26.1864 3.52955 26.0223 3.53893 25.7972 3.55769H25.7409C25.6565 3.55769 25.5909 3.53893 25.544 3.50141C25.4971 3.46389 25.4736 3.417 25.4736 3.36072C25.4736 3.31382 25.4971 3.27162 25.544 3.2341C25.6002 3.19658 25.6753 3.17782 25.7691 3.17782H30.0742C30.168 3.17782 30.2383 3.19658 30.2852 3.2341C30.3415 3.27162 30.3696 3.31851 30.3696 3.37479C30.3696 3.43106 30.3368 3.47796 30.2711 3.51548C30.2149 3.553 30.1398 3.56706 30.046 3.55769C29.8209 3.53893 29.6568 3.52955 29.5536 3.52955C29.2722 3.52955 29.0471 3.57644 28.8783 3.67024C28.7095 3.75465 28.5969 3.90472 28.5407 4.12044C28.4562 4.46748 28.414 5.56017 28.414 7.39851C28.414 7.64238 28.5313 7.76431 28.7658 7.76431H32.8458C33.0802 7.76431 33.1975 7.64238 33.1975 7.39851C33.1975 5.56017 33.1553 4.46748 33.0709 4.12044C33.0146 3.90472 32.902 3.75465 32.7332 3.67024C32.5644 3.57644 32.3393 3.52955 32.0579 3.52955C31.9547 3.52955 31.7906 3.53893 31.5655 3.55769H31.5092C31.4248 3.55769 31.3591 3.53893 31.3122 3.50141C31.2653 3.46389 31.2419 3.417 31.2419 3.36072C31.2419 3.31382 31.2653 3.27162 31.3122 3.2341C31.3685 3.19658 31.4436 3.17782 31.5373 3.17782H35.8424C35.9362 3.17782 36.0066 3.19658 36.0535 3.2341C36.1098 3.27162 36.1379 3.31851 36.1379 3.37479C36.1379 3.43106 36.1051 3.47796 36.0394 3.51548C35.9831 3.553 35.9081 3.56706 35.8143 3.55769C35.5892 3.53893 35.4251 3.52955 35.3219 3.52955C35.0405 3.52955 34.8154 3.57644 34.6466 3.67024C34.4778 3.75465 34.3652 3.90472 34.3089 4.12044C34.2245 4.4581 34.1823 5.73838 34.1823 7.96127C34.1823 10.1842 34.2245 11.4644 34.3089 11.8021C34.3652 12.0178 34.4778 12.1726 34.6466 12.2664C34.8154 12.3508 35.0405 12.393 35.3219 12.393C35.4251 12.393 35.5892 12.3836 35.8143 12.3649H35.8706C35.955 12.3649 36.0207 12.3836 36.0676 12.4211C36.1144 12.4587 36.1379 12.5055 36.1379 12.5618C36.1379 12.6087 36.1098 12.6509 36.0535 12.6884C36.0066 12.726 35.9362 12.7447 35.8424 12.7447H31.5373C31.4436 12.7447 31.3685 12.726 31.3122 12.6884C31.2653 12.6509 31.2419 12.604 31.2419 12.5478C31.2419 12.4915 31.27 12.4446 31.3263 12.4071C31.392 12.3695 31.4717 12.3555 31.5655 12.3649C31.7906 12.3836 31.9547 12.393 32.0579 12.393C32.3393 12.393 32.5644 12.3508 32.7332 12.2664C32.902 12.1726 33.0146 12.0178 33.0709 11.8021C33.1553 11.4644 33.1975 10.3905 33.1975 8.58031C33.1975 8.33644 33.0802 8.21451 32.8458 8.21451H28.7658C28.5313 8.21451 28.414 8.33644 28.414 8.58031C28.414 10.3905 28.4562 11.4644 28.5407 11.8021C28.5969 12.0178 28.7095 12.1726 28.8783 12.2664C29.0471 12.3508 29.2722 12.393 29.5536 12.393C29.6568 12.393 29.8209 12.3836 30.046 12.3649H30.1023C30.1867 12.3649 30.2524 12.3836 30.2993 12.4211C30.3462 12.4587 30.3696 12.5055 30.3696 12.5618C30.3696 12.6087 30.3415 12.6509 30.2852 12.6884C30.2383 12.726 30.168 12.7447 30.0742 12.7447H25.7691ZM39.3885 12.7588C38.9383 12.7588 38.5068 12.6603 38.0941 12.4633C37.6815 12.2664 37.3438 11.9662 37.0812 11.5629C36.8279 11.1596 36.7013 10.6719 36.7013 10.0998C36.7013 9.51824 36.8326 9.02582 37.0952 8.62251C37.3579 8.2192 37.6908 7.91906 38.0941 7.7221C38.5068 7.51575 38.9383 7.41258 39.3885 7.41258C39.8387 7.41258 40.2701 7.51575 40.6828 7.7221C41.0955 7.91906 41.4332 8.2192 41.6958 8.62251C41.9584 9.02582 42.0897 9.51824 42.0897 10.0998C42.0897 10.6719 41.9584 11.1596 41.6958 11.5629C41.4332 11.9662 41.0955 12.2664 40.6828 12.4633C40.2701 12.6603 39.8387 12.7588 39.3885 12.7588ZM39.3885 12.393C39.8762 12.393 40.2655 12.182 40.5562 11.7599C40.847 11.3378 40.9923 10.7798 40.9923 10.0857C40.9923 9.401 40.8423 8.84762 40.5421 8.42555C40.2514 7.9941 39.8668 7.77838 39.3885 7.77838C38.9101 7.77838 38.5209 7.9941 38.2208 8.42555C37.93 8.84762 37.7846 9.401 37.7846 10.0857C37.7846 10.7704 37.93 11.3284 38.2208 11.7599C38.5209 12.182 38.9101 12.393 39.3885 12.393ZM43.3538 8.29893C43.3538 8.26141 43.3773 8.22389 43.4242 8.18638C43.4805 8.13948 43.5555 8.10665 43.6493 8.08789C43.9401 8.01286 44.2402 7.8581 44.5497 7.62362C44.5872 7.60486 44.6529 7.56734 44.7467 7.51106C44.8405 7.44541 44.9155 7.41258 44.9718 7.41258C45.1031 7.41258 45.1687 7.46886 45.1687 7.58141C45.1687 7.68458 45.1641 7.77838 45.1547 7.86279C45.1547 7.92844 45.1687 7.97065 45.1969 7.98941C45.2344 7.99879 45.2766 7.98472 45.3235 7.9472C45.7081 7.59079 46.1161 7.41258 46.5475 7.41258C46.8476 7.41258 47.1384 7.50169 47.4198 7.67989C47.7012 7.84872 47.9356 8.09727 48.1232 8.42555C48.1795 8.51934 48.2358 8.52403 48.2921 8.43962C48.4421 8.19575 48.6766 7.96596 48.9955 7.75024C49.3144 7.52513 49.638 7.41258 49.9663 7.41258C50.2758 7.41258 50.5759 7.50638 50.8667 7.69396C51.1668 7.88155 51.4107 8.17231 51.5983 8.56624C51.7952 8.95079 51.8937 9.42913 51.8937 10.0013L51.8796 11.2675C51.8796 11.6427 51.9125 11.924 51.9781 12.1116C52.0438 12.2898 52.1751 12.3789 52.3721 12.3789C52.4471 12.3789 52.5034 12.3742 52.5409 12.3649L52.6253 12.3508C52.7003 12.3508 52.7566 12.3695 52.7941 12.4071C52.841 12.4446 52.8645 12.4915 52.8645 12.5478C52.8645 12.604 52.8363 12.6509 52.7801 12.6884C52.7332 12.726 52.6628 12.7447 52.569 12.7447H50.2336C50.1398 12.7447 50.0647 12.726 50.0085 12.6884C49.9616 12.6509 49.9381 12.604 49.9381 12.5478C49.9381 12.4821 49.9663 12.4305 50.0225 12.393C50.0788 12.3555 50.1585 12.3461 50.2617 12.3649C50.5337 12.4118 50.7072 12.3086 50.7823 12.0553C50.8667 11.7927 50.9089 11.3894 50.9089 10.8454V10.0857C50.9089 9.69175 50.8432 9.34003 50.7119 9.03051C50.59 8.721 50.4258 8.48182 50.2195 8.313C50.0225 8.14417 49.8209 8.05975 49.6145 8.05975C49.2394 8.05975 48.9533 8.26141 48.7563 8.66472C48.5687 9.05865 48.475 9.50417 48.475 10.0013L48.4609 11.2675C48.4609 11.6427 48.4937 11.924 48.5594 12.1116C48.625 12.2898 48.7563 12.3789 48.9533 12.3789C49.0283 12.3789 49.0846 12.3742 49.1221 12.3649L49.2065 12.3508C49.2816 12.3508 49.3378 12.3695 49.3754 12.4071C49.4223 12.4446 49.4457 12.4915 49.4457 12.5478C49.4457 12.604 49.4176 12.6509 49.3613 12.6884C49.3144 12.726 49.2441 12.7447 49.1503 12.7447H46.8148C46.721 12.7447 46.646 12.726 46.5897 12.6884C46.5428 12.6509 46.5194 12.604 46.5194 12.5478C46.5194 12.4821 46.5475 12.4305 46.6038 12.393C46.6601 12.3555 46.7398 12.3461 46.843 12.3649C47.115 12.4118 47.2885 12.3086 47.3635 12.0553C47.4479 11.7927 47.4901 11.3894 47.4901 10.8454V10.0857C47.4901 9.69175 47.4245 9.34003 47.2932 9.03051C47.1712 8.721 47.0071 8.48182 46.8007 8.313C46.6038 8.14417 46.4021 8.05975 46.1958 8.05975C45.9894 8.05975 45.7972 8.14417 45.619 8.313C45.4501 8.47244 45.3141 8.66941 45.211 8.90389C45.1172 9.13838 45.0703 9.34472 45.0703 9.52293C45.0609 9.75741 45.0562 10.0763 45.0562 10.4796C45.0562 11.0611 45.0796 11.5395 45.1265 11.9147C45.1547 12.0741 45.2063 12.1913 45.2813 12.2664C45.3563 12.3414 45.4642 12.3789 45.6049 12.3789C45.6705 12.3789 45.7268 12.3742 45.7737 12.3649L45.8581 12.3508C45.9332 12.3508 45.9894 12.3695 46.027 12.4071C46.0738 12.4446 46.0973 12.4915 46.0973 12.5478C46.0973 12.604 46.0692 12.6509 46.0129 12.6884C45.966 12.726 45.8956 12.7447 45.8018 12.7447H43.5086C43.4148 12.7447 43.3398 12.726 43.2835 12.6884C43.2366 12.6509 43.2132 12.604 43.2132 12.5478C43.2132 12.4821 43.2413 12.4305 43.2976 12.393C43.3538 12.3555 43.4336 12.3461 43.5367 12.3649C43.8181 12.4211 44.0057 12.2711 44.0995 11.9147C44.1558 11.7083 44.1839 11.3894 44.1839 10.958C44.1839 10.6484 44.1792 10.4093 44.1698 10.2404L44.1558 9.29782C44.1558 9.04458 44.1136 8.84293 44.0292 8.69286C43.9541 8.53341 43.8275 8.45369 43.6493 8.45369C43.5555 8.45369 43.4805 8.43962 43.4242 8.41148C43.3773 8.38334 43.3538 8.34582 43.3538 8.29893ZM53.9908 10.0998C53.9908 9.52762 54.1174 9.03989 54.3706 8.63658C54.6239 8.22389 54.9474 7.91906 55.3414 7.7221C55.7353 7.51575 56.1339 7.41258 56.5372 7.41258C57.1281 7.41258 57.6252 7.56734 58.0285 7.87686C58.4319 8.177 58.6335 8.58969 58.6335 9.11493C58.6335 9.31189 58.5913 9.46665 58.5069 9.5792C58.4319 9.69175 58.3381 9.74803 58.2255 9.74803L55.2288 9.73396C55.0881 9.73396 55.0178 9.79962 55.0178 9.93093C55.0178 10.5687 55.1725 11.1174 55.4821 11.577C55.7916 12.0272 56.2136 12.2523 56.7483 12.2523C57.1422 12.2523 57.4845 12.1632 57.7753 11.985C58.0661 11.8068 58.2771 11.6004 58.4084 11.366C58.4741 11.2534 58.5491 11.1971 58.6335 11.1971C58.7273 11.1971 58.7742 11.2581 58.7742 11.38C58.7742 11.4738 58.7461 11.5535 58.6898 11.6192C58.4272 12.0038 58.1364 12.2898 57.8175 12.4774C57.4986 12.665 57.0953 12.7588 56.6076 12.7588C56.1574 12.7588 55.7306 12.6603 55.3273 12.4633C54.9334 12.2664 54.6098 11.9662 54.3565 11.5629C54.1127 11.1596 53.9908 10.6719 53.9908 10.0998ZM55.1303 9.15713C55.121 9.17589 55.1163 9.19934 55.1163 9.22748C55.1163 9.34003 55.1819 9.39631 55.3132 9.39631L57.2407 9.38224C57.4095 9.38224 57.5174 9.34472 57.5643 9.26969C57.6112 9.18527 57.6346 9.0821 57.6346 8.96017C57.6346 8.61313 57.5314 8.33175 57.3251 8.11603C57.1281 7.89093 56.8655 7.77838 56.5372 7.77838C56.2183 7.77838 55.9323 7.89562 55.679 8.1301C55.4352 8.36458 55.2523 8.70693 55.1303 9.15713Z" fill="#3A4736"/>
<path d="M64.759 11.2551C64.759 11.0811 64.7956 10.8979 64.8689 10.7055C64.9513 10.5132 65.075 10.3758 65.2398 10.2934C65.2032 10.5773 65.2169 10.8567 65.281 11.1315C65.3543 11.4063 65.4688 11.649 65.6245 11.8596C65.7802 12.0703 65.9817 12.2398 66.2291 12.368C66.4764 12.4871 66.7603 12.5466 67.0809 12.5466C67.4747 12.5466 67.8136 12.4504 68.0976 12.2581C68.3907 12.0566 68.6334 11.8093 68.8258 11.5162C69.0181 11.2139 69.1601 10.8842 69.2517 10.5269C69.3433 10.1606 69.3891 9.80792 69.3891 9.46902V9.1805L68.5785 4.71525C68.5693 4.67861 68.5601 4.62365 68.551 4.55038C68.551 4.4771 68.5647 4.40841 68.5922 4.34429C68.6288 4.27101 68.6792 4.22064 68.7433 4.19316C68.8166 4.16568 68.9265 4.17942 69.0731 4.23438C69.0731 4.25269 69.0914 4.34429 69.128 4.50916C69.1738 4.66487 69.2196 4.87096 69.2654 5.12742C69.3204 5.37473 69.3753 5.6541 69.4303 5.96552C69.4944 6.27694 69.5539 6.59294 69.6089 6.91352C69.6639 7.22495 69.7142 7.52721 69.76 7.82031C69.8058 8.10426 69.8425 8.34698 69.8699 8.54849C69.9157 9.03394 69.902 9.53772 69.8287 10.0598C69.7555 10.5819 69.6089 11.0628 69.3891 11.5024C69.1692 11.9421 68.8578 12.3039 68.4548 12.5878C68.061 12.8718 67.5663 13.0137 66.971 13.0137C66.7511 13.0137 66.5084 12.9679 66.2428 12.8763C65.9863 12.7848 65.7482 12.6611 65.5284 12.5054C65.3177 12.3497 65.1345 12.1665 64.9788 11.9558C64.8322 11.736 64.759 11.5024 64.759 11.2551ZM71.9413 13C71.7672 13.0641 71.607 13.0504 71.4604 12.9588C71.323 12.858 71.1994 12.7115 71.0894 12.5191C70.9795 12.3176 70.8834 12.0932 70.8009 11.8459C70.7185 11.5894 70.6544 11.3376 70.6086 11.0902C70.5628 10.8429 70.5307 10.6185 70.5124 10.417C70.5032 10.2155 70.5078 10.069 70.5261 9.97737C70.5261 9.88578 70.5307 9.7438 70.5399 9.55145C70.549 9.35911 70.5582 9.14386 70.5674 8.90571C70.5765 8.65841 70.5857 8.40652 70.5948 8.15005C70.6131 7.88443 70.6269 7.62796 70.636 7.38066C70.6452 7.13335 70.6544 6.9181 70.6635 6.73491C70.6727 6.54256 70.6773 6.40059 70.6773 6.309C70.6956 6.309 70.7093 6.30442 70.7185 6.29526L70.7597 6.28152C70.8513 6.28152 70.9292 6.32274 70.9933 6.40517C71.0574 6.48761 71.1123 6.56546 71.1581 6.63874C71.1581 6.76697 71.1536 6.99596 71.1444 7.3257C71.1444 7.65544 71.1444 8.00808 71.1444 8.38362C71.1444 8.75916 71.1444 9.11638 71.1444 9.45528C71.1536 9.78502 71.1581 10.014 71.1581 10.1422C71.1673 10.2522 71.1856 10.4262 71.2131 10.6643C71.2497 10.8933 71.2955 11.1315 71.3505 11.3788C71.4054 11.6169 71.4787 11.8367 71.5703 12.0383C71.6711 12.2306 71.7947 12.3405 71.9413 12.368C72.326 12.368 72.6466 12.226 72.903 11.9421C73.1686 11.6581 73.3885 11.3009 73.5625 10.8704C73.7365 10.4399 73.8739 9.97737 73.9747 9.48276C74.0846 8.97899 74.1762 8.50727 74.2495 8.06762C74.3227 7.62796 74.3869 7.26158 74.4418 6.96848C74.5059 6.66622 74.5792 6.50135 74.6616 6.47387L74.9914 6.54256L75.7608 11.8596C75.8157 11.8871 75.8615 11.9283 75.8982 11.9833C75.9348 12.0383 75.9669 12.0978 75.9943 12.1619C76.031 12.226 76.0539 12.2901 76.063 12.3543C76.0814 12.4184 76.0905 12.4642 76.0905 12.4916C76.0722 12.5558 76.0172 12.6245 75.9256 12.6977C75.8341 12.771 75.7562 12.8122 75.6921 12.8214H75.6371C75.628 12.8214 75.6188 12.8214 75.6096 12.8214C75.5913 12.7939 75.5638 12.7527 75.5272 12.6977C75.4997 12.6336 75.4677 12.5695 75.431 12.5054C75.3944 12.4413 75.3623 12.3772 75.3349 12.313C75.3165 12.2398 75.3028 12.194 75.2936 12.1756C75.2662 12.0841 75.2341 11.9421 75.1975 11.7497C75.17 11.5574 75.1425 11.3467 75.115 11.1177C75.0876 10.8796 75.0601 10.6323 75.0326 10.3758C75.0143 10.1102 74.9914 9.8583 74.9639 9.62015C74.9456 9.37284 74.9227 9.1576 74.8952 8.97441C74.8769 8.78206 74.854 8.64009 74.8265 8.54849C74.7807 8.75916 74.7166 9.01105 74.6342 9.30415C74.5517 9.58809 74.4464 9.89036 74.3182 10.2109C74.1991 10.5315 74.0617 10.8475 73.906 11.1589C73.7503 11.4612 73.5717 11.7452 73.3702 12.0108C73.1778 12.2672 72.9626 12.4871 72.7244 12.6703C72.4863 12.8443 72.2252 12.9542 71.9413 13ZM76.5269 7.88901C76.5269 7.83405 76.5269 7.76994 76.5269 7.69666C76.536 7.62338 76.5452 7.55469 76.5544 7.49057C76.5727 7.4173 76.6047 7.35776 76.6505 7.31196C76.6963 7.26616 76.7604 7.24327 76.8429 7.24327C76.8612 7.24327 76.8887 7.24785 76.9253 7.257C76.9711 7.257 77.0032 7.257 77.0215 7.257C77.0306 7.90733 77.0627 8.57597 77.1177 9.26293C77.1818 9.94989 77.3054 10.614 77.4886 11.2551C77.4978 11.1544 77.5207 10.9849 77.5573 10.7468C77.6031 10.4995 77.6489 10.243 77.6947 9.97737C77.7497 9.70259 77.8 9.44612 77.8458 9.20797C77.9008 8.96983 77.9374 8.80038 77.9558 8.69962C78.0199 8.50727 78.1069 8.31035 78.2168 8.10884C78.3267 7.89817 78.4595 7.70582 78.6152 7.53179C78.7801 7.35776 78.9587 7.21579 79.1511 7.10587C79.3526 6.99596 79.5632 6.941 79.7831 6.941C80.1495 6.941 80.4746 7.02344 80.7586 7.18831C81.0425 7.35318 81.2944 7.57301 81.5142 7.84779C81.7432 8.11342 81.9356 8.42026 82.0913 8.76832C82.247 9.10722 82.3752 9.45528 82.476 9.8125C82.5767 10.1697 82.65 10.5132 82.6958 10.8429C82.7416 11.1727 82.7645 11.4658 82.7645 11.7223V11.8871C82.7645 11.9421 82.7553 11.997 82.737 12.052C82.7278 12.0978 82.7049 12.139 82.6683 12.1756C82.6408 12.2031 82.5859 12.2169 82.5034 12.2169C82.4118 12.2169 82.334 12.1619 82.2699 12.052C82.2607 11.823 82.2332 11.5574 82.1874 11.2551C82.1508 10.9529 82.0958 10.6369 82.0226 10.3071C81.9585 9.96821 81.8669 9.63847 81.7478 9.31789C81.6379 8.98815 81.4959 8.69504 81.3219 8.43858C81.157 8.18211 80.9601 7.97602 80.7311 7.82031C80.5021 7.65544 80.2273 7.57301 79.9067 7.57301C79.6503 7.57301 79.4259 7.6188 79.2335 7.7104C79.0503 7.80199 78.8946 7.93023 78.7664 8.0951C78.6381 8.25081 78.5328 8.43858 78.4504 8.65841C78.3771 8.86907 78.3221 9.09806 78.2855 9.34537C78.258 9.4736 78.2214 9.70259 78.1756 10.0323C78.1298 10.3621 78.0794 10.7147 78.0245 11.0902C77.9695 11.4658 77.9191 11.8184 77.8733 12.1482C77.8367 12.4779 77.8138 12.7069 77.8046 12.8351C77.7771 12.9267 77.7268 12.9817 77.6535 13C77.5894 13.0183 77.5207 13.0275 77.4474 13.0275C77.4382 13.0275 77.4153 13.0229 77.3787 13.0137C77.3421 13.0137 77.3238 13.0092 77.3238 13L76.5406 8.23249C76.5406 8.21417 76.536 8.16379 76.5269 8.08136C76.5269 7.99892 76.5269 7.93481 76.5269 7.88901ZM84.7809 18.2621C84.7809 18.1797 84.7854 18.0927 84.7946 18.0011C84.8129 17.9186 84.8404 17.8637 84.877 17.8362C84.9228 17.8179 84.9732 17.8454 85.0282 17.9186C85.0923 17.9919 85.1701 18.143 85.2617 18.372C85.5548 18.372 85.8205 18.3079 86.0586 18.1797C86.3059 18.0606 86.5257 17.8957 86.7181 17.6851C86.9104 17.4744 87.0707 17.2317 87.199 16.9569C87.3363 16.6821 87.4508 16.3982 87.5424 16.1051C87.634 15.812 87.6981 15.5189 87.7348 15.2258C87.7806 14.9418 87.8035 14.6762 87.8035 14.4289C87.8035 13.4763 87.7119 12.5054 87.5287 11.5162C87.3455 10.5178 87.0661 9.57893 86.6906 8.69962C86.5074 9.10264 86.3471 9.5194 86.2097 9.94989C86.0723 10.3804 85.9075 10.7971 85.7151 11.2002C85.5228 11.594 85.2846 11.9512 85.0007 12.2718C84.7259 12.5832 84.3549 12.8305 83.8878 13.0137C83.7229 13.0137 83.5901 12.9725 83.4894 12.8901C83.3978 12.7985 83.3245 12.6886 83.2695 12.5603C83.2237 12.4321 83.1963 12.2993 83.1871 12.1619C83.1779 12.0154 83.1734 11.878 83.1734 11.7497C83.1734 11.5482 83.1963 11.2826 83.2421 10.9529C83.297 10.614 83.3795 10.2522 83.4894 9.86746C83.5993 9.48276 83.7275 9.09806 83.8741 8.71336C84.0298 8.32866 84.2084 7.9806 84.4099 7.66918C84.6114 7.35776 84.8358 7.10587 85.0831 6.91352C85.3304 6.72117 85.6006 6.625 85.8937 6.625C85.9853 6.625 86.0769 6.6479 86.1685 6.6937C86.2601 6.73949 86.3517 6.78987 86.4433 6.84483L86.7181 7.0097C86.8097 7.0555 86.9059 7.09213 87.0066 7.11961C87.0341 7.23869 87.0799 7.43561 87.144 7.7104C87.2081 7.98518 87.2768 8.29661 87.3501 8.64467C87.4234 8.98357 87.4966 9.34537 87.5699 9.73006C87.6524 10.1148 87.7302 10.4811 87.8035 10.8292C87.8768 11.1681 87.9409 11.4795 87.9958 11.7635C88.0599 12.0383 88.1012 12.2398 88.1195 12.368C88.1286 12.4321 88.1424 12.542 88.1607 12.6977C88.1882 12.8443 88.2065 13 88.2157 13.1649C88.234 13.3389 88.2477 13.4992 88.2569 13.6457C88.2752 13.7923 88.2844 13.893 88.2844 13.948C88.2844 14.2136 88.266 14.5251 88.2294 14.8823C88.1928 15.2395 88.1286 15.6059 88.037 15.9814C87.9455 16.357 87.8264 16.7279 87.6798 17.0943C87.5333 17.4607 87.3501 17.7904 87.1303 18.0835C86.9104 18.3766 86.6494 18.6102 86.3471 18.7842C86.054 18.9674 85.7151 19.059 85.3304 19.059C85.1106 19.059 84.964 18.9766 84.8908 18.8117C84.8175 18.6468 84.7809 18.4636 84.7809 18.2621ZM83.6405 11.6261V11.8596C83.6405 11.9421 83.6497 12.0245 83.668 12.107C83.6863 12.1802 83.7184 12.2489 83.7642 12.313C83.8099 12.368 83.8832 12.3955 83.984 12.3955C84.1488 12.3863 84.3137 12.2947 84.4786 12.1207C84.6526 11.9467 84.8083 11.7452 84.9457 11.5162C85.0923 11.2872 85.2205 11.0582 85.3304 10.8292C85.4495 10.5911 85.5319 10.4124 85.5777 10.2934C85.6144 10.2109 85.6693 10.0552 85.7426 9.82624C85.825 9.59725 85.9075 9.35911 85.9899 9.1118C86.0723 8.85533 86.1502 8.61261 86.2235 8.38362C86.2967 8.14547 86.3471 7.9806 86.3746 7.88901V7.82031C86.3746 7.74704 86.3425 7.68292 86.2784 7.62796C86.2235 7.57301 86.1548 7.53179 86.0723 7.50431C85.9991 7.47683 85.9212 7.45393 85.8388 7.43561C85.7563 7.4173 85.6876 7.40814 85.6327 7.40814C85.4312 7.40814 85.2388 7.50431 85.0556 7.69666C84.8816 7.88901 84.7213 8.13174 84.5748 8.42484C84.4282 8.71794 84.2954 9.03852 84.1763 9.38658C84.0664 9.72549 83.9702 10.0552 83.8878 10.3758C83.8054 10.6872 83.7413 10.962 83.6955 11.2002C83.6588 11.4291 83.6405 11.5711 83.6405 11.6261ZM89.3115 12.684C89.3023 12.4459 89.2794 12.0795 89.2428 11.5849C89.2062 11.0811 89.1649 10.5178 89.1192 9.89494C89.0825 9.26293 89.0413 8.60345 88.9955 7.91649C88.9589 7.22037 88.9176 6.5563 88.8718 5.9243C88.8352 5.2923 88.794 4.72899 88.7482 4.23438C88.7116 3.7306 88.6887 3.35964 88.6795 3.1215V2.94289C88.6795 2.73222 88.7848 2.62689 88.9955 2.62689C89.0138 2.62689 89.0413 2.63147 89.0779 2.64063C89.1146 2.64063 89.1421 2.64063 89.1604 2.64063C89.2153 3.4375 89.2657 4.20232 89.3115 4.93508C89.3573 5.66783 89.4031 6.39601 89.4489 7.11961C89.4947 7.84321 89.5451 8.57139 89.6 9.30415C89.655 10.0277 89.7191 10.7834 89.7924 11.5711C89.8931 11.6719 89.9481 11.7909 89.9572 11.9283C89.9664 12.0566 89.971 12.1894 89.971 12.3268C89.971 12.3909 89.9664 12.4642 89.9572 12.5466C89.9572 12.6199 89.9435 12.6932 89.916 12.7664C89.8885 12.8305 89.8428 12.8901 89.7786 12.945C89.7237 12.9908 89.6504 13.0137 89.5588 13.0137C89.4764 13.0137 89.4168 12.9817 89.3802 12.9176C89.3527 12.8534 89.3298 12.7756 89.3115 12.684ZM90.8333 9.8125C90.6226 9.94073 90.4073 10.0415 90.1875 10.1148C89.9677 10.1789 89.7891 10.1331 89.6517 9.97737C89.6517 9.80334 89.7112 9.68885 89.8303 9.63389C89.9494 9.56977 90.0822 9.5194 90.2287 9.48276C90.3844 9.44612 90.5356 9.40032 90.6821 9.34537C90.8378 9.29041 90.9432 9.1805 90.9981 9.01563C91.0531 8.83244 91.1035 8.61261 91.1493 8.35614C91.1951 8.09968 91.2592 7.85237 91.3416 7.61422C91.424 7.37608 91.5431 7.17915 91.6988 7.02344C91.8545 6.85857 92.0698 6.77613 92.3446 6.77613C92.5003 6.77613 92.6926 6.83109 92.9216 6.941C93.1598 7.04176 93.3842 7.16541 93.5948 7.31196C93.8055 7.45851 93.9841 7.61422 94.1307 7.7791C94.2772 7.94397 94.3505 8.0951 94.3505 8.23249C94.3505 8.29661 94.3413 8.35614 94.323 8.4111C94.3139 8.46606 94.2681 8.51185 94.1856 8.54849L91.479 9.48276L91.4653 9.55145C91.4653 9.58809 91.4607 9.63847 91.4515 9.70259V9.86746C91.4515 9.93157 91.4515 9.97737 91.4515 10.0048C91.4515 10.188 91.4653 10.417 91.4927 10.6918C91.5202 10.9574 91.5752 11.2185 91.6576 11.4749C91.7492 11.7223 91.8729 11.9375 92.0286 12.1207C92.1843 12.3039 92.3949 12.3955 92.6606 12.3955C92.7613 12.3955 92.8438 12.3772 92.9079 12.3405C92.9812 12.2947 93.0499 12.2489 93.114 12.2031C93.1872 12.1482 93.2559 12.1024 93.3201 12.0657C93.3933 12.0199 93.4758 11.997 93.5674 11.997C93.5674 12.1344 93.5353 12.2672 93.4712 12.3955C93.4162 12.5145 93.3384 12.6199 93.2376 12.7115C93.1369 12.8031 93.0224 12.8763 92.8941 12.9313C92.7659 12.9863 92.6377 13.0137 92.5094 13.0137C92.1614 13.0137 91.882 12.8947 91.6713 12.6565C91.4607 12.4092 91.2958 12.1161 91.1767 11.7772C91.0668 11.4291 90.989 11.0765 90.9432 10.7193C90.8974 10.3529 90.8607 10.0506 90.8333 9.8125ZM92.5094 7.38066C92.3446 7.38066 92.2026 7.42645 92.0835 7.51805C91.9736 7.60964 91.882 7.72414 91.8087 7.86153C91.7355 7.99892 91.6805 8.15005 91.6439 8.31492C91.6164 8.47064 91.6027 8.61261 91.6027 8.74084C91.7492 8.74084 91.9095 8.73168 92.0835 8.71336C92.2667 8.69504 92.4453 8.65841 92.6194 8.60345C92.7934 8.54849 92.9491 8.4798 93.0865 8.39736C93.233 8.30577 93.3338 8.19585 93.3888 8.06762C93.2514 7.84779 93.1231 7.67834 93.0041 7.55927C92.885 7.44019 92.7201 7.38066 92.5094 7.38066Z" fill="#3A4736"/>
</svg>
