<svg width="183" height="102" fill="none" xmlns="http://www.w3.org/2000/svg"><path d="M1.64 38.46c-.267 0-.48-.053-.64-.16a.493.493 0 01-.2-.4c0-.16.08-.293.24-.4.187-.107.413-.147.68-.12.64.053 1.107.08 1.4.08.8 0 1.44-.12 1.92-.36.48-.267.8-.707.96-1.32.213-.827.48-3.627.8-8.4.347-4.8.52-8.52.52-11.16 0-1.173-.04-1.933-.12-2.28-.16-.613-.48-1.04-.96-1.28-.48-.267-1.12-.4-1.92-.4-.293 0-.76.027-1.4.08h-.16c-.24 0-.427-.053-.56-.16a.493.493 0 01-.2-.4c0-.133.067-.253.2-.36.16-.107.373-.16.64-.16h5.52c.613 0 1.013.16 1.2.48.053.107.133.32.24.64l7.96 18.88c.107.267.24.4.4.4.187 0 .32-.12.4-.36l8.16-18.96c.08-.213.187-.427.32-.64.16-.293.587-.44 1.28-.44h6.12c.267 0 .467.053.6.16.16.107.24.24.24.4 0 .16-.093.293-.28.4-.16.107-.373.147-.64.12-.64-.053-1.107-.08-1.4-.08-.8 0-1.44.133-1.92.4-.48.24-.8.667-.96 1.28-.08.347-.12 1.107-.12 2.28 0 2.64.16 6.347.48 11.12.347 4.773.627 7.587.84 8.44.16.613.48 1.053.96 1.32.48.24 1.12.36 1.92.36.293 0 .76-.027 1.4-.08h.16c.24 0 .427.053.56.16.133.107.2.24.2.4 0 .133-.08.253-.24.36-.133.107-.333.16-.6.16H23.4c-.267 0-.48-.053-.64-.16a.493.493 0 01-.2-.4c0-.16.08-.293.24-.4.187-.107.413-.147.68-.12.64.053 1.107.08 1.4.08.8 0 1.44-.12 1.92-.36.48-.267.8-.707.96-1.32.08-.373.12-1.053.12-2.04 0-1.92-.213-6.32-.64-13.2L27 17.02c-.027-.32-.133-.48-.32-.48-.133 0-.267.12-.4.36l-7.8 18.2c-.16.373-.347.667-.56.88-.187.213-.373.32-.56.32-.373 0-.707-.333-1-1L9.72 19.06c-.107-.24-.24-.36-.4-.36-.16 0-.267.16-.32.48a302.9 302.9 0 00-.56 7.96c-.16 2.747-.24 4.92-.24 6.52 0 1.04.04 1.747.12 2.12.16.613.48 1.053.96 1.32.48.24 1.12.36 1.92.36.293 0 .76-.027 1.4-.08h.16c.24 0 .427.053.56.16.133.107.2.24.2.4 0 .133-.08.253-.24.36-.133.107-.333.16-.6.16H1.64zM47.746 23.3c.266 0 .466.053.6.16.16.107.24.24.24.4 0 .187-.08.333-.24.44-.16.107-.387.133-.68.08a1.68 1.68 0 00-.4-.04c-.534 0-.8.32-.8.96 0 .453.146 1.093.44 1.92.293.8.773 2.013 1.44 3.64l1.24 3.08c.106.267.24.4.4.4.186 0 .32-.12.4-.36a139.195 139.195 0 002.16-5.64c.586-1.68.866-2.693.84-3.04 0-.373-.12-.613-.36-.72-.214-.133-.547-.173-1-.12h-.2a.807.807 0 01-.52-.16c-.134-.107-.2-.227-.2-.36 0-.16.066-.293.2-.4.16-.107.373-.16.64-.16h4.64c.266 0 .466.053.6.16.16.08.24.2.24.36 0 .16-.08.307-.24.44-.16.107-.387.147-.68.12a.696.696 0 00-.6.2c-.16.133-.36.373-.6.72-.214.32-.68 1.347-1.4 3.08a748.008 748.008 0 00-1.48 3.72c-1.44 3.627-2.467 6.147-3.08 7.56-.4.827-.92 1.667-1.56 2.52s-1.254 1.373-1.84 1.56c-.454.133-.8.2-1.04.2-.454 0-.814-.12-1.08-.36-.24-.213-.36-.467-.36-.76 0-.32.146-.6.44-.84.293-.24.706-.36 1.24-.36.48 0 .986-.227 1.52-.68.56-.427 1.013-.987 1.36-1.68l.44-.92c.08-.16.12-.32.12-.48 0-.08-.027-.2-.08-.36l-1.88-4.64a168.18 168.18 0 00-1.88-4.56c-.56-1.36-1.014-2.32-1.36-2.88-.507-.773-.974-1.147-1.4-1.12h-.04c-.267 0-.48-.053-.64-.16-.16-.107-.24-.24-.24-.4 0-.16.066-.28.2-.36.16-.107.373-.16.64-.16h5.84zm26.919 15.16c-.267 0-.48-.053-.64-.16a.493.493 0 01-.2-.4c0-.16.08-.293.24-.4.187-.107.413-.147.68-.12.64.053 1.107.08 1.4.08.8 0 1.44-.12 1.92-.36.48-.267.8-.707.96-1.32.24-.96.36-4.6.36-10.92s-.12-9.96-.36-10.92c-.16-.613-.48-1.04-.96-1.28-.48-.267-1.12-.4-1.92-.4-.293 0-.76.027-1.4.08h-.16c-.24 0-.427-.053-.56-.16a.493.493 0 01-.2-.4c0-.133.067-.253.2-.36.16-.107.373-.16.64-.16h12.24c.267 0 .467.053.6.16.16.107.24.24.24.4 0 .16-.093.293-.28.4-.16.107-.373.147-.64.12-.64-.053-1.107-.08-1.4-.08-.8 0-1.44.133-1.92.4-.48.24-.8.667-.96 1.28-.24.987-.36 4.093-.36 9.32 0 .693.333 1.04 1 1.04h11.6c.667 0 1-.347 1-1.04 0-5.227-.12-8.333-.36-9.32-.16-.613-.48-1.04-.96-1.28-.48-.267-1.12-.4-1.92-.4-.293 0-.76.027-1.4.08h-.16c-.24 0-.427-.053-.56-.16a.493.493 0 01-.2-.4c0-.133.067-.253.2-.36.16-.107.373-.16.64-.16h12.24c.267 0 .467.053.6.16.16.107.24.24.24.4 0 .16-.093.293-.28.4-.16.107-.373.147-.64.12-.64-.053-1.107-.08-1.4-.08-.8 0-1.44.133-1.92.4-.48.24-.8.667-.96 1.28-.24.96-.36 4.6-.36 10.92s.12 9.96.36 10.92c.16.613.48 1.053.96 1.32.48.24 1.12.36 1.92.36.293 0 .76-.027 1.4-.08h.16c.24 0 .427.053.56.16.133.107.2.24.2.4 0 .133-.08.253-.24.36-.133.107-.333.16-.6.16h-12.24c-.267 0-.48-.053-.64-.16a.493.493 0 01-.2-.4c0-.16.08-.293.24-.4.187-.107.413-.147.68-.12.64.053 1.107.08 1.4.08.8 0 1.44-.12 1.92-.36.48-.267.8-.707.96-1.32.24-.96.36-4.013.36-9.16 0-.693-.333-1.04-1-1.04h-11.6c-.667 0-1 .347-1 1.04 0 5.147.12 8.2.36 9.16.16.613.48 1.053.96 1.32.48.24 1.12.36 1.92.36.293 0 .76-.027 1.4-.08h.16c.24 0 .427.053.56.16.133.107.2.24.2.4 0 .133-.08.253-.24.36-.133.107-.333.16-.6.16h-12.24zm40.522.04c-1.28 0-2.507-.28-3.68-.84-1.173-.56-2.133-1.413-2.88-2.56-.72-1.147-1.08-2.533-1.08-4.16 0-1.653.373-3.053 1.12-4.2.747-1.147 1.693-2 2.84-2.56a8.125 8.125 0 017.36 0c1.173.56 2.133 1.413 2.88 2.56.747 1.147 1.12 2.547 1.12 4.2 0 1.627-.373 3.013-1.12 4.16-.747 1.147-1.707 2-2.88 2.56-1.173.56-2.4.84-3.68.84zm0-1.04c1.387 0 2.493-.6 3.32-1.8.827-1.2 1.24-2.787 1.24-4.76 0-1.947-.427-3.52-1.28-4.72-.827-1.227-1.92-1.84-3.28-1.84-1.36 0-2.467.613-3.32 1.84-.827 1.2-1.24 2.773-1.24 4.72 0 1.947.413 3.533 1.24 4.76.853 1.2 1.96 1.8 3.32 1.8zm13.074-11.64c0-.107.067-.213.2-.32.16-.133.373-.227.64-.28.827-.213 1.68-.653 2.56-1.32a9.94 9.94 0 00.56-.32c.267-.187.48-.28.64-.28.373 0 .56.16.56.48 0 .293-.013.56-.04.8 0 .187.04.307.12.36.107.027.227-.013.36-.12 1.093-1.013 2.253-1.52 3.48-1.52.853 0 1.68.253 2.48.76.8.48 1.467 1.187 2 2.12.16.267.32.28.48.04.427-.693 1.093-1.347 2-1.96.907-.64 1.827-.96 2.76-.96.88 0 1.733.267 2.56.8.853.533 1.547 1.36 2.08 2.48.56 1.093.84 2.453.84 4.08l-.04 3.6c0 1.067.093 1.867.28 2.4.187.507.56.76 1.12.76.213 0 .373-.013.48-.04l.24-.04c.213 0 .373.053.48.16.133.107.2.24.2.4 0 .16-.08.293-.24.4-.133.107-.333.16-.6.16h-6.64c-.267 0-.48-.053-.64-.16a.493.493 0 01-.2-.4c0-.187.08-.333.24-.44.16-.107.387-.133.68-.08.773.133 1.267-.16 1.48-.88.24-.747.36-1.893.36-3.44V30.9c0-1.12-.187-2.12-.56-3-.347-.88-.813-1.56-1.4-2.04-.56-.48-1.133-.72-1.72-.72-1.067 0-1.88.573-2.44 1.72-.533 1.12-.8 2.387-.8 3.8l-.04 3.6c0 1.067.093 1.867.28 2.4.187.507.56.76 1.12.76.213 0 .373-.013.48-.04l.24-.04c.213 0 .373.053.48.16.133.107.2.24.2.4 0 .16-.08.293-.24.4-.133.107-.333.16-.6.16h-6.64c-.267 0-.48-.053-.64-.16a.493.493 0 01-.2-.4c0-.187.08-.333.24-.44.16-.107.387-.133.68-.08.773.133 1.267-.16 1.48-.88.24-.747.36-1.893.36-3.44V30.9c0-1.12-.187-2.12-.56-3-.347-.88-.813-1.56-1.4-2.04-.56-.48-1.133-.72-1.72-.72s-1.133.24-1.64.72a5.098 5.098 0 00-1.16 1.68c-.267.667-.4 1.253-.4 1.76-.027.667-.04 1.573-.04 2.72 0 1.653.067 3.013.2 4.08.08.453.227.787.44 1 .213.213.52.32.92.32.187 0 .347-.013.48-.04l.24-.04c.213 0 .373.053.48.16.133.107.2.24.2.4 0 .16-.08.293-.24.4-.133.107-.333.16-.6.16h-6.52c-.267 0-.48-.053-.64-.16a.493.493 0 01-.2-.4c0-.187.08-.333.24-.44.16-.107.387-.133.68-.08.8.16 1.333-.267 1.6-1.28.16-.587.24-1.493.24-2.72 0-.88-.013-1.56-.04-2.04l-.04-2.68c0-.72-.12-1.293-.36-1.72-.213-.453-.573-.68-1.08-.68-.267 0-.48-.04-.64-.12-.133-.08-.2-.187-.2-.32zm32.042 5.12c0-1.627.36-3.013 1.08-4.16.72-1.173 1.64-2.04 2.76-2.6 1.12-.587 2.253-.88 3.4-.88 1.68 0 3.093.44 4.24 1.32 1.147.853 1.72 2.027 1.72 3.52 0 .56-.12 1-.36 1.32-.213.32-.48.48-.8.48l-8.52-.04c-.4 0-.6.187-.6.56 0 1.813.44 3.373 1.32 4.68.88 1.28 2.08 1.92 3.6 1.92 1.12 0 2.093-.253 2.92-.76s1.427-1.093 1.8-1.76c.187-.32.4-.48.64-.48.267 0 .4.173.4.52 0 .267-.08.493-.24.68-.747 1.093-1.573 1.907-2.48 2.44-.907.533-2.053.8-3.44.8a8.19 8.19 0 01-3.64-.84c-1.12-.56-2.04-1.413-2.76-2.56-.693-1.147-1.04-2.533-1.04-4.16zm3.24-2.68a.44.44 0 00-.04.2c0 .32.187.48.56.48l5.48-.04c.48 0 .787-.107.92-.32.133-.24.2-.533.2-.88 0-.987-.293-1.787-.88-2.4-.56-.64-1.307-.96-2.24-.96-.907 0-1.72.333-2.44 1-.693.667-1.213 1.64-1.56 2.92z" fill="#EDE1DE"/><path d="M50.462 54.5a15.403 15.403 0 003.558-.525c4.837-1.3 9.632-2.973 14.442-4.475" stroke="#EDE1DE" stroke-linecap="round"/><path d="M43.697 74.547c0-.594.124-1.219.374-1.875.282-.656.704-1.125 1.266-1.406a7.985 7.985 0 00.14 2.859 7.27 7.27 0 001.173 2.484 5.89 5.89 0 002.062 1.735c.844.406 1.813.61 2.906.61 1.344 0 2.5-.329 3.47-.985a9.12 9.12 0 002.483-2.531 11.616 11.616 0 001.454-3.376c.312-1.25.468-2.453.468-3.609v-.984l-2.765-15.235a5.138 5.138 0 01-.094-.562c0-.25.047-.484.14-.703.126-.25.297-.422.516-.516.25-.094.625-.047 1.125.14 0 .063.063.376.188.938.156.532.312 1.235.468 2.11.188.843.376 1.797.563 2.859.219 1.063.422 2.14.61 3.234.187 1.063.359 2.094.515 3.094.156.969.281 1.797.375 2.484.156 1.657.11 3.376-.14 5.157-.25 1.781-.75 3.422-1.5 4.922a9.856 9.856 0 01-3.188 3.703c-1.344.969-3.031 1.453-5.063 1.453-.75 0-1.578-.156-2.484-.469a10.033 10.033 0 01-2.438-1.266 8.893 8.893 0 01-1.874-1.874c-.5-.75-.75-1.547-.75-2.391zM68.2 80.5c-.594.219-1.14.172-1.64-.14-.47-.344-.891-.844-1.266-1.5a14.102 14.102 0 01-.985-2.297c-.281-.876-.5-1.735-.656-2.579a25.336 25.336 0 01-.328-2.296c-.031-.688-.016-1.188.047-1.5 0-.313.015-.797.047-1.454.03-.656.062-1.39.093-2.203.032-.844.063-1.703.094-2.578.063-.906.11-1.781.14-2.625.032-.844.063-1.578.095-2.203.03-.656.046-1.14.046-1.453.063 0 .11-.016.141-.047l.14-.047c.313 0 .579.14.797.422.22.281.407.547.563.797 0 .437-.016 1.219-.047 2.344v7.265c.031 1.125.047 1.906.047 2.344.031.375.094.969.188 1.781.124.781.28 1.594.468 2.438.188.812.438 1.562.75 2.25.344.656.766 1.031 1.266 1.125 1.312 0 2.406-.485 3.281-1.453.906-.97 1.656-2.188 2.25-3.657a26.974 26.974 0 001.406-4.734c.375-1.719.688-3.328.938-4.828.25-1.5.469-2.75.656-3.75.219-1.031.469-1.594.75-1.688l1.125.235 2.625 18.14c.188.094.344.235.469.422.125.188.234.39.328.61.125.218.203.437.234.656.063.219.094.375.094.469-.062.218-.25.453-.562.703-.313.25-.579.39-.797.422h-.281l-.28-.422a6.424 6.424 0 00-.329-.656 6.425 6.425 0 01-.328-.657 3.055 3.055 0 00-.14-.469 15.9 15.9 0 01-.329-1.453 97.306 97.306 0 01-.281-2.156c-.094-.812-.188-1.656-.281-2.531a56.274 56.274 0 00-.235-2.578 30.002 30.002 0 00-.234-2.203c-.063-.657-.14-1.141-.234-1.454a45.272 45.272 0 01-.657 2.579c-.28.968-.64 2-1.078 3.093a32.663 32.663 0 01-1.406 3.235c-.531 1.031-1.14 2-1.828 2.906a11.584 11.584 0 01-2.203 2.25A6.125 6.125 0 0168.2 80.5zm15.645-17.438v-.656c.031-.25.062-.484.094-.703.062-.25.172-.453.328-.61.156-.156.375-.234.656-.234.063 0 .156.016.281.047h.328c.032 2.219.141 4.5.329 6.844a37.31 37.31 0 001.265 6.797c.031-.344.11-.922.235-1.734.156-.844.312-1.72.468-2.626.188-.937.36-1.812.516-2.624.187-.813.312-1.391.375-1.735.219-.656.516-1.328.89-2.016a9.598 9.598 0 011.36-1.968 7.958 7.958 0 011.828-1.453 4.442 4.442 0 012.156-.563c1.25 0 2.36.281 3.328.844a9.232 9.232 0 012.579 2.25 12.738 12.738 0 011.968 3.14 24.304 24.304 0 011.313 3.563c.344 1.219.594 2.39.75 3.516.156 1.125.234 2.125.234 3v.562c0 .188-.031.375-.094.563a.814.814 0 01-.234.421c-.094.094-.281.141-.562.141-.313 0-.579-.187-.797-.562a25.16 25.16 0 00-.282-2.72 33.536 33.536 0 00-.562-3.234 20.705 20.705 0 00-.938-3.374c-.375-1.126-.859-2.126-1.453-3-.562-.876-1.234-1.579-2.015-2.11-.782-.562-1.72-.844-2.813-.844-.875 0-1.64.157-2.297.47a4.61 4.61 0 00-1.593 1.312c-.438.53-.797 1.172-1.079 1.922-.25.718-.437 1.5-.562 2.343-.094.438-.219 1.219-.375 2.344a498.336 498.336 0 01-.516 3.61c-.187 1.28-.36 2.484-.515 3.609a70.605 70.605 0 00-.235 2.344c-.093.312-.265.5-.515.562a2.55 2.55 0 01-.703.094c-.032 0-.11-.016-.235-.047-.125 0-.187-.016-.187-.047l-2.672-16.266c0-.062-.016-.234-.047-.515v-.657zm28.161 35.391c0-.281.015-.578.046-.89.063-.282.157-.47.282-.563.156-.063.328.031.515.281.219.25.485.766.797 1.547 1 0 1.906-.219 2.719-.656a7.337 7.337 0 002.25-1.688A9.825 9.825 0 00120.257 94c.468-.938.859-1.906 1.171-2.906.313-1 .532-2 .657-3 .156-.969.234-1.875.234-2.719 0-3.25-.312-6.563-.937-9.938-.625-3.406-1.579-6.609-2.86-9.609a38.667 38.667 0 00-1.64 4.266 33.706 33.706 0 01-1.688 4.265 16.233 16.233 0 01-2.437 3.657c-.938 1.062-2.204 1.906-3.797 2.53-.563 0-1.016-.14-1.36-.421a3.563 3.563 0 01-.75-1.125 5.013 5.013 0 01-.281-1.36c-.031-.5-.047-.968-.047-1.406 0-.687.078-1.593.235-2.718a32.33 32.33 0 01.843-3.704 48.448 48.448 0 011.313-3.937c.531-1.313 1.14-2.5 1.828-3.563.687-1.062 1.453-1.921 2.297-2.578.844-.656 1.765-.984 2.765-.984.313 0 .625.078.938.234.312.157.625.328.937.516l.938.563c.312.156.641.28.984.374l.469 2.016c.219.938.453 2 .703 3.188.25 1.156.5 2.39.75 3.703.281 1.312.547 2.562.797 3.75.25 1.156.469 2.219.656 3.187.219.938.36 1.625.422 2.063.031.219.078.594.141 1.125.094.5.156 1.031.187 1.594.063.593.11 1.14.141 1.64.062.5.094.844.094 1.031 0 .907-.063 1.97-.188 3.188a27.88 27.88 0 01-.656 3.75 28.292 28.292 0 01-1.219 3.797 14.675 14.675 0 01-1.875 3.375 8.81 8.81 0 01-2.672 2.39c-1 .625-2.156.938-3.468.938-.75 0-1.25-.281-1.5-.844a4.566 4.566 0 01-.375-1.875zm-3.891-22.64v.796c0 .282.031.563.094.844.062.25.172.484.328.703.156.188.406.281.75.281.562-.03 1.125-.343 1.687-.937a10.64 10.64 0 001.594-2.063c.5-.78.938-1.562 1.313-2.343.406-.813.687-1.422.843-1.828.125-.282.313-.813.563-1.594.281-.781.562-1.594.844-2.438l.796-2.484c.25-.813.422-1.375.516-1.688v-.234c0-.25-.109-.469-.328-.656a1.77 1.77 0 00-.703-.422 5.938 5.938 0 00-.797-.234 3.355 3.355 0 00-.703-.094c-.688 0-1.344.328-1.969.984-.594.657-1.141 1.485-1.641 2.485-.5 1-.953 2.093-1.359 3.28a56.6 56.6 0 00-.984 3.376c-.282 1.062-.5 2-.657 2.812-.125.782-.187 1.266-.187 1.454zm19.348 3.609a115.99 115.99 0 00-.234-3.75l-.422-5.766a792.36 792.36 0 00-.422-6.75c-.125-2.375-.266-4.64-.422-6.797a170.391 170.391 0 00-.422-5.765 122.623 122.623 0 01-.234-3.797v-.61c0-.718.359-1.078 1.078-1.078.062 0 .156.016.281.047h.281a1170 1170 0 01.516 7.828c.156 2.5.313 4.985.469 7.453.156 2.47.328 4.954.515 7.454.188 2.468.407 5.046.657 7.734.343.344.531.75.562 1.219.031.437.047.89.047 1.36 0 .218-.016.468-.047.75 0 .25-.047.5-.14.75-.094.218-.25.421-.469.609-.188.156-.438.234-.75.234-.281 0-.485-.11-.61-.328a4.155 4.155 0 01-.234-.797zm5.192-9.797c-.719.438-1.453.781-2.203 1.031-.75.219-1.36.063-1.828-.469 0-.593.203-.984.609-1.171a5.84 5.84 0 011.359-.516 12.601 12.601 0 001.547-.469c.532-.187.891-.562 1.078-1.125.188-.625.36-1.375.516-2.25.156-.875.375-1.719.656-2.531.282-.813.688-1.484 1.219-2.016.531-.562 1.266-.843 2.203-.843.531 0 1.188.187 1.969.562.812.344 1.578.766 2.297 1.266.719.5 1.328 1.031 1.828 1.593.5.563.75 1.079.75 1.547 0 .22-.031.422-.094.61-.031.187-.187.344-.469.469l-9.234 3.187-.047.234c0 .125-.015.297-.047.516v1.031c0 .625.047 1.406.141 2.344.094.906.281 1.797.562 2.672a7.274 7.274 0 001.266 2.203c.531.625 1.25.938 2.156.938.344 0 .625-.063.844-.188.25-.156.484-.313.703-.469a6.95 6.95 0 01.703-.469 1.56 1.56 0 01.844-.234 3 3 0 01-.328 1.36 3.34 3.34 0 01-.797 1.078 4.167 4.167 0 01-1.172.75 3.306 3.306 0 01-1.312.28c-1.188 0-2.141-.405-2.86-1.218-.718-.844-1.281-1.844-1.687-3a20.687 20.687 0 01-.797-3.61c-.156-1.25-.281-2.28-.375-3.093zm5.719-8.297c-.563 0-1.047.156-1.453.469a3.881 3.881 0 00-.938 1.172c-.25.468-.437.984-.562 1.547a8.4 8.4 0 00-.141 1.453c.5 0 1.047-.031 1.641-.094a9.044 9.044 0 001.828-.375 7.438 7.438 0 001.593-.703c.5-.313.844-.688 1.032-1.125-.469-.75-.907-1.328-1.313-1.734-.406-.407-.969-.61-1.687-.61z" fill="#EDE1DE"/></svg>