<svg width="40" height="40" viewBox="0 0 39 39" fill="none" xmlns="http://www.w3.org/2000/svg">
<path d="M0 19.5312C0 23.3942 1.14549 27.1703 3.29161 30.3822C5.43773 33.5941 8.4881 36.0975 12.057 37.5758C15.6258 39.054 19.5529 39.4408 23.3416 38.6872C27.1303 37.9336 30.6104 36.0734 33.3419 33.3419C36.0734 30.6104 37.9336 27.1303 38.6872 23.3416C39.4408 19.5529 39.054 15.6258 37.5758 12.057C36.0975 8.48809 33.5941 5.43772 30.3822 3.2916C27.1703 1.14548 23.3942 -7.62939e-06 19.5312 -7.62939e-06C14.3544 0.0103149 9.39256 2.07138 5.73197 5.73196C2.07139 9.39255 0.0103227 14.3544 0 19.5312ZM37.5 19.5312C37.5 23.0851 36.4462 26.5592 34.4717 29.5141C32.4973 32.4691 29.691 34.7722 26.4076 36.1322C23.1242 37.4922 19.5113 37.8481 16.0257 37.1547C12.5401 36.4614 9.3384 34.75 6.82542 32.2371C4.31245 29.7241 2.60109 26.5224 1.90776 23.0368C1.21444 19.5512 1.57028 15.9383 2.93029 12.6549C4.2903 9.37154 6.5934 6.5652 9.54835 4.59077C12.5033 2.61634 15.9774 1.56249 19.5312 1.56249C24.2953 1.56766 28.8627 3.46245 32.2314 6.83113C35.6 10.1998 37.4948 14.7672 37.5 19.5312ZM17.793 12.3437C17.9445 12.2037 18.1433 12.126 18.3496 12.126C18.5559 12.126 18.7547 12.2037 18.9062 12.3437C18.9789 12.4184 19.0354 12.5072 19.0724 12.6047C19.1094 12.7021 19.1259 12.8061 19.1211 12.9101C19.1244 13.0111 19.107 13.1117 19.0701 13.2058C19.0331 13.2998 18.9774 13.3853 18.9062 13.457L13.6133 18.75H27.3438C27.551 18.75 27.7497 18.8323 27.8962 18.9788C28.0427 19.1253 28.125 19.324 28.125 19.5312C28.125 19.7384 28.0427 19.9372 27.8962 20.0837C27.7497 20.2302 27.551 20.3125 27.3438 20.3125H13.6133L18.9062 25.6055C19.0539 25.7531 19.1368 25.9533 19.1368 26.1621C19.1368 26.3709 19.0539 26.5711 18.9062 26.7187C18.7586 26.8664 18.5584 26.9493 18.3496 26.9493C18.1408 26.9493 17.9406 26.8664 17.793 26.7187L11.1719 20.0781C11.0986 20.0071 11.0404 19.9221 11.0006 19.8282C10.9609 19.7342 10.9404 19.6333 10.9404 19.5312C10.9404 19.4292 10.9609 19.3283 11.0006 19.2343C11.0404 19.1404 11.0986 19.0554 11.1719 18.9844L17.793 12.3437Z" fill="#3A4736"/>
</svg>
