<svg width="40" height="40" viewBox="0 0 40 40" fill="none" xmlns="http://www.w3.org/2000/svg">
<path d="M39.0625 19.5313C39.0625 15.6683 37.917 11.8922 35.7709 8.68028C33.6248 5.46838 30.5744 2.96501 27.0055 1.48674C23.4367 0.00846228 19.5096 -0.378321 15.7209 0.375296C11.9322 1.12891 8.45207 2.98909 5.72057 5.72058C2.98908 8.45207 1.12891 11.9322 0.375292 15.7209C-0.378328 19.5096 0.0084557 23.4367 1.48673 27.0055C2.965 30.5744 5.46837 33.6248 8.68027 35.7709C11.8922 37.917 15.6683 39.0625 19.5313 39.0625C24.7081 39.0522 29.6699 36.9911 33.3305 33.3305C36.9911 29.6699 39.0522 24.7081 39.0625 19.5313ZM1.5625 19.5313C1.5625 15.9774 2.61635 12.5033 4.59078 9.54836C6.56521 6.59341 9.37155 4.29031 12.6549 2.9303C15.9383 1.57029 19.5512 1.21444 23.0368 1.90777C26.5224 2.6011 29.7241 4.31246 32.2371 6.82543C34.7501 9.33841 36.4614 12.5401 37.1547 16.0257C37.8481 19.5113 37.4922 23.1242 36.1322 26.4076C34.7722 29.691 32.4691 32.4973 29.5142 34.4717C26.5592 36.4462 23.0851 37.5 19.5313 37.5C14.7672 37.4948 10.1998 35.6 6.83114 32.2314C3.46247 28.8627 1.56767 24.2953 1.5625 19.5313ZM21.2695 26.7188C21.118 26.8588 20.9192 26.9365 20.7129 26.9365C20.5066 26.9365 20.3078 26.8588 20.1563 26.7188C20.0836 26.6441 20.0271 26.5553 19.9901 26.4578C19.9531 26.3604 19.9366 26.2564 19.9414 26.1523C19.9381 26.0514 19.9555 25.9508 19.9924 25.8567C20.0294 25.7627 20.0851 25.6772 20.1563 25.6055L25.4492 20.3125H11.7188C11.5116 20.3125 11.3128 20.2302 11.1663 20.0837C11.0198 19.9372 10.9375 19.7385 10.9375 19.5313C10.9375 19.3241 11.0198 19.1253 11.1663 18.9788C11.3128 18.8323 11.5116 18.75 11.7188 18.75H25.4492L20.1563 13.457C20.0086 13.3094 19.9257 13.1092 19.9257 12.9004C19.9257 12.6916 20.0086 12.4914 20.1563 12.3438C20.3039 12.1961 20.5041 12.1132 20.7129 12.1132C20.9217 12.1132 21.1219 12.1961 21.2695 12.3438L27.8906 18.9844C27.9639 19.0554 28.0221 19.1404 28.0619 19.2343C28.1016 19.3283 28.1221 19.4292 28.1221 19.5313C28.1221 19.6333 28.1016 19.7342 28.0619 19.8282C28.0221 19.9221 27.9639 20.0071 27.8906 20.0781L21.2695 26.7188Z" fill="#3A4736"/>
</svg>
