<svg width="41" height="33" fill="none" xmlns="http://www.w3.org/2000/svg"><mask id="a" fill="#fff"><path d="M40.18 0H.82a.797.797 0 00-.58.254.895.895 0 00-.24.614v29.527c0 .69.26 1.353.72 1.842A2.392 2.392 0 002.46 33h36.08c.652 0 1.278-.275 1.74-.763.46-.489.72-1.151.72-1.842V.868a.895.895 0 00-.24-.614.797.797 0 00-.58-.254zm-2.111 1.737L20.5 18.8 2.931 1.737H38.07zm.471 29.526H2.46a.797.797 0 01-.58-.254.895.895 0 01-.24-.614V2.845l18.306 17.758a.777.777 0 00.554.236.777.777 0 00.553-.236L39.36 2.844v27.55a.895.895 0 01-.24.615.797.797 0 01-.58.254z"/></mask><path d="M40.18 0H.82a.797.797 0 00-.58.254.895.895 0 00-.24.614v29.527c0 .69.26 1.353.72 1.842A2.392 2.392 0 002.46 33h36.08c.652 0 1.278-.275 1.74-.763.46-.489.72-1.151.72-1.842V.868a.895.895 0 00-.24-.614.797.797 0 00-.58-.254zm-2.111 1.737L20.5 18.8 2.931 1.737H38.07zm.471 29.526H2.46a.797.797 0 01-.58-.254.895.895 0 01-.24-.614V2.845l18.306 17.758a.777.777 0 00.554.236.777.777 0 00.553-.236L39.36 2.844v27.55a.895.895 0 01-.24.615.797.797 0 01-.58.254z" fill="#EEE4E2"/><path d="M38.069 1.737l1.393 1.434 3.536-3.434h-4.93v2zM20.5 18.8l-1.393 1.435L20.5 21.59l1.393-1.354-1.393-1.435zM2.931 1.737v-2h-4.93L1.539 3.17l1.394-1.434zM1.64 2.844L3.033 1.41-.36-1.883v4.727h2zm18.306 17.76l1.426-1.404-.016-.016-.017-.016-1.392 1.435zm.554.235v-2 2zm.553-.236l-1.392-1.435-.017.016-.016.016 1.425 1.403zM39.36 2.844h2v-4.727L37.967 1.41l1.393 1.435zM40.18-2H.82v4h39.36v-4zM.82-2a2.8 2.8 0 00-2.034.881l2.908 2.746A1.203 1.203 0 01.82 2v-4zm-2.034.881A2.895 2.895 0 00-2 .868h4c0 .265-.098.54-.306.76L-1.214-1.12zM-2 .868v29.527h4V.868h-4zm0 29.527c0 1.185.444 2.344 1.266 3.215l2.909-2.746a.687.687 0 01-.175-.47h-4zm1.266 3.215A4.392 4.392 0 002.46 35v-4a.395.395 0 01-.285-.136L-.734 33.61zM2.46 35h36.08v-4H2.46v4zm36.08 0a4.392 4.392 0 003.194-1.39l-2.909-2.746a.395.395 0 01-.285.136v4zm3.194-1.39A4.685 4.685 0 0043 30.395h-4a.686.686 0 01-.175.469l2.909 2.746zM43 30.395V.868h-4v29.527h4zM43 .868c0-.724-.27-1.441-.786-1.987l-2.908 2.746A1.105 1.105 0 0139 .868h4zm-.786-1.987A2.797 2.797 0 0040.18-2v4c-.351 0-.663-.149-.874-.373l2.908-2.746zM36.675.302L19.107 17.367l2.787 2.869L39.462 3.171 36.675.302zM21.894 17.367L4.325.302l-2.787 2.87 17.569 17.064 2.787-2.87zM2.931 3.737h35.136v-4H2.932v4zM38.54 29.263H2.46v4h36.08v-4zm-36.08 0c.351 0 .663.149.874.373L.426 32.382c.519.55 1.248.881 2.034.881v-4zm.874.373c.208.22.306.495.306.759h-4c0 .725.27 1.441.786 1.987l2.908-2.746zm.306.759V2.845h-4v27.55h4zM.247 4.28l18.307 17.759 2.785-2.871L3.033 1.408.247 4.28zm18.274 17.726c.513.521 1.22.833 1.979.833v-4c.347 0 .657.143.872.361l-2.85 2.806zm1.979.833c.76 0 1.466-.312 1.979-.833l-2.85-2.806a1.22 1.22 0 01.871-.361v4zm1.946-.8l18.307-17.76-2.786-2.87-18.306 17.759 2.785 2.87zM37.36 2.844v27.55h4V2.845h-4zm0 27.55c0-.263.098-.538.306-.758l2.908 2.746a2.895 2.895 0 00.786-1.987h-4zm.306-.758a1.2 1.2 0 01.874-.373v4a2.8 2.8 0 002.034-.881l-2.908-2.746z" fill="#EEE4E2" mask="url(#a)"/></svg>