<svg width="43" height="35" fill="none" xmlns="http://www.w3.org/2000/svg"><path d="M41.173 1.512a2.493 2.493 0 00-1.142-.481 2.628 2.628 0 00-1.258.113L2.489 13.862c-.472.167-.87.465-1.137.85a1.927 1.927 0 00-.342 1.289 2 2 0 00.587 1.215c.337.338.788.57 1.285.663l9.853 1.771v10.841c-.006.418.13.828.39 1.175.26.348.631.617 1.066.773.294.104.607.158.924.157.307 0 .611-.053.895-.159.284-.105.54-.26.757-.454l5.625-5.018 8.3 6.509c.425.343.98.531 1.553.526a2.6 2.6 0 00.728-.105 2.427 2.427 0 001.01-.58 2.06 2.06 0 00.563-.947L41.94 3.564c.097-.372.076-.76-.06-1.122a2.078 2.078 0 00-.707-.93zM2.566 15.879a.608.608 0 01.103-.438.736.736 0 01.389-.281L36.335 3.512 13.344 18.317 3.196 16.511a.795.795 0 01-.437-.22.648.648 0 01-.193-.412zm13.079 15.104a.797.797 0 01-.396.195.853.853 0 01-.45-.038.776.776 0 01-.357-.257.65.65 0 01-.135-.392v-9.876l6.904 5.42-5.566 4.948zm24.76-27.717l-7.394 28.787a.663.663 0 01-.188.319.786.786 0 01-.343.19.813.813 0 01-.396.024.76.76 0 01-.351-.165L14.78 19.124 40.288 2.687a.679.679 0 01.128.278c.02.1.017.203-.01.301z" fill="#EEE4E2" stroke="#EEE4E2"/></svg>