<svg width="35" height="33" fill="none" xmlns="http://www.w3.org/2000/svg"><path d="M32.652 10.465a15.522 15.522 0 00-3.41-4.853c.474.45.918.928 1.331 1.431a15.082 15.082 0 013.096 6.367 14.59 14.59 0 01-.199 6.986 15.205 15.205 0 01-3.454 6.204c-.248.271-.506.534-.772.788 1.973-1.907 3.408-4.275 4.142-6.888.936-3.331.677-6.86-.734-10.035zM1.718 30.484c.062.234.186.442.353.605a1.22 1.22 0 01-.415-.631 1.125 1.125 0 01.015-.634h0l.003-.011 1.51-4.966.128-.422-.225-.38a14.765 14.765 0 01-2.086-7.701 14.794 14.794 0 012.251-7.661 15.632 15.632 0 012.33-2.902c-2.425 2.415-3.975 5.511-4.403 8.837-.439 3.412.328 6.86 2.174 9.811l-1.617 5.33c-.074.235-.08.486-.018.725zm24.666-9.541a1.186 1.186 0 00-.274-.66 1.019 1.019 0 01.336.749c0 1.158-.482 2.282-1.36 3.127a4.45 4.45 0 001.302-3.13v-.043l-.004-.043zm-14.435.856c.104.098.21.195.318.29a12.886 12.886 0 01-3.373-4.56 12.225 12.225 0 01-1.035-4.925c.004-1.154.486-2.273 1.36-3.115a4.451 4.451 0 00-1.3 3.108h0v.005c0 3.46 1.456 6.767 4.03 9.197zm1.688-13.273c.046.051.088.106.123.163l.001.002L15.763 12l.001.002c.114.191.17.403.167.614a1.17 1.17 0 01-.187.613h0l-1.321 2.07-.323.507.295.523c.255.452.555.875.894 1.265a7.786 7.786 0 01-1.205-1.778l1.575-2.508a1.31 1.31 0 00.056-1.346l-.01-.02-.013-.02-2.007-3.315-.048-.08z" fill="#EEE4E2" stroke="#EEE4E2" stroke-width="2"/></svg>