<svg width="35" height="33" fill="none" xmlns="http://www.w3.org/2000/svg"><path d="M10.003 28.42c2.205 1.247 4.851 1.94 7.497 1.94 8.085 0 14.7-6.237 14.7-13.86 0-7.623-6.615-13.86-14.7-13.86-8.085 0-14.7 6.237-14.7 13.86 0 2.495.735 4.851 1.911 6.93l-1.264 4.582a1.31 1.31 0 00.006.72c.07.236.204.45.39.62.185.171.415.293.667.353.251.06.515.056.764-.012l4.729-1.273z" stroke="#EEE4E2" stroke-width="2" stroke-miterlimit="10" stroke-linecap="round" stroke-linejoin="round"/><path d="M24.5 20.798c0 .226-.053.459-.167.684a2.58 2.58 0 01-.452.64 3.007 3.007 0 01-1.094.74 3.507 3.507 0 01-1.297.238c-.68 0-1.406-.15-2.173-.457a11.9 11.9 0 01-2.29-1.243 18.883 18.883 0 01-2.184-1.755 18.15 18.15 0 01-1.858-2.05 11.033 11.033 0 01-1.306-2.137c-.32-.718-.479-1.4-.479-2.051 0-.427.08-.834.24-1.21a2.88 2.88 0 01.766-1.048c.426-.395.892-.589 1.385-.589.186 0 .372.038.54.113.172.075.325.188.446.351l1.545 2.051c.119.156.207.301.267.439a.95.95 0 01.093.382.816.816 0 01-.14.446 2.156 2.156 0 01-.373.444l-.507.496a.334.334 0 00-.107.25c0 .05.008.094.021.144.02.05.04.088.053.126.119.207.325.476.62.802.3.326.619.66.965.991.36.333.706.64 1.06.922.345.275.632.463.858.576l.12.051a.488.488 0 00.315-.001.368.368 0 00.125-.08l.505-.472c.167-.156.327-.274.48-.35a.927.927 0 01.473-.132c.14.002.278.03.407.082.146.056.3.137.465.244l2.205 1.474a.97.97 0 01.367.4c.069.155.105.321.106.49v0z" stroke="#EEE4E2" stroke-width="2" stroke-miterlimit="10"/></svg>