<svg width="40" height="40" viewBox="0 0 40 40" fill="none" xmlns="http://www.w3.org/2000/svg">
<path d="M20 0.46875C16.1371 0.46875 12.3609 1.61424 9.14903 3.76036C5.93713 5.90648 3.43376 8.95685 1.95549 12.5257C0.477212 16.0946 0.0904288 20.0217 0.844046 23.8104C1.59766 27.599 3.45784 31.0792 6.18933 33.8107C8.92082 36.5422 12.401 38.4023 16.1897 39.156C19.9783 39.9096 23.9054 39.5228 27.4743 38.0445C31.0432 36.5662 34.0935 34.0629 36.2396 30.851C38.3858 27.6391 39.5313 23.8629 39.5313 20C39.5209 14.8232 37.4599 9.86131 33.7993 6.20072C30.1387 2.54014 25.1768 0.479073 20 0.46875ZM20 37.9688C16.4461 37.9688 12.9721 36.9149 10.0171 34.9405C7.06216 32.966 4.75906 30.1597 3.39905 26.8763C2.03904 23.593 1.68319 19.9801 2.37652 16.4945C3.06985 13.0089 4.78121 9.80715 7.29418 7.29417C9.80716 4.7812 13.0089 3.06984 16.4945 2.37651C19.9801 1.68319 23.593 2.03903 26.8764 3.39904C30.1597 4.75905 32.966 7.06215 34.9405 10.0171C36.9149 12.972 37.9688 16.4461 37.9688 20C37.9636 24.764 36.0688 29.3314 32.7001 32.7001C29.3314 36.0688 24.764 37.9636 20 37.9688ZM27.1875 18.2617C27.3275 18.4133 27.4053 18.612 27.4053 18.8184C27.4053 19.0247 27.3275 19.2234 27.1875 19.375C27.1128 19.4476 27.024 19.5042 26.9266 19.5412C26.8292 19.5781 26.7252 19.5947 26.6211 19.5898C26.5201 19.5931 26.4195 19.5758 26.3255 19.5388C26.2315 19.5019 26.146 19.4461 26.0742 19.375L20.7813 14.082V27.8125C20.7813 28.0197 20.6989 28.2184 20.5524 28.3649C20.4059 28.5114 20.2072 28.5938 20 28.5938C19.7928 28.5938 19.5941 28.5114 19.4476 28.3649C19.3011 28.2184 19.2188 28.0197 19.2188 27.8125V14.082L13.9258 19.375C13.7782 19.5226 13.5779 19.6056 13.3692 19.6056C13.1604 19.6056 12.9601 19.5226 12.8125 19.375C12.6649 19.2274 12.5819 19.0271 12.5819 18.8184C12.5819 18.6096 12.6649 18.4093 12.8125 18.2617L19.4531 11.6406C19.5241 11.5674 19.6091 11.5092 19.7031 11.4694C19.797 11.4296 19.898 11.4091 20 11.4091C20.102 11.4091 20.203 11.4296 20.2969 11.4694C20.3909 11.5092 20.4759 11.5674 20.5469 11.6406L27.1875 18.2617Z" fill="#3A4736"/>
</svg>
