<svg width="21" height="24" viewBox="0 0 21 24" fill="none" xmlns="http://www.w3.org/2000/svg">
<path d="M20 22.5C20 18.4365 15.7421 15.15 10.5 15.15C5.25786 15.15 1 18.4365 1 22.5M10.5 12C11.9666 12 13.3731 11.4469 14.4101 10.4623C15.4471 9.47774 16.0297 8.14239 16.0297 6.75C16.0297 5.35761 15.4471 4.02226 14.4101 3.03769C13.3731 2.05312 11.9666 1.5 10.5 1.5C9.03344 1.5 7.62694 2.05312 6.58992 3.03769C5.5529 4.02226 4.97031 5.35761 4.97031 6.75C4.97031 8.14239 5.5529 9.47774 6.58992 10.4623C7.62694 11.4469 9.03344 12 10.5 12V12Z" stroke="#3A4736" stroke-width="1.61853" stroke-linecap="round" stroke-linejoin="round"/>
</svg>
