<svg width="35" height="33" viewBox="0 0 35 33" fill="none" xmlns="http://www.w3.org/2000/svg">
<path d="M32.6522 10.4654C31.8424 8.64392 30.6808 7.00073 29.2427 5.61148C29.7159 6.06182 30.1603 6.53991 30.573 7.0434C32.1103 8.91876 33.1677 11.097 33.6687 13.4097C34.1696 15.7222 34.1018 18.1118 33.4701 20.3964C32.8383 22.6812 31.6581 24.8041 30.0155 26.6003C29.7676 26.8714 29.5101 27.1339 29.2437 27.3876C31.217 25.4809 32.6522 23.1126 33.3865 20.4997C34.3225 17.169 34.0634 13.6397 32.6522 10.4654ZM1.71848 30.4837C1.78014 30.7178 1.90418 30.9256 2.07091 31.0892C2.04723 31.0697 2.0243 31.0496 2.00219 31.0287C1.82912 30.8655 1.71227 30.6673 1.65625 30.4582C1.60036 30.2496 1.60525 30.0314 1.67089 29.8244L1.67096 29.8244L1.67446 29.8129L3.18416 24.8467L3.31242 24.4248L3.08742 24.0456C1.68966 21.6898 0.971987 19.035 1.00084 16.3439C1.02969 13.6529 1.80415 11.012 3.25245 8.6827C3.90731 7.62952 4.68997 6.65617 5.58194 5.78097C3.15658 8.19597 1.60734 11.2921 1.17921 14.6181C0.740022 18.03 1.50709 21.4789 3.35315 24.429L1.73569 29.7589C1.66179 29.9938 1.65558 30.2448 1.71848 30.4837ZM26.3839 20.9428C26.3622 20.6926 26.2627 20.4642 26.1101 20.2823C26.1822 20.3507 26.2437 20.4266 26.2935 20.5075C26.3941 20.671 26.4451 20.8517 26.4464 21.0321C26.4456 22.1901 25.9642 23.3136 25.086 24.1585C25.9146 23.32 26.3877 22.2034 26.3877 21.0294V20.986L26.3839 20.9428ZM11.9489 21.7988C12.0533 21.8973 12.1592 21.9941 12.2665 22.0891C12.1288 21.9694 11.9937 21.847 11.8612 21.7219C10.5863 20.5184 9.57895 19.093 8.89352 17.5289C8.20833 15.9652 7.85752 14.2919 7.85945 12.6038C7.86327 11.4495 8.34467 10.3305 9.21988 9.48853C8.39658 10.3216 7.92378 11.4297 7.91816 12.5967H7.91815V12.6015C7.91814 16.0623 9.37545 19.3689 11.9489 21.7988ZM13.6852 8.60572L13.6367 8.52571C13.6834 8.57723 13.7246 8.63212 13.76 8.68955C13.7603 8.69013 13.7607 8.69071 13.761 8.6913L15.7629 11.9987C15.7633 11.9993 15.7637 11.9999 15.764 12.0005C15.8782 12.1921 15.934 12.4038 15.9308 12.6151C15.9276 12.827 15.865 13.0384 15.7439 13.228L15.7437 13.2283L14.4227 15.2989L14.0997 15.8052L14.3949 16.3282C14.6497 16.7798 14.9496 17.203 15.2887 17.593C14.8059 17.0565 14.3997 16.4589 14.0837 15.8147L15.6594 13.3065C15.7852 13.1149 15.8605 12.8913 15.8729 12.6566C15.8859 12.4125 15.83 12.1724 15.7151 11.9615L15.7042 11.9414L15.6924 11.9219L13.6852 8.60572Z" fill="#EEE4E2" stroke="#EEE4E2" stroke-width="2"/>
</svg>
