<svg width="35" height="35  " viewBox="0 0 35 33" fill="none" xmlns="http://www.w3.org/2000/svg">
                    <path
                        d="M10.003 28.4196C12.208 29.667 14.854 30.36 17.5 30.36C25.585 30.36 32.2 24.123 32.2 16.5C32.2 8.87701 25.585 2.64001 17.5 2.64001C9.415 2.64001 2.8 8.87701 2.8 16.5C2.8 18.9948 3.535 21.351 4.711 23.43L3.4468 28.0121C3.38158 28.2487 3.38386 28.4973 3.45341 28.7327C3.52296 28.9682 3.65731 29.1821 3.84284 29.3528C4.02836 29.5235 4.25846 29.6449 4.5098 29.7047C4.76115 29.7645 5.02479 29.7606 5.27401 29.6933L10.003 28.4196Z"
                        stroke="#EEE4E2" stroke-width="2" stroke-miterlimit="10" stroke-linecap="round"
                        stroke-linejoin="round" />
                    <path
                        d="M24.5 20.7983C24.5 21.024 24.4468 21.2567 24.333 21.4824C24.2169 21.7156 24.0645 21.9312 23.8808 22.1219C23.5542 22.4605 23.1951 22.7044 22.7873 22.8618C22.3883 23.0192 21.9553 23.1001 21.4898 23.1001C20.81 23.1001 20.0844 22.9496 19.3174 22.643C18.5066 22.3116 17.7382 21.8947 17.0269 21.4002C16.2532 20.8674 15.5231 20.2805 14.8427 19.6446C14.1695 19.0066 13.5486 18.3214 12.9852 17.595C12.4674 16.9302 12.0293 16.2134 11.6788 15.4576C11.3596 14.7401 11.2 14.0573 11.2 13.4066C11.2 12.9803 11.2798 12.5734 11.4394 12.1972C11.599 11.8141 11.8532 11.4629 12.2064 11.1494C12.632 10.7537 13.0975 10.5601 13.591 10.5601C13.7772 10.5601 13.9634 10.5977 14.1304 10.6729C14.3033 10.7482 14.4555 10.861 14.5767 11.024L16.1225 13.075C16.2407 13.2311 16.3294 13.376 16.3885 13.5139C16.4476 13.6449 16.4816 13.7773 16.4816 13.8957C16.4797 14.0537 16.431 14.2081 16.3412 14.3416C16.2386 14.5047 16.1133 14.6542 15.9688 14.786L15.4619 15.2821C15.4267 15.3146 15.399 15.3537 15.3807 15.3969C15.3623 15.4401 15.3538 15.4864 15.3555 15.5329C15.3555 15.5816 15.3629 15.6262 15.3762 15.6764C15.3954 15.7265 15.4161 15.7642 15.4294 15.8018C15.5476 16.0094 15.7545 16.2783 16.0486 16.6043C16.3486 16.9304 16.6678 17.2634 17.0136 17.595C17.3742 17.928 17.72 18.2345 18.0731 18.5174C18.4189 18.7919 18.7056 18.98 18.9317 19.0928L19.0529 19.1444C19.106 19.1622 19.1621 19.1707 19.2184 19.1695C19.2694 19.1705 19.32 19.1615 19.3671 19.143C19.4142 19.1245 19.4567 19.097 19.4918 19.0622L19.9972 18.5912C20.1642 18.4352 20.3238 18.3167 20.4775 18.2401C20.6188 18.1552 20.7828 18.1098 20.9504 18.1091C21.0903 18.1111 21.2284 18.139 21.3568 18.1913C21.5031 18.2471 21.6568 18.3279 21.8223 18.4352L24.0271 19.9093C24.1869 20.0073 24.3139 20.146 24.3936 20.3092C24.4627 20.4641 24.4988 20.6303 24.5 20.7983V20.7983Z"
                        stroke="#EEE4E2" stroke-width="2" stroke-miterlimit="10" />
                </svg>